<svg xmlns="http://www.w3.org/2000/svg" viewBox="0 0 1000 999.97"><defs><style>.cls-1{fill:#99b5df;}.cls-2{fill:#538fcc;}.cls-3{fill:#0068b3;}.cls-4{fill:#c8d5ee;}</style></defs><g id="Capa_2" data-name="Capa 2"><g id="Capa_1-2" data-name="Capa 1"><path class="cls-1" d="M826.6,878.48c-37.62,25.42-80.74,41.2-128.43,41.2a219.31,219.31,0,0,1-95.81-21.5,222,222,0,0,1-47.63-31.4l-53.64-53.2a.55.55,0,0,1-.83-.07c0,.07.05,0,0,0S452.35,766.58,406,719.39l-.31.05-.4-.4C324.42,683,268,602,268,507.69c0-44.06,15-88.48,36.49-123.59-56.54,54.64-116.06,114.38-116.06,114.38.15,0-53.62,55.5-53.62,55.5C97.48,597.6,82.5,645.67,82.5,697c0,53.22,18.18,103,50.16,140,.45.53,1.05,1.16,1.51,1.68,22.51,23.79,78.39,76.92,107,89.06h0C289.15,959.14,384.33,1000,500,1000,624.52,1000,739.07,953.8,826.6,878.48Z"/><path class="cls-2" d="M883.86,179.59a221.2,221.2,0,0,1,0,243.47,136.72,136.72,0,0,1-10.14,12.82c-4.2,4.92-9.3,10.48-15.65,16.86-11.75,12.32-24.82,25.2-34.21,34.53l-9.43,9.59L713.27,597.68a239.83,239.83,0,0,1-39.5,61.15C630.88,707.32,568.43,739.35,500,739.35a230.41,230.41,0,0,1-94-20c45.33,46.32,88.65,89.21,94.25,94.12.12-.17,54.94,53.88,54.94,53.88a217.4,217.4,0,0,0,142.23,52.29c48.73,0,92.06-16.19,129.17-41.2,1.75-1.55,3.91-3.41,5.51-4.82a499.89,499.89,0,0,0,51.75-694.07Z"/><path class="cls-3" d="M883.86,179.59A500.14,500.14,0,0,0,202.05,98.4c-14.6,11.33-27.67,23.6-41.11,36.34,9.95-8.65,28.49-24.21,29.66-25,32.74-19.9,71.34-31,112.42-31l.34,0h.07a219.44,219.44,0,0,1,125,39c4,3,7.54,5.79,11.49,8.94,1.8,1.54,3.75,3.15,5.74,4.92a1.93,1.93,0,0,1,.41.39l0,0c1.71,1.5,3.38,3.21,5.17,4.91,2.66,2.54,5.51,5.2,8.56,8.28,8.29,8.36,30.53,30.29,38.2,38L606.53,288.9l57,55.55a231.56,231.56,0,0,1,49.7,253.23c51.9-51.74,99.77-99.5,99.77-99.5,2.15-2.29,6-6.18,10.78-10.91,9.76-9.88,24.37-24.65,30.86-31.11,1.2-1.16,2.25-2.29,3.35-3.42,5.7-5.93,11.11-11.71,15.65-16.86,4-4.71,7.29-8.91,10.14-12.82A222.68,222.68,0,0,0,920.35,301.2,220.42,220.42,0,0,0,883.86,179.59Z"/><path class="cls-4" d="M456.62,142c-.16-.13-10.8-10.27-11-10.42q-2.88-2.42-5.74-4.92c-4.21-3.42-8-6.35-11.49-8.94a219.44,219.44,0,0,0-125-39l-.41,0c-40.84,0-78.89,10.85-111.83,30.64a12,12,0,0,0-1.14.77c-30.43,23.4-55.63,49.66-81.15,78.27C72.2,229.55,44.84,283.88,26.71,340,8.88,395.23,0,452.18,0,500c0,55,9.74,113.07,27.11,161.94,16.5,46.42,54.34,114.55,88.21,155.64,5.5,6.68,17.09,19.2,17.06,19.16-.82-1-1.61-1.89-2.37-2.81C100,796.24,82.5,748.92,82.5,697c0-51.32,26.55-117.63,63.6-154.69,10.18-10.15,29.63-30.72,39.66-41,8.18-8.45,118.09-116.4,118.72-117.16,9.51-11.62,18.07-25.08,28.39-35.91h-.11l1.76-1.79c1.25-1.24,2.49-2.48,3.7-3.67l.21-.21,61.13-61L498,183.2Z"/></g></g></svg>