<svg xmlns="http://www.w3.org/2000/svg" viewBox="0 0 1732.57 304.24"><defs><style>.cls-1{fill:#FFFFFF;}</style></defs><g id="Capa_2" data-name="Capa 2"><g id="Capa_1-2" data-name="Capa 1"><path class="cls-1" d="M309.61,171.7C342,161,356.23,120.2,356.23,95.17,356.23-4,249.26,0,249.26,0H0V304.24H85.91V188.93h91.23c56,0,73.64,36.78,73.64,64.28a146.14,146.14,0,0,0,8.31,48.58H351.9S347,287.55,347,265.94C347,211,329.8,184,309.61,171.7ZM213,125.16H86.42v-56L215,69.62c4.87,0,38.67-1.42,38.67,26.64C253.65,125.66,213,125.16,213,125.16Z"/><path class="cls-1" d="M700.19,0H469.59S378.33-3.41,378.33,126.1v96.16S372,301.79,481.89,301.79h218.3V233.56h-206s-19.64.44-19.64-27.44V180.61H699.74V117.22H473.5V96.6s0-27,23.08-27H700.19Z"/><path class="cls-1" d="M1068.64,0V66.31H839.53s-26,1.89-26,25.49c0,15.67,13.77,25.42,27,25.42H986.27s99.59,2,99.59,90.83c0,26.53-12.69,94.63-100,94.63H737V235H966.65s33.36,1,33.36-26.48c0-22.55-25.53-27-33.36-27H820.89s-98.13-4.38-98.13-89.75S819,0,829.76,0Z"/><polygon class="cls-1" points="1097.57 0.02 1097.57 65.72 1222.72 65.72 1222.72 302.68 1309.03 302.68 1309.03 63.73 1434.18 63.73 1434.18 0.47 1097.57 0.02"/><path class="cls-1" d="M1582.87,0h-90.3L1340,303.75h95.66L1473,231.61h127.55l36.37,71.62h95.65Zm-78.48,167.22,33.41-62.19,32.37,62.19Z"/></g></g></svg>