<svg xmlns="http://www.w3.org/2000/svg" viewBox="0 0 1000 987.09"><defs><style>.cls-1{fill:#3b9dd7;}.cls-2{fill:none;}.cls-3{fill:#575756;}.cls-4{fill:#99b5df;}.cls-5{fill:#538fcc;}.cls-6{fill:#0068b3;}.cls-7{fill:#c8d5ee;}</style></defs><g id="Capa_2" data-name="Capa 2"><g id="Capa_1-2" data-name="Capa 1"><path class="cls-1" d="M719.7,577.89c2.29-1.75,4.52-3.57,6.72-5.46-.62.59-1.28,1.17-1.91,1.76-1.34,1.27-2.73,2.51-4.09,3.73-1.59,1.23-3.16,2.44-4.81,3.58C717,580.31,718.35,579.1,719.7,577.89Z"/><path class="cls-2" d="M536.53,573.74a147.74,147.74,0,0,0,31.2,20.36,146.77,146.77,0,0,1-31.64-20.58l-35.34-35.37.07-.16Z"/><path class="cls-1" d="M500.75,538.15c-.07.1-.14.18-.21.29a3.89,3.89,0,0,1-.36-.34l.21-.32Z"/><path class="cls-1" d="M719.7,577.89c-1.35,1.21-2.72,2.42-4.09,3.61a145.74,145.74,0,0,1-147.88,12.6,145.77,145.77,0,0,0,152-16.21Z"/><path class="cls-3" d="M178.69,910.61c18.7-6.22,26.91-29.73,26.91-44.16,0-57.23-61.74-55-61.74-55H0v175.6H49.58V920.53h52.65c32.29,0,42.49,21.23,42.49,37.12a84.33,84.33,0,0,0,4.81,28.05h53.55s-2.85-8.22-2.85-20.71C200.23,933.27,190.34,917.69,178.69,910.61Zm-55.78-26.87h-73V851.43l74.18.25c2.8,0,22.34-.84,22.34,15.36C146.4,884,122.91,883.74,122.91,883.74Z"/><path class="cls-3" d="M404.14,811.49H271s-52.68-2-52.68,72.79v55.53s-3.66,45.89,59.77,45.89h126V946.31H285.2s-11.34.25-11.34-15.84V915.74h130V879.17H273.28V867.24s0-15.56,13.31-15.56H404.14Z"/><path class="cls-3" d="M616.78,811.49v38.28H484.56s-15,1.07-15,14.71c0,9.06,7.95,14.69,15.58,14.69h84.12s57.49,1.12,57.49,52.4c0,15.32-7.31,54.65-57.74,54.65H425.38V947.13H557.93s19.25.57,19.25-15.27c0-13-14.73-15.58-19.25-15.58H473.79s-56.64-2.53-56.64-51.8,55.54-53,61.77-53Z"/><polygon class="cls-3" points="633.49 811.49 633.49 849.45 705.72 849.45 705.72 986.22 755.55 986.22 755.55 848.27 827.77 848.27 827.77 811.76 633.49 811.49"/><path class="cls-3" d="M913.61,811.49H861.49l-88,175.32h55.2l21.54-41.64H923.8l21,41.35H1000Zm-45.34,96.56,19.3-35.92,18.71,35.92Z"/><path class="cls-4" d="M716,581.06c-24.88,16.81-53.41,27.25-84.95,27.25a142.69,142.69,0,0,1-94.87-35l-35.49-35.18c0,.1-.34.18-.54,0,0,0,0,0,0,0s-31.69-31-62.34-62.25l-.21,0-.26-.27a153,153,0,0,1-90.83-139.79c0-29.14,9.94-58.53,24.14-81.75-37.4,36.14-76.77,75.65-76.77,75.65s-35.46,36.71-35.46,36.71c-24.69,28.86-34.6,60.65-34.6,94.6,0,35.2,12,68.16,33.18,92.63.3.35.7.76,1,1.11,14.89,15.73,51.85,50.87,70.79,58.91h0c31.72,20.75,94.67,47.75,171.19,47.75A330.92,330.92,0,0,0,716,581.06Z"/><path class="cls-5" d="M753.9,118.79a146.31,146.31,0,0,1,0,161,92.2,92.2,0,0,1-6.71,8.48c-2.78,3.25-6.15,6.93-10.35,11.15-7.77,8.15-16.42,16.67-22.63,22.84-3.62,3.69-6.24,6.34-6.24,6.34l-66.88,66.69a158.84,158.84,0,0,1-26.13,40.45C586.58,467.85,545.27,489,500,489a152.51,152.51,0,0,1-62.17-13.2c30,30.63,58.63,59,62.34,62.25.07-.11,36.34,35.64,36.34,35.64a143.81,143.81,0,0,0,94.07,34.58c32.23,0,60.89-10.71,85.44-27.25l3.65-3.18A330.66,330.66,0,0,0,753.9,118.79Z"/><path class="cls-6" d="M753.9,118.79a330.81,330.81,0,0,0-451-53.71c-9.66,7.5-18.31,15.61-27.2,24,6.59-5.72,18.85-16,19.62-16.51a142.94,142.94,0,0,1,74.36-20.5l.23,0h0a145.26,145.26,0,0,1,82.66,25.78c2.66,2,5,3.83,7.6,5.92,1.2,1,2.49,2.08,3.8,3.25a1.12,1.12,0,0,1,.27.26h0c1.13,1,2.23,2.12,3.42,3.25,1.76,1.68,3.64,3.44,5.66,5.48,5.49,5.52,20.2,20,25.27,25.13l71.78,69.92,37.72,36.74a153.19,153.19,0,0,1,32.88,167.5c34.33-34.22,66-65.81,66-65.81,1.42-1.52,4-4.09,7.13-7.22,6.46-6.53,16.12-16.3,20.42-20.58.79-.77,1.48-1.51,2.21-2.26,3.77-3.92,7.35-7.75,10.35-11.15,2.64-3.12,4.82-5.9,6.71-8.48A147.29,147.29,0,0,0,778,199.22,145.69,145.69,0,0,0,753.9,118.79Z"/><path class="cls-7" d="M471.31,93.93c-.1-.08-7.14-6.79-7.27-6.89-1.27-1.07-2.53-2.15-3.8-3.25-2.78-2.27-5.27-4.2-7.6-5.92A145.26,145.26,0,0,0,370,52.09l-.27,0a142.89,142.89,0,0,0-74,20.26,7.71,7.71,0,0,0-.75.52c-20.13,15.47-36.79,32.84-53.68,51.76C217,151.84,198.94,187.77,187,224.89c-11.79,36.53-17.67,74.2-17.67,105.82,0,36.39,6.45,74.79,17.94,107.11,10.91,30.71,35.94,75.77,58.34,103,3.64,4.41,11.31,12.7,11.29,12.67-.55-.64-1.07-1.25-1.57-1.86A144.09,144.09,0,0,1,223.85,461c0-33.95,17.56-77.81,42.07-102.32,6.73-6.71,19.6-20.32,26.23-27.15,5.41-5.59,78.11-77,78.53-77.49,6.29-7.68,11.95-16.59,18.78-23.75h-.07l1.16-1.18,2.44-2.44.14-.13,40.44-40.36,65.12-65Z"/></g></g></svg>