<svg xmlns="http://www.w3.org/2000/svg" viewBox="0 0 93.43 26.36"><defs><style>.cls-1{fill:#595a5b;}</style></defs><g id="Capa_2" data-name="Capa 2"><g id="Capa_1-2" data-name="Capa 1"><path class="cls-1" d="M43.75,9.14a1.91,1.91,0,0,0-1.93.88,6.91,6.91,0,0,0-1,3.55c0,.32,0,.73.09,1.13.12.82.42,1.56,1.32,1.73a1.73,1.73,0,0,0,2-1.13,7.78,7.78,0,0,0,.71-4.65C44.77,10,44.58,9.26,43.75,9.14Z"/><path class="cls-1" d="M89.35,0c-7.3,0-14.6,0-21.9,0C53.05.5,38.68,1.28,24.29,1.8c-6.05.21-12.1.73-18.15,1.1C3.87,3,2.65,4.28,2.28,6.63,1.62,10.78.85,14.91.18,19.06c-.6,3.75.21,4.79,3.85,4.78,17.36-.07,34.72.2,52.07,1q14.55.66,29.09,1.5c3.11.18,4.32-.62,4.91-3.86q1.62-8.76,3.12-17.54C93.88,1,93.1,0,89.35,0ZM11.81,12.81c-.14,1.55-.26,1.67-1.88,1.66-1.86,0-1.86,0-2.21,1.82,0,.1,0,.2,0,.3-.71,3.21.1,2.54-3.19,2.64-.8,0-1-.3-.87-1.05C4,16.09,4.43,14,4.81,11.9c.29-1.57.57-3.14.81-4.71a1,1,0,0,1,1.16-1c1.76,0,3.52,0,5.28,0,.71,0,1,.22.87,1-.2,1.61-.17,1.62-2.18,1.6-.47.11-1.22-.29-1.55.24a7,7,0,0,0-.56,2.66c0,.32.29.3.53.3h1.94C11.68,12,11.86,12.23,11.81,12.81ZM14,18.92a3.29,3.29,0,0,1-1.87-2.85,13.27,13.27,0,0,1,.44-3.92c.24-1.51.59-3,.77-4.51.13-1,.47-1.6,1.6-1.41a3,3,0,0,0,.6,0c2.06,0,2,0,1.56,2s-.76,4-1,6c-.11.8-.41,1.86.85,2.17.9.22,1.61-.4,2-1.72.54-1.79.75-3.65,1.13-5.47.11-.5.17-1,.3-1.5s-.06-1.31.65-1.47a6.56,6.56,0,0,1,2.61,0c.38.08.34.45.27.77-.52,2.63-.88,5.3-1.59,7.87C21.08,19.47,17.23,20.21,14,18.92Zm16.55-1.65a4.21,4.21,0,0,1-3.85,2.17,7.23,7.23,0,0,1-3.49-.69c-.51-.25-.92-.61-.47-1.17s.5-1.57,1.6-1.08l.56.24a1.6,1.6,0,0,0,2-.43,1.53,1.53,0,0,0,0-2c-.44-.68-.93-1.33-1.41-2-1.91-2.62-.94-5.39,2.2-6.19a5.16,5.16,0,0,1,3.85.38c.36.2.85.46.53.9s-.4,1.48-1.4,1.35c-.23,0-.45-.14-.68-.17a1.35,1.35,0,0,0-1.46.46c-.37.5-.18.94.05,1.42a12.38,12.38,0,0,0,1.21,1.75C30.87,13.79,31.48,15.44,30.55,17.27Zm2.46,2c-1.94,0-1.91,0-1.54-1.94.62-3.33,1.24-6.67,1.8-10,.13-.82.5-1.11,1.27-1.09s1.28,0,1.93,0,.82.3.7.91c-.69,3.56-1.35,7.13-2,10.69C34.87,19.22,34.85,19.22,33,19.23Zm10.47.08A5.16,5.16,0,0,1,37,14.5a8,8,0,0,1,2.71-6.93,5.49,5.49,0,0,1,6.13-1.14c2.29,1,2.85,3.1,3,4.9C48.87,15.43,46.63,18.57,43.48,19.31ZM92.14,4.42c-1.08,6-2.26,12-3.37,18-.38,2.09-1.61,2.94-3.67,2.83-7.1-.36-14.2-.69-21.29-1-4.35-.21-8.69-.49-13-.63-1.76-.06-2.39-.44-1.57-2.31C51.62,15.71,53,10,52.28,3.88,52,1.75,53.49,1.71,54.93,1.73c7.83.11,15.65-.69,23.48-.47,3.7,0,7.4,0,11.1,0C92.15,1.28,92.61,1.78,92.14,4.42Z"/><path class="cls-1" d="M83.08,8.51a1.53,1.53,0,0,1,1.38-.06c1,.41,1.3-.4,1.55-1s-.51-.72-.88-.94a3.28,3.28,0,0,0-1.78-.36,1.51,1.51,0,0,0-.3,0c-1.57.18-3,.64-3.8,2.16s-.26,2.75.65,4c.49.65,1,1.3,1.41,2a1.71,1.71,0,0,1,0,2.09,1.78,1.78,0,0,1-2.19.56,3.82,3.82,0,0,0-.86-.3c-.9-.16-.86.78-1.27,1.2s.18.55.45.73a5.31,5.31,0,0,0,2.32.7,4.69,4.69,0,0,0,4.68-1.8c1.14-1.59.64-3.13-.31-4.63a15.81,15.81,0,0,1-1.71-2.63A1.23,1.23,0,0,1,83.08,8.51Z"/><path class="cls-1" d="M63.28,8.93c.1,0,.2,0,.3.06,1.13.23,1.08-.85,1.42-1.39s-.29-.69-.68-.88c-3.51-1.74-9.77.65-9.72,7.5A5.51,5.51,0,0,0,56.74,18c2.21,1.8,4.67,1.49,7.17.81.45-.13.5-.5.57-.87.23-1.27.44-2.54.7-3.8.11-.58-.05-.84-.66-.82-3,.07-2.48-.49-3.06,2.32-.28,1.36-.84,1.56-2,.65a2.63,2.63,0,0,1-.88-1.1,4.86,4.86,0,0,1,.3-4.85C60,8.77,61.58,8.63,63.28,8.93Z"/><path class="cls-1" d="M65.85,19.1c1.35.16,2.38-.14,2.81-1.59.36-1.19,1.14-1.72,2.22-1.43,1.9,0,1.9,0,2,.86.3,2.17.3,2.14,2.54,2.15.84,0,1.06-.27.93-1.07-.57-3.51-1.1-7-1.66-10.55-.06-.39,0-1-.6-1-.82,0-1.87-.51-2.43.47-2.14,3.76-4.22,7.57-6.33,11.35C65,18.88,65.24,19,65.85,19.1Zm5-5.88c.41-.92.85-1.82,1.27-2.73l.26,0c.07,1,.15,2.06.21,3.1a.38.38,0,0,1-.43.44c-.47,0-1,.16-1.4-.11S70.73,13.45,70.82,13.22Z"/></g></g></svg>