<svg xmlns="http://www.w3.org/2000/svg" viewBox="0 0 93.43 45.48"><defs><style>.cls-1{fill:#595a5b;}</style></defs><g id="Capa_2" data-name="Capa 2"><g id="Capa_1-2" data-name="Capa 1"><path class="cls-1" d="M40.77,26.79c-1.42-1.88-1.11-3.38.9-4.45-.43-.23-.85-.42-1.25-.66A4.72,4.72,0,0,1,38,16.87a5.14,5.14,0,0,1,2.9-4.33,9.25,9.25,0,0,1,4.19-.95c2.65-.05,5.3,0,8,0,.65,0,.94.19.91.86s.28,1.74-.13,2.37-1.44.07-2.24.33a4.05,4.05,0,0,1,.76,4.47c-1,2.23-2.92,3-5.13,3.32-.53.08-1.07.1-1.59.2a.8.8,0,0,0-.73.75c0,.43.37.53.73.59,1.37.23,2.76.27,4.13.57,3.65.79,4.31,4.1,2.75,6.67-.07.11-.19.19-.11.43h40c1,0,1,0,1,1,0,3.77,0,7.55,0,11.32,0,.76-.16,1-1,1q-22.57,0-45.16,0-23.13,0-46.28,0c-.8,0-1-.18-1-1,.05-3.8,0-7.6,0-11.4,0-.73.19-1,.94-1q22.58,0,45.15,0c.38,0,.75,0,1.13,0a2,2,0,1,0,0-4.06c-2.57,0-5.14,0-7.72,0-.28,0-.75.2-.83-.19s.41-.44.68-.59A4,4,0,0,1,40.77,26.79ZM34.71,37.31l.17,0c.37,1.45.76,2.89,1.09,4.34.12.53.36.68.88.67s.7-.15.81-.65c.33-1.43.71-2.85,1.08-4.27a29.53,29.53,0,0,1,.16,4.19c0,.49.1.73.66.73s.67-.22.66-.71c0-1.87,0-3.75,0-5.62,0-.61-.18-.77-.78-.76-1.34,0-1.35,0-1.68,1.27-.08.28-.14.57-.22.85-.21.8-.43,1.59-.65,2.38a22.94,22.94,0,0,1-1-3.18c-.35-1.32-.35-1.3-1.73-1.32-.53,0-.76.1-.75.69,0,1.9,0,3.8,0,5.7,0,.52.14.69.68.7s.64-.25.64-.73C34.7,40.15,34.71,38.73,34.71,37.31Zm-5,1.88.27-.14a1.88,1.88,0,0,0,1.42-2.2,1.86,1.86,0,0,0-2.06-1.62c-1,0-2,0-3.05,0-.49,0-.65.15-.64.64,0,1.93,0,3.86,0,5.78,0,.56.2.66.7.67s.79-.12.74-.71,0-1.08,0-1.61.26-.77.82-.64a1.39,1.39,0,0,1,.83.59,13.82,13.82,0,0,1,1.07,1.59c.37.76,1,.81,1.66.77.44,0,.44-.18.24-.48A9.44,9.44,0,0,0,29.75,39.19ZM85,38l.19,0c.09.13.19.25.27.38.72,1.16,1.46,2.31,2.13,3.49.36.64.9.5,1.41.44s.3-.55.3-.84c0-1.82,0-3.65,0-5.47,0-.54-.13-.73-.71-.74s-.6.34-.6.76c0,1.22,0,2.44,0,3.68-.39-.08-.43-.35-.55-.54-.72-1.16-1.44-2.31-2.13-3.49-.35-.6-.9-.4-1.36-.35s-.26.52-.26.79c0,1.85,0,3.7,0,5.54,0,.51.11.71.66.71s.66-.25.65-.73C85,40.37,85,39.17,85,38Zm-36.2.74a3.34,3.34,0,0,0-3.49-3.65C43.27,35.1,42,36.5,42,38.74a3.44,3.44,0,1,0,6.87,0Zm26.33,0c0,2.23,1.32,3.64,3.4,3.63S82,41,82,38.78s-1.3-3.7-3.41-3.71S75.16,36.47,75.16,38.76Zm-56.66,0c0,1,0,2,0,3,0,.4.12.59.55.58,1.42,0,2.84,0,4.25,0,.48,0,.59-.2.59-.63s-.21-.59-.63-.58c-.75,0-1.5,0-2.25,0-1.23,0-1.09.15-1.1-1.13a.86.86,0,0,0,0-.16c-.07-.49.14-.66.63-.64.8,0,1.61,0,2.41,0,.46,0,.51-.22.51-.6s-.07-.6-.52-.58c-.83,0-1.66,0-2.49,0s-.53-.44-.54-.82-.12-.83.55-.8c.86,0,1.71,0,2.57,0,.4,0,.72,0,.72-.56s-.23-.61-.68-.61c-1.31,0-2.62,0-3.93,0-.48,0-.66.14-.65.64C18.52,36.8,18.5,37.77,18.5,38.73Zm49,3.66a3.07,3.07,0,0,0,2.09-.65A2.06,2.06,0,0,0,69,38.3c-.74-.31-1.53-.48-2.29-.73-.32-.1-.59-.29-.55-.69s.32-.47.61-.57a1.39,1.39,0,0,1,1.79.61c.36.62.91.34,1.27.22s.1-.6,0-.86c-.43-.93-1.6-1.37-3-1.17a2.05,2.05,0,0,0-2,1.76,2,2,0,0,0,1.55,2.07c.6.21,1.24.35,1.85.54.34.11.64.31.64.73a.9.9,0,0,1-.62.85,1.58,1.58,0,0,1-2.2-.81c-.31-.63-.8-.34-1.18-.27-.53.09-.21.52-.12.77C65.12,41.84,66,42.35,67.51,42.39Zm-56.75-3.7c0,1,0,1.93,0,2.9,0,.51.14.67.67.71.89.06.76-.49.76-1,0-2.27,0-2.26,2.29-2.12.42,0,.56.17.55.58,0,.64,0,1.28,0,1.92s.3.62.75.64.66-.15.65-.64c0-1.93,0-3.86,0-5.79,0-.55-.2-.66-.7-.66s-.69.12-.7.66c0,2.26-.07,2.25-2.29,2.13-.42,0-.57-.15-.55-.57s0-1.07,0-1.6-.31-.61-.75-.62-.71,0-.69.6C10.79,36.76,10.76,37.73,10.76,38.69Zm50.62-.88h0v1c0,.35,0,.7,0,1a1.25,1.25,0,0,1-1.62,1.35,1.19,1.19,0,0,1-1.14-1.3c0-1.36,0-2.73,0-4.09,0-.48-.21-.63-.63-.56s-.79-.21-.78.38a38,38,0,0,0,.09,4.89,2,2,0,0,0,1.85,1.82,5.2,5.2,0,0,0,1.76,0,2,2,0,0,0,1.81-1.86,45.18,45.18,0,0,0,.1-4.8c0-.53-.36-.45-.67-.43s-.75-.17-.75.42S61.38,37.09,61.38,37.81Zm-16.1-18a2.43,2.43,0,0,0,2.53-2.34,2.44,2.44,0,0,0-4.87.14A2.2,2.2,0,0,0,45.28,19.79Zm5.3,18.89c0,1,0,2,0,3,0,.49.16.65.65.64s.78,0,.74-.64,0-1.23,0-1.84c0-.41.14-.58.56-.57.61,0,1.23,0,1.84,0s.59-.2.59-.63-.15-.57-.57-.56c-.61,0-1.23,0-1.84,0s-.56-.47-.57-.87-.13-.89.59-.85,1.55,0,2.32,0c.46,0,.53-.22.54-.59s-.1-.59-.54-.58c-1.23,0-2.46,0-3.69,0-.52,0-.61.22-.6.67C50.59,36.81,50.58,37.74,50.58,38.68ZM6.45,35.21c-.75,0-1.5,0-2.25,0-.49,0-.56.21-.56.63s.16.57.56.54.54,0,.8,0c.62-.08.77.19.76.78,0,1.49,0,3,0,4.49,0,.56.21.66.7.66s.74-.1.73-.66c0-1.21,0-2.41,0-3.61,0-1.54,0-1.56,1.54-1.64.45,0,.52-.22.52-.59s-.07-.6-.53-.59C8,35.23,7.2,35.21,6.45,35.21Zm67,3.56c0-1,0-1.93,0-2.89,0-.53-.16-.69-.68-.68s-.73.09-.72.66c0,1.92,0,3.85,0,5.77,0,.59.27.65.73.66s.69-.11.67-.63C73.43,40.7,73.46,39.73,73.46,38.77Z"/><path class="cls-1" d="M8.78,22.92c0-.61,0-1.23,0-1.85,0-.78.08-.82.75-.45a12.93,12.93,0,0,0,4.34,1.8,8,8,0,0,0,2.24,0,1.48,1.48,0,0,0,1.43-1.11c.17-.71-.26-1.15-.77-1.54a10.24,10.24,0,0,0-2.21-1.13,13,13,0,0,1-4.16-2.52,5.8,5.8,0,0,1,2.15-9.72A12.58,12.58,0,0,1,21,6.65c2.19.74,2.18.79,2.18,3.07,0,.8,0,1.61,0,2.41,0,.16,0,.34-.11.45s-.33-.07-.48-.17c-1.81-1.2-3.68-2.2-5.95-2a3.43,3.43,0,0,0-.79.13,1.22,1.22,0,0,0-.41,2.24A20.93,20.93,0,0,0,19,14.64a24.69,24.69,0,0,1,2.62,1.55A5.54,5.54,0,0,1,24,21.92a5.81,5.81,0,0,1-4,4.63,13.21,13.21,0,0,1-8.36,0c-.74-.21-1.46-.5-2.2-.74a.84.84,0,0,1-.65-1c0-.64,0-1.28,0-1.93Z"/><path class="cls-1" d="M70.26,19.36c0,1,0,2.08,0,3.13s.35,1.25,1.23.9c.68-.27.85-.09.83.58-.08,2.61.5,2-2.14,2.9a8.09,8.09,0,0,1-2.77.35,2.4,2.4,0,0,1-2.2-1.07c-.21-.35-.38-.33-.69-.12a7.34,7.34,0,0,1-5.68,1,3.7,3.7,0,0,1-3-3.14,4,4,0,0,1,1.93-4.16A26.12,26.12,0,0,1,63,17.69a2.74,2.74,0,0,0,.53-.17c.41-.24,1.14-.1,1-1a1.53,1.53,0,0,0-1.31-1.5,6.92,6.92,0,0,0-2.4.09A9.68,9.68,0,0,0,57,17.22c-.17.14-.31.44-.59.31s-.17-.43-.17-.66c0-.72.06-1.45,0-2.16a1.77,1.77,0,0,1,1.2-2,13.18,13.18,0,0,1,9.37-1,4.46,4.46,0,0,1,3.46,4.54c0,1,0,2,0,3.06ZM64.58,21.5h0c0-.4,0-.81,0-1.21,0-.16,0-.48-.25-.35-1.08.49-2.33.78-2.91,2a1.44,1.44,0,0,0,1.32,2.18,1.92,1.92,0,0,0,1.85-2Z"/><path class="cls-1" d="M74.17,24c0-.45,0-.91,0-1.36s.07-.7.62-.38a8.55,8.55,0,0,0,3.66,1.32,4.52,4.52,0,0,0,1.43-.12.89.89,0,0,0,.75-.75.9.9,0,0,0-.48-.87,19.61,19.61,0,0,0-2.72-1.34c-1.54-.77-3-1.68-3.4-3.5a4.32,4.32,0,0,1,2.85-5,9.77,9.77,0,0,1,6.68-.1c2,.56,2,.57,2,2.6,0,.46,0,.91,0,1.37,0,.62-.23.69-.73.38A7,7,0,0,0,80.83,15c-.58,0-1.11.12-1.24.76s.39.88.85,1.1c1,.5,2.13.86,3.14,1.43,2.21,1.26,3,2.86,2.58,5.17a4.9,4.9,0,0,1-4.33,3.62,14.93,14.93,0,0,1-7.16-.89c-.35-.12-.54-.29-.51-.69s0-1,0-1.53Z"/><path class="cls-1" d="M28.48,38.19c-1.36,0-1.31,0-1.38-1,0-.71.19-1,.89-.87.37,0,.75,0,1.12,0a.85.85,0,0,1,.9.9c0,.58-.35.86-.92.88Z"/><path class="cls-1" d="M47.38,38.64c0,1.64-.83,2.62-2.1,2.54a1.66,1.66,0,0,1-1.46-.85,3.18,3.18,0,0,1,0-3.21,1.71,1.71,0,0,1,1.78-.83,1.68,1.68,0,0,1,1.54,1.1A3.24,3.24,0,0,1,47.38,38.64Z"/><path class="cls-1" d="M80.55,38.7a3.58,3.58,0,0,1-.2,1.26,1.76,1.76,0,0,1-1.71,1.22,1.79,1.79,0,0,1-1.79-1.11,3.56,3.56,0,0,1-.19-2A1.92,1.92,0,0,1,80.49,38C80.53,38.22,80.53,38.46,80.55,38.7Z"/><path class="cls-1" d="M35.31,14.84A74.09,74.09,0,0,1,32.1,4.26c-.27-1.35-.54-2.69-.86-4.26-.13.29-.17.33-.18.38A76.88,76.88,0,0,1,27,15.19a11.1,11.1,0,0,0,.65,9.47,4.09,4.09,0,0,0,2.66,2.17c1.87.46,3.62-.44,4.6-2.48A12,12,0,0,0,35.31,14.84Zm-2.23,8a6.28,6.28,0,0,1-.71,2.76c-.67,1.17-1.66,1.13-2.3-.06a6.5,6.5,0,0,1-.72-2.93,28.36,28.36,0,0,1,1.24-7.87c.16-.62.37-1.22.56-1.83C32.31,16.11,33.33,19.34,33.08,22.81Z"/></g></g></svg>