<svg xmlns="http://www.w3.org/2000/svg" viewBox="0 0 93.43 45.75"><defs><style>.cls-1{fill:#595a5b;}</style></defs><g id="Capa_2" data-name="Capa 2"><g id="Capa_1-2" data-name="Capa 1"><path class="cls-1" d="M46.82,45.74a85.61,85.61,0,0,1-13.71-.93,67.9,67.9,0,0,1-18.37-5.14A33.17,33.17,0,0,1,4.55,32.88a15.12,15.12,0,0,1-4.28-7.5,12.59,12.59,0,0,1,2.4-10.27,25.92,25.92,0,0,1,8.6-7.25A57.06,57.06,0,0,1,27.43,2,89.31,89.31,0,0,1,45.14,0a96.77,96.77,0,0,1,11.67.5A72.13,72.13,0,0,1,77.7,5.66a33.78,33.78,0,0,1,11.21,7.26,15,15,0,0,1,4.31,7.8,12.2,12.2,0,0,1-1.68,8.72,22.85,22.85,0,0,1-7.75,7.49,50.12,50.12,0,0,1-13.24,5.7,80.46,80.46,0,0,1-15.62,2.79C52.2,45.64,49.48,45.79,46.82,45.74ZM45.36,1.53c-.34,0-.8.05-1.26.06a76.82,76.82,0,0,0-15.91,2,51.23,51.23,0,0,0-15.27,6,22.75,22.75,0,0,0-7.53,6.91,11.22,11.22,0,0,0-2,7.48,13.34,13.34,0,0,0,3.85,7.74,30.17,30.17,0,0,0,9.49,6.58,62.71,62.71,0,0,0,18.35,5.18,83.86,83.86,0,0,0,14,.74,79.05,79.05,0,0,0,17-2.23A48.37,48.37,0,0,0,82,35.26a20.44,20.44,0,0,0,6.6-6.8A10.93,10.93,0,0,0,89.9,21a13.42,13.42,0,0,0-3.43-6.61,28.91,28.91,0,0,0-9.08-6.57A62.54,62.54,0,0,0,57.58,2.21,85.1,85.1,0,0,0,45.36,1.53ZM71.1,3.84a53.66,53.66,0,0,1,9,4,25.72,25.72,0,0,1,8.77,7.55A12.46,12.46,0,0,1,91,25.67a15.54,15.54,0,0,1-4.38,7.39,34,34,0,0,1-10.42,6.83c-1.57.71-3.2,1.32-4.85,1.9.19.13.33,0,.46,0a49.6,49.6,0,0,0,10.79-4.65,24.18,24.18,0,0,0,8-7.12,11.8,11.8,0,0,0,1.07-12.36,18.15,18.15,0,0,0-5-6.11A39.89,39.89,0,0,0,75,5.06,30.21,30.21,0,0,0,71.1,3.84ZM22,41.9l0-.12-.77-.28a46.25,46.25,0,0,1-9.1-4.25A23.88,23.88,0,0,1,4.29,30,12.33,12.33,0,0,1,3,18.39a17.17,17.17,0,0,1,4.71-6.53A37.79,37.79,0,0,1,19.38,5c.55-.22,1.11-.41,1.66-.61l1.77-.63a2.32,2.32,0,0,0-.26,0A52.65,52.65,0,0,0,11.43,8.29,25.29,25.29,0,0,0,3,15.51C.21,19.44-.39,23.63,1.67,28.05a18.52,18.52,0,0,0,5.69,6.71A41.79,41.79,0,0,0,19.21,41C20.14,41.29,21.07,41.59,22,41.9Z"/><path class="cls-1" d="M52.58,18.61c-.81,0-1.61,0-2.41,0-.17,0-.39.07-.43-.23-.15-1.52-1.21-2.06-2.53-2.27a4.73,4.73,0,0,0-2.27.13,1.71,1.71,0,0,0-1.35,1.45c-.09.84.49,1.24,1.13,1.54a19.56,19.56,0,0,0,3.67,1.08,22.8,22.8,0,0,1,4.12,1.34c3.62,1.67,4.26,5,3,8.21A5.8,5.8,0,0,1,52,33.23a13.64,13.64,0,0,1-10.64-.14,6.66,6.66,0,0,1-4-6.16c0-.39.07-.53.49-.52,1.57,0,3.13,0,4.7,0,.36,0,.5.11.53.48a2.86,2.86,0,0,0,2.48,2.73,6.28,6.28,0,0,0,3.44-.15,1.92,1.92,0,0,0,1.44-2.28,1.82,1.82,0,0,0-.85-1,10.17,10.17,0,0,0-2.77-1A24.61,24.61,0,0,1,41,23.2,5.33,5.33,0,0,1,38,19,5.73,5.73,0,0,1,41,13a11.39,11.39,0,0,1,6.45-1.37,10.28,10.28,0,0,1,4.6,1.25,6.26,6.26,0,0,1,3.32,5.16c0,.43-.07.58-.51.55C54.1,18.59,53.34,18.61,52.58,18.61Z"/><path class="cls-1" d="M27.41,12.09c2.91,0,5.81,0,8.71,0,.44,0,.6.1.58.57q0,1.89,0,3.78c0,.42-.1.56-.54.55-1.77,0-3.55,0-5.32,0-.49,0-.6.13-.6.6,0,5.18,0,10.35,0,15.53,0,.5-.11.65-.62.64-1.47,0-2.95,0-4.42,0-.58,0-.67-.18-.66-.7,0-5.14,0-10.28,0-15.41,0-.53-.13-.67-.66-.66-1.75,0-3.51,0-5.27,0-.38,0-.53-.07-.52-.49q0-1.95,0-3.9c0-.41.13-.51.52-.5Z"/><path class="cls-1" d="M66,12.09c2.9,0,5.8,0,8.71,0,.45,0,.58.12.56.57q0,1.89,0,3.78c0,.42-.08.56-.53.55-1.77,0-3.55,0-5.32,0-.49,0-.6.13-.6.6,0,5.18,0,10.35,0,15.53,0,.48-.09.65-.62.64q-2.24-.06-4.47,0c-.54,0-.62-.17-.62-.65,0-5.15,0-10.31,0-15.46,0-.53-.13-.67-.66-.66-1.73,0-3.47,0-5.21,0-.5,0-.6-.15-.59-.61,0-1.22,0-2.44,0-3.67,0-.54.17-.62.65-.62,2.88,0,5.76,0,8.65,0Z"/><path class="cls-1" d="M74,8.58a9.73,9.73,0,0,1,2.41,1A29.23,29.23,0,0,1,84,14.92a14.74,14.74,0,0,1,2.59,3.48,9.07,9.07,0,0,1-.18,9.17,17,17,0,0,1-4.08,4.67,34,34,0,0,1-9.07,5.21c1.25-.73,2.53-1.44,3.73-2.27a22.64,22.64,0,0,0,6-5.69c3.08-4.45,3.06-9-.08-13.45a24.51,24.51,0,0,0-7.7-6.73Z"/><path class="cls-1" d="M20.1,37.42a33.43,33.43,0,0,1-8.31-4.6,18,18,0,0,1-4.68-5C4.92,24.07,5.24,20.47,7.66,17a23.27,23.27,0,0,1,7.75-6.57,44.66,44.66,0,0,1,4-2,1.23,1.23,0,0,1,.43-.1c-1.17.7-2.35,1.36-3.47,2.13a21.3,21.3,0,0,0-6.69,6.8,10.5,10.5,0,0,0,.09,11.28,21.75,21.75,0,0,0,6.92,6.88C17.81,36.14,19,36.78,20.1,37.42Z"/><path class="cls-1" d="M73,33.73a2.16,2.16,0,0,1-2.25-2.27A2.19,2.19,0,0,1,73,29.11a2.31,2.31,0,0,1,0,4.62Zm0-.45a1.74,1.74,0,0,0,1.74-1.86A1.74,1.74,0,1,0,73,33.28Z"/><path class="cls-1" d="M72.09,31.48v-.23c0-1.13.19-1.28,1.31-1.06a.69.69,0,0,1,.6.53c.07.28,0,.61-.2.72-.5.23-.23.45-.09.73s.43.38.21.55-.46-.11-.6-.35a.53.53,0,0,0-.06-.1c-.18-.19-.2-.66-.52-.58s-.12.48-.17.73,0,.32-.22.33-.25-.18-.25-.35,0-.61,0-.92Zm.92-.89c-.21,0-.47-.06-.45.32s0,.41.34.37.57,0,.61-.34S73.24,30.62,73,30.59Z"/></g></g></svg>