<svg xmlns="http://www.w3.org/2000/svg" viewBox="0 0 93.43 35.78"><defs><style>.cls-1{fill:#595a5b;}</style></defs><g id="Capa_2" data-name="Capa 2"><g id="Capa_1-2" data-name="Capa 1"><path class="cls-1" d="M48.75,7.12V.42h3.88V13.06c-1.2,0-2.39,0-3.57,0-.22,0-.48-.28-.62-.49C47.28,10.8,46.15,9,45,7.29c-.16-.24-.32-.46-.6-.86V13H40.46V.38c1.24,0,2.45,0,3.66,0,.21,0,.45.32.6.54C46,3,47.35,5,48.75,7.12Z"/><path class="cls-1" d="M81.3.38c1.22,0,2.41,0,3.59,0,.23,0,.5.33.66.57,1.19,1.79,2.35,3.59,3.52,5.38.14.22.29.42.5.71V.41h3.86V13.05c-1.22,0-2.43,0-3.63,0-.19,0-.41-.29-.54-.49-1.32-2-2.63-4-4.05-6.18V13H81.3Z"/><path class="cls-1" d="M38.41.44V13H34.26V8.21H30.4V13H26.23V.37c1.26,0,2.52,0,3.77,0,.14,0,.36.4.36.62,0,1.17,0,2.33,0,3.56h3.83V.44Z"/><path class="cls-1" d="M62.06,29.62c1.49.39,1.74,1.71,1.73,3.22,0,.81.13,1.63.21,2.52H60c-.05-.7-.14-1.42-.16-2.15-.06-1.81-.33-2.11-2.13-2.19-.42,0-.84,0-1.34,0V35.4H52.24V22.85s.09-.07.14-.07c2.67,0,5.34,0,8,.14s4,2.19,3.19,4.64A8.58,8.58,0,0,1,62.06,29.62Zm-5.7-1.48c.86,0,1.65,0,2.44,0a1,1,0,0,0,1.11-1,1.14,1.14,0,0,0-1-1.3,21.12,21.12,0,0,0-2.52,0Z"/><path class="cls-1" d="M71.7,35.78a6.28,6.28,0,0,1-6.64-6.7c0-4.09,2.68-6.68,6.84-6.66,3.9,0,6.5,2.74,6.48,6.77A6.32,6.32,0,0,1,71.7,35.78Zm2.52-6.67a6.73,6.73,0,0,0-.47-2.2,2,2,0,0,0-1.94-1.35,2,2,0,0,0-2.11,1.25,5.37,5.37,0,0,0,.12,4.74,2,2,0,0,0,2,1.12,2.07,2.07,0,0,0,2-1.44A6.45,6.45,0,0,0,74.22,29.11Z"/><path class="cls-1" d="M73.09,13.39c-4.07,0-6.63-2.67-6.61-6.79,0-4,2.79-6.61,6.86-6.56A6.3,6.3,0,0,1,79.8,6.76,6.33,6.33,0,0,1,73.09,13.39Zm2.53-6.67a6.27,6.27,0,0,0-.46-2.19,2,2,0,0,0-2-1.35,2.07,2.07,0,0,0-2.1,1.27,5.35,5.35,0,0,0,.13,4.73,2.21,2.21,0,0,0,4-.27A6.66,6.66,0,0,0,75.62,6.72Z"/><path class="cls-1" d="M18.05,13.39c-4.07,0-6.64-2.65-6.63-6.76A6.33,6.33,0,0,1,18.17,0c4,0,6.58,2.73,6.54,6.93A6.28,6.28,0,0,1,18.05,13.39ZM15.6,6.66A6.45,6.45,0,0,0,16,8.87a2.08,2.08,0,0,0,2.08,1.42,2.1,2.1,0,0,0,2.1-1.41,5.77,5.77,0,0,0-.07-4.32A2.08,2.08,0,0,0,18,3.19,2.09,2.09,0,0,0,16,4.63,5.59,5.59,0,0,0,15.6,6.66Z"/><path class="cls-1" d="M50.41,22.81v2.94H44.33v1.76h5.1v3H44.32v1.94h6.32v3H40.15V22.81Z"/><path class="cls-1" d="M54.08,9.11c1.25,0,2.44,0,3.62,0,.17,0,.38.23.49.4a2.32,2.32,0,0,0,3.08.63.73.73,0,0,0-.16-1.29,11.35,11.35,0,0,0-1.64-.57c-.88-.28-1.78-.49-2.65-.81a3.42,3.42,0,0,1-2.47-3.32A3.45,3.45,0,0,1,56.62.68a7.66,7.66,0,0,1,6.1-.09,4,4,0,0,1,2.52,3.48c-1.25,0-2.43,0-3.61,0a.67.67,0,0,1-.42-.27,2.14,2.14,0,0,0-2.39-.67c-.56.24-.67.85-.14,1.17a8.73,8.73,0,0,0,1.68.65c1,.35,2.14.59,3.16,1,3,1.23,2.39,5.08.47,6.38-1.76,1.19-6.23,1.79-8.57-.38A3.84,3.84,0,0,1,54.08,9.11Z"/><path class="cls-1" d="M38.55,27.64c-1.25,0-2.41,0-3.57,0-.16,0-.38-.29-.45-.49a2,2,0,0,0-2-1.56,1.9,1.9,0,0,0-2.08,1.36,6.31,6.31,0,0,0-.2,3.89,2.18,2.18,0,0,0,2.24,1.86c1,0,1.64-.5,2.08-1.72a.7.7,0,0,1,.5-.42c1.16,0,2.32,0,3.48,0a5.35,5.35,0,0,1-5.09,5.22,9.91,9.91,0,0,1-3-.24c-3.13-.78-4.89-3.52-4.62-6.92.43-5.59,5.7-7.46,10.11-5.32C37.64,24.08,38.25,25.77,38.55,27.64Z"/><path class="cls-1" d="M25.68,35.45l-4.32,0-.6-1.7-3.44,0-.57,1.73-4.36,0c.3-.84.57-1.57.83-2.31,1.16-3.25,2.34-6.5,3.48-9.76a.77.77,0,0,1,.89-.64c1,0,2,0,3,0a.91.91,0,0,1,.7.43c1.46,4,4.31,12.07,4.31,12.07ZM20.3,31.07l-1.24-4.13h-.17l-1.15,4.12Z"/><path class="cls-1" d="M.14,7.58H3.68c.08.64.12,1.24.23,1.83s.39.91,1,.84c.37-.05.69.08.91-.92a5.44,5.44,0,0,0,.08-1c0-2.22,0-4.45,0-6.67V.37c1.31,0,2.55,0,3.78,0a.6.6,0,0,1,.4.42c0,2.88.06,5.77-.12,8.64a4.06,4.06,0,0,1-4,3.91,9.19,9.19,0,0,1-1.74,0C1.1,13-.51,10.74.14,7.58Z"/></g></g></svg>