<svg xmlns="http://www.w3.org/2000/svg" viewBox="0 0 31.58 28.76"><defs><style>.cls-1{fill:#595a5b;}</style></defs><g id="Capa_2" data-name="Capa 2"><g id="Capa_1-2" data-name="Capa 1"><path class="cls-1" d="M0,12.67v-2.1c0-.1,0-.12.12-.12a6.37,6.37,0,0,1,2.07.38,6,6,0,0,1,1.54.88c.29.23.57.48.85.72s.8.69,1.23,1A3.11,3.11,0,0,0,7.4,14a4.74,4.74,0,0,0,1.5-.09,3.68,3.68,0,0,0,1.49-.78c.3-.24.58-.5.86-.76a7.88,7.88,0,0,1,2.13-1.45,5.42,5.42,0,0,1,1.29-.37A7,7,0,0,1,16,10.45a6.29,6.29,0,0,1,1.92.37,5.78,5.78,0,0,1,1.52.84c.37.3.72.62,1.08.93a7.06,7.06,0,0,0,1.5,1.1A3.72,3.72,0,0,0,23.4,14a5.08,5.08,0,0,0,1.23-.11,3.45,3.45,0,0,0,1.4-.71c.31-.25.61-.52.91-.79a9.67,9.67,0,0,1,1.58-1.2,5.32,5.32,0,0,1,1.94-.66c.29,0,.59-.06.89-.09.11,0,.15,0,.15.14,0,.64,0,1.29,0,1.93,0,.16,0,.15-.15.16a3.72,3.72,0,0,0-1.67.42,6.36,6.36,0,0,0-1.08.79,12.92,12.92,0,0,1-1.76,1.45,5.56,5.56,0,0,1-2.27.83,7.61,7.61,0,0,1-1.43.06,5.38,5.38,0,0,1-1.68-.37,5.81,5.81,0,0,1-1.75-1l-1.15-1a4.65,4.65,0,0,0-1.49-.94,3.68,3.68,0,0,0-1-.18,4.16,4.16,0,0,0-1.22.07,3.38,3.38,0,0,0-1.58.79c-.28.23-.55.47-.83.72a8,8,0,0,1-2,1.43,5.68,5.68,0,0,1-1.57.46,7.72,7.72,0,0,1-1.44.06,5.81,5.81,0,0,1-2-.49,6.56,6.56,0,0,1-1.36-.84c-.29-.24-.56-.49-.84-.73a8.41,8.41,0,0,0-1.24-1,3.28,3.28,0,0,0-1.36-.46Z"/><path class="cls-1" d="M0,7.47V5.25H.27A7,7,0,0,1,2,5.55,5.73,5.73,0,0,1,3.87,6.62c.5.42,1,.86,1.49,1.29a3.63,3.63,0,0,0,1.76.85,2.2,2.2,0,0,0,.36,0,4.39,4.39,0,0,0,1.69-.17,3.22,3.22,0,0,0,1-.53c.37-.29.72-.61,1.08-.92A9.67,9.67,0,0,1,13,5.91a5.2,5.2,0,0,1,1.76-.57,9.83,9.83,0,0,1,1.21-.08,5.51,5.51,0,0,1,1.56.23,5.8,5.8,0,0,1,1.95,1l.89.76a9.27,9.27,0,0,0,1.35,1.08A3.42,3.42,0,0,0,23,8.78a4.63,4.63,0,0,0,2-.16,3.5,3.5,0,0,0,1.16-.69c.48-.4.94-.83,1.42-1.23a6.78,6.78,0,0,1,1.28-.85,5,5,0,0,1,1.68-.51l.91-.09c.08,0,.11,0,.11.11q0,1,0,2c0,.09,0,.11-.12.11a3.57,3.57,0,0,0-1.64.39,10,10,0,0,0-1,.7c-.5.41-1,.86-1.46,1.25A5.45,5.45,0,0,1,24.68,11c-.32,0-.64.06-1,.07a5.44,5.44,0,0,1-2-.27,5.52,5.52,0,0,1-1.86-1c-.52-.43-1-.88-1.53-1.32a3.69,3.69,0,0,0-1.91-.9,4.28,4.28,0,0,0-2.07.19,3.42,3.42,0,0,0-1.07.64c-.41.34-.8.7-1.2,1.05a6.36,6.36,0,0,1-2.28,1.35A5.16,5.16,0,0,1,8.7,11L8,11a5.47,5.47,0,0,1-2.08-.3,5.21,5.21,0,0,1-1.71-.94c-.39-.32-.77-.66-1.16-1a5.74,5.74,0,0,0-1.36-1,3.05,3.05,0,0,0-1.07-.3Z"/><path class="cls-1" d="M0,2.21V0C.32,0,.62,0,.92.06a5,5,0,0,1,1.21.3,5.65,5.65,0,0,1,1.56.86c.46.38.9.78,1.35,1.16a5.33,5.33,0,0,0,1.2.85,3.19,3.19,0,0,0,.91.27,4.39,4.39,0,0,0,.72.07,3.72,3.72,0,0,0,2.42-.82c.35-.3.7-.6,1-.91A6.81,6.81,0,0,1,13.9.27,5.28,5.28,0,0,1,15.53,0a10.29,10.29,0,0,1,1.11,0A5.17,5.17,0,0,1,18,.4a5.65,5.65,0,0,1,1.47.84l.93.8A7.51,7.51,0,0,0,22,3.22a3.28,3.28,0,0,0,1.11.31c.2,0,.41,0,.62,0A3.66,3.66,0,0,0,26,2.77c.37-.31.72-.63,1.08-.94A9,9,0,0,1,28.53.75,4.87,4.87,0,0,1,30.38.1c.33,0,.66-.06,1-.08h.12V2.21l-.17,0a3.35,3.35,0,0,0-2,.62c-.37.28-.72.57-1.07.88a9.94,9.94,0,0,1-1.84,1.38,5.37,5.37,0,0,1-1.56.55,7,7,0,0,1-1.52.12,5.92,5.92,0,0,1-2.11-.46,6.56,6.56,0,0,1-1.76-1.14c-.41-.37-.82-.73-1.25-1.09a3.52,3.52,0,0,0-1.82-.82,4.48,4.48,0,0,0-.63-.06,7.19,7.19,0,0,0-.92.1,3.92,3.92,0,0,0-1.87,1c-.51.44-1,.89-1.54,1.3a5.15,5.15,0,0,1-2.2,1c-.33.06-.66.09-1,.12s-.42,0-.63,0a5.85,5.85,0,0,1-2.28-.53,6.53,6.53,0,0,1-1.56-1c-.48-.41-1-.84-1.45-1.23A3.14,3.14,0,0,0,.68,2.28Z"/><path class="cls-1" d="M16.69,21.77H13.22a.62.62,0,0,0,0,.13v1.73c0,.09,0,.12.11.16a5.21,5.21,0,0,1,.52.28,4.08,4.08,0,0,0,.44.28,1.05,1.05,0,0,0,1.11-.18,2.38,2.38,0,0,1,1.17-.54,2.49,2.49,0,0,1,1.87.4l.45.3c.09-.16.16-.31.24-.46.23-.47.46-.94.68-1.41l.84-1.73c.07-.16.15-.31.23-.46a.15.15,0,0,1,.11-.06c.44,0,.88,0,1.33,0a.14.14,0,0,1,.1.07l.71,1.44c.18.38.37.75.56,1.13s.43.88.64,1.33l.05.06c.29-.17.56-.35.85-.5a2.17,2.17,0,0,1,1-.2v1.14a.86.86,0,0,0-.28,0,4,4,0,0,0-.45.25c-.19.11-.38.24-.58.37l1.68,3.41h-2a.15.15,0,0,1-.15-.09c-.35-.72-.71-1.44-1.06-2.17l-.54-1.13a.34.34,0,0,0-.12-.12c-.2-.14-.4-.26-.6-.39a1,1,0,0,0-1.06,0c-.17.12-.35.23-.52.36a.53.53,0,0,0-.13.2c-.38.93-.84,1.82-1.29,2.72-.09.18-.17.36-.27.54a.16.16,0,0,1-.11.07H16.82l-.08,0,1.62-3.33c-.26-.17-.53-.33-.79-.51a1.05,1.05,0,0,0-1.23.07,2.55,2.55,0,0,1-1.06.54,2.66,2.66,0,0,1-1.69-.18,3.6,3.6,0,0,1-.37-.22v2.06h3.47s0,.07,0,.1c0,.45,0,.91,0,1.36,0,.09,0,.11-.12.11H11.33V20.19h5.36Zm4.5,1.83h.91l-.46-1.11Z"/><path class="cls-1" d="M2.94,24.47c0-1.38,0-2.75,0-4.13,0-.11,0-.14.14-.14H5.24a9.65,9.65,0,0,1,2.08.19,4.77,4.77,0,0,1,2.07.91,4.19,4.19,0,0,1,1,1.28,3.93,3.93,0,0,1,.47,1.4,3.51,3.51,0,0,1-.15,1.67,4.07,4.07,0,0,1-.67,1.27,4.22,4.22,0,0,1-1.92,1.41,5.45,5.45,0,0,1-1.49.33c-.36,0-.72.06-1.07.07l-2.52,0c-.15,0-.15,0-.15-.15Zm1.89,2.7H5.4a6.58,6.58,0,0,0,1.17-.08A3.42,3.42,0,0,0,8,26.51a2.56,2.56,0,0,0,.81-1A2.26,2.26,0,0,0,9,24.18a2.49,2.49,0,0,0-1-1.69,3.67,3.67,0,0,0-2-.68c-.31,0-.62,0-.93,0l-.29,0Z"/><path class="cls-1" d="M31.56,27.19a.38.38,0,0,1,0,.1c0,.45,0,.9,0,1.34,0,.11,0,.13-.14.13H26.63V20.38c0-.19,0-.17.17-.17.52,0,1,0,1.57,0h.15v.14q0,3.36,0,6.7c0,.12,0,.14.15.14h2.9Z"/><path class="cls-1" d="M.12,20.21H2v8.4c0,.15,0,.15-.16.15H.27c-.15,0-.15,0-.15-.15v-8.4Z"/></g></g></svg>