<svg xmlns="http://www.w3.org/2000/svg" viewBox="0 0 93.43 13.31"><defs><style>.cls-1{fill:#595a5b;}</style></defs><g id="Capa_2" data-name="Capa 2"><g id="Capa_1-2" data-name="Capa 1"><path class="cls-1" d="M12.24,8.79C11.41,10,10.65,11.07,10,12.17a1.6,1.6,0,0,1-1.63.89c-1.81-.07-1.8,0-1.62-1.83a12.16,12.16,0,0,0,0-2.42C6.06,10,5.33,11.22,4.66,12.45a1,1,0,0,1-1,.6C2.43,13,1.24,13,0,13a7.3,7.3,0,0,1,.77-1.7Q3.14,6.57,5.55,1.82C5.92,1.09,6,.56,5,.27c1.43,0,2.86,0,4.3,0,.46,0,.31.44.31.7q0,3.08,0,6.14l.27.07c.48-.69,1-1.38,1.43-2.08.95-1.42,1.92-2.85,2.86-4.29a1,1,0,0,1,.9-.57c1,0,2,0,3,0,.68,0,.65.3.54.76l-2.22,9.6a11.76,11.76,0,0,0-.37,1.64c-.05.66-.32.85-1,.81-1-.05-2,0-3,0-.53,0-.59-.19-.49-.61.23-1,.47-2.08.69-3.12A2.55,2.55,0,0,0,12.24,8.79Z"/><path class="cls-1" d="M29.07.37C32.7.37,36.32.31,40,.4a5,5,0,0,1,4.48,4,5.23,5.23,0,0,1-3.57,5.27,8.75,8.75,0,0,1-3.25.39c-1.1,0-2.2,0-3.3,0-.49,0-.77.08-.83.65s-.25,1.28-.37,1.91a.59.59,0,0,1-.71.57c-1.4,0-2.8-.05-4.2,0-.69,0-.63-.3-.53-.75Q28.78,7.3,29.9,2.17C30.08,1.38,30.14.67,29.07.37Zm7.86,3.36v0a9,9,0,0,1-1.16,0c-.7-.1-.92.24-1,.88-.22,1.67-.24,1.69,1.49,1.64a6.86,6.86,0,0,0,2.47-.15,1.22,1.22,0,0,0,.88-1.45,1.18,1.18,0,0,0-1.26-.92C37.88,3.71,37.4,3.73,36.93,3.73Z"/><path class="cls-1" d="M93.39,3.56c-.5,2.4-1,4.63-1.42,6.86-.31,1.62,0,1.84,1.46,1.39a2.07,2.07,0,0,1-1.07,1.12,4.37,4.37,0,0,1-4.64-.7c-.41-.41-.64-.19-1,0a5.31,5.31,0,0,1-4.24.88c-3.63-.85-4-4.06-2.56-6.54,1.49-2.66,4.46-3.4,7-3.12a10.68,10.68,0,0,1,1.47.31c.47.13,1,.6,1.31-.17,0,0,.17,0,.25,0ZM88.27,7.11c0-1.06-.55-1.53-1.59-1.26A3.76,3.76,0,0,0,84,8.9c-.28,1.09.43,1.78,1.54,1.56A3.63,3.63,0,0,0,88.27,7.11Z"/><path class="cls-1" d="M70.89,10.15A6.51,6.51,0,0,1,66,13,13.21,13.21,0,0,1,61,12.86c-2.53-.58-3.55-2.21-3-4.74a5.79,5.79,0,0,1,4.78-4.46,11.18,11.18,0,0,1,6,.14c2.53.8,2.9,3,2.45,5-.12.5-.52.32-.8.32l-7.59,0c-.3,0-.73-.19-.87.22s.15.73.44,1a3.42,3.42,0,0,0,3.47.17,2.87,2.87,0,0,1,1.68-.42C68.63,10.16,69.7,10.15,70.89,10.15Zm-8.39-3c1.42,0,2.81,0,4.19,0,.27,0,.66.19.77-.21s-.13-.62-.36-.86C65.92,4.87,63.14,5.47,62.5,7.16Z"/><path class="cls-1" d="M69.72,3c0-.07,0-.1,0-.12.4-1.67-.1-1.44,1.75-1.46.71,0,1.43,0,2.14,0,.52,0,.81-.16.84-.65s.31-.59.75-.59c1.25,0,2.5,0,3.75,0,.42,0,.63.06.43.55s.11.69.62.68q1.29,0,2.58,0c.25,0,.75-.15.62.34s.2,1.19-.64,1.22-2,0-2.94,0c-.52,0-.77.09-.9.69-.48,2.25-1,4.5-1.41,6.77C77,12,77.2,12.25,78.74,11.81c.07.34-.22.46-.39.63a4.57,4.57,0,0,1-4.62.39c-1.2-.67-1.63-1.87-1.25-3.56s.83-3.64,1.27-5.45c.14-.59.12-.91-.66-.86C72,3,70.83,3,69.72,3Z"/><path class="cls-1" d="M57.52,11.67a3.79,3.79,0,0,1-4.81,1.21,2.84,2.84,0,0,1-1.57-3.56C51.77,6.61,52.42,3.9,53,1.19c.14-.61.33-.9,1-.87,1.33.07,2.67,0,4.11,0-.55,2.46-1.1,4.87-1.63,7.27-.21,1-.39,1.92-.58,2.88-.1.46-.26,1,.13,1.35S57,11.83,57.52,11.67Z"/><path class="cls-1" d="M17.28,13c.69-3,1.34-5.91,2-8.79.1-.44.24-.71.81-.69,1.3.06,2.61,0,3.92,0,.43,0,.65,0,.51.58-.67,2.73-1.29,5.47-1.92,8.21-.11.49-.3.72-.87.7C20.27,13,18.81,13,17.28,13Z"/><path class="cls-1" d="M43.77,13.06c.7-3,1.4-6,2.06-9,.09-.4.23-.52.63-.51,1.37,0,2.74,0,4.1,0,.5,0,.54.2.45.58C50.35,7,49.7,9.74,49,12.53c-.07.29-.17.54-.58.54C46.92,13,45.37,13.06,43.77,13.06Z"/><path class="cls-1" d="M48.79,2.87A3.18,3.18,0,0,1,47,2.45a1,1,0,0,1-.1-1.72A4.52,4.52,0,0,1,51.25.52a1,1,0,0,1,0,1.73A4.17,4.17,0,0,1,48.79,2.87Z"/><path class="cls-1" d="M22.63,0a3.08,3.08,0,0,1,2,.5.91.91,0,0,1,0,1.61,4.38,4.38,0,0,1-4.45.22,1,1,0,0,1,0-1.68A3.65,3.65,0,0,1,22.63,0Z"/></g></g></svg>