<svg xmlns="http://www.w3.org/2000/svg" viewBox="0 0 93.43 15.9"><defs><style>.cls-1{fill:#595a5b;}</style></defs><g id="Capa_2" data-name="Capa 2"><g id="Capa_1-2" data-name="Capa 1"><path class="cls-1" d="M0,7.92C0,5.55,0,3.19,0,.82,0,.27.16,0,.75.05c3.68,0,7.36,0,11,.1a7.67,7.67,0,0,1,7.25,9,7.81,7.81,0,0,1-3,5.45,6.48,6.48,0,0,1-3.78,1.2c-3.85.05-7.71,0-11.56,0-.6,0-.73-.22-.73-.77,0-2.39,0-4.79,0-7.18ZM4.57,8c0,1.45,0,2.91,0,4.37,0,.68.16.94.87.92,1.72,0,3.45,0,5.17,0a3.4,3.4,0,0,0,3.49-2.5A7.83,7.83,0,0,0,14.27,6a3.9,3.9,0,0,0-4.21-3.26c-1.52,0-3,0-4.56,0-.7,0-1,.15-.94.92C4.62,5.08,4.57,6.54,4.57,8Z"/><path class="cls-1" d="M32.53,6.63c2,0,4,0,6,0,.57,0,.73.15.74.73,0,2,0,2-2,2-3.56,0-7.12,0-10.68,0-.81,0-.86.27-.65.92a4.55,4.55,0,0,0,3.87,2.84c2.83,0,5.66,0,8.5,0,.69,0,1,.13.94.9,0,1.81,0,1.81-1.85,1.81-2.71,0-5.43,0-8.14,0a10.11,10.11,0,0,1-6.4-2,7.22,7.22,0,0,1-2.57-7.3A7.33,7.33,0,0,1,25.4.66a12.06,12.06,0,0,1,4.13-.6c2.89,0,5.78,0,8.67,0,.63,0,.93.1.91.85,0,1.81,0,1.81-1.84,1.81H30.35A5,5,0,0,0,27,3.86a3.69,3.69,0,0,0-1,1.3c-.52,1.21-.37,1.46.92,1.46Z"/><path class="cls-1" d="M62.27,0c3,0,5.95,0,8.93,0,.73,0,1,.14,1,1-.06,1.66,0,1.66-1.69,1.66s-3.39,0-5.08,0c-.72,0-1,.21-.94.94,0,3.82,0,7.65,0,11.48,0,.69-.18.91-.87.86-.85-.07-1.7,0-2.54,0-1.27,0-1.27,0-1.27-1.23,0-3.65,0-7.3,0-10.95,0-.94-.3-1.11-1.13-1.08-1.87.06-3.74,0-5.61,0-.62,0-.79-.19-.77-.81C52.42,0,52.39,0,54.2,0Z"/><path class="cls-1" d="M40.93,5.59c0-1.57,0-3.15,0-4.72,0-.6.16-.84.79-.82,1.19,0,2.39,0,3.59,0,.67,0,.83.22.82.86,0,2.89,0,5.78,0,8.67a3.55,3.55,0,0,0,3.46,3.73,64.51,64.51,0,0,0,7.09.1c.92,0,1.2.27,1.09,1.13a6.3,6.3,0,0,0,0,.87c0,.32-.15.47-.49.46-3.75-.12-7.53.34-11.26-.38a6,6,0,0,1-4.33-2.67,5.14,5.14,0,0,1-.71-2.75C40.93,8.57,40.93,7.08,40.93,5.59Z"/><path class="cls-1" d="M85.91,9.19a33.1,33.1,0,0,1-4.54-.61c-.41-.08-.55-.38-.71-.69l-2.17-4c-.58,1.22-1.11,2.29-1.6,3.36a.86.86,0,0,1-.93.59c-1.31,0-2.62,0-4,0a2.18,2.18,0,0,1,.46-1.09c1-2,2.12-4,3.14-6a1,1,0,0,1,1-.6c1.22,0,2.45,0,3.67,0a1,1,0,0,1,1,.57c1.49,2.73,3,5.45,4.52,8.18A3.35,3.35,0,0,1,85.91,9.19Z"/><path class="cls-1" d="M66.3,10.19A22.57,22.57,0,0,1,80,9.13c4.5,1,9,1.38,13.48.19-3.63,2.6-7.52,4.34-12.05,2.9a45.89,45.89,0,0,0-14.48-2Z"/><path class="cls-1" d="M67.61,15.87c.85-1.63,1.62-3.09,2.37-4.56a.58.58,0,0,1,.66-.3l3.65.37c.35,0,.44.18.26.52-.62,1.22-1.23,2.44-1.84,3.67a.55.55,0,0,1-.56.31Z"/><path class="cls-1" d="M89.63,15.87H84.9a.39.39,0,0,1-.4-.26c-.3-.68-.62-1.36-1-2.15A13.27,13.27,0,0,0,87.65,13a.38.38,0,0,1,.49.24Z"/></g></g></svg>