<svg xmlns="http://www.w3.org/2000/svg" viewBox="0 0 93.43 22.65"><defs><style>.cls-1{fill:#595a5b;}</style></defs><g id="Capa_2" data-name="Capa 2"><g id="Capa_1-2" data-name="Capa 1"><path class="cls-1" d="M54,22.33c1-.06,1.9,0,2.84,0,.68,0,1-.12,1-.93,0-6.71,0-13.41,0-20.12,0-.71-.27-.92-.93-.9-1,0-2.05,0-3.07,0-.82,0-1,.3-1,1.06,0,3.3,0,6.59,0,9.89s0,6.59,0,9.89C52.82,22.12,53.13,22.39,54,22.33Z"/><path class="cls-1" d="M74.85,22.24a12.71,12.71,0,0,1,2.39,0c1.18.14,1.8-.23,2-1.47.18-1,.34-2.33,1-3s2.11-.11,3-.22c1.06,0,1.93,0,2.8,0a.86.86,0,0,1,1,.78c.26,1,.62,2,.87,3.05.14.58.39.83,1,.81q1.88-.06,3.75,0c.74,0,.79-.24.59-.87Q90.11,11.26,86.91,1.13A1,1,0,0,0,85.79.29c-1.4.05-2.81.05-4.21,0a1,1,0,0,0-1.2.89C79.66,3.61,78.87,6,78.11,8.44c-1.33,4.27-2.65,8.53-4,12.78C73.81,22.08,74,22.29,74.85,22.24Zm6.7-9.65c.68-2.4,1.33-4.81,2.07-7.51.68,2.69,1.28,5.07,1.9,7.45.15.59,0,.82-.64.79-.91,0-1.82,0-2.73,0C81.62,13.33,81.39,13.18,81.55,12.59Z"/><path class="cls-1" d="M37.78,22.33c3.71,0,7.43,0,11.15,0,.66,0,1-.17.93-.9a20.85,20.85,0,0,1,0-2.5c0-.72-.24-.91-.92-.9-2.09,0-4.17,0-6.26,0-.76,0-1-.26-1-1,0-1,0-2,0-3,0-.53.12-.86.76-.85,1.13,0,2.27,0,3.41,0,3.41,0,3.4,0,3.26-3.45,0-.64-.21-.88-.85-.86C47.16,9,46,9,44.88,9,41.6,9,41.63,9,41.7,5.64c0-.8.29-1,1.06-1,2,0,4,0,5.92,0,.69,0,1-.2.92-.9a17.33,17.33,0,0,1,0-2.39c0-.74-.21-1-1-1q-5.48,0-10.93,0c-.75,0-1,.27-.95,1,0,3.3,0,6.6,0,9.9h0c0,3.34,0,6.68,0,10C36.76,22.05,37,22.34,37.78,22.33Z"/><path class="cls-1" d="M63.76,12.66c1.07.49,2.19.86,3.26,1.35a2.32,2.32,0,0,1,1.61,2.57c-.19,1-1,1.57-2.41,1.65a8.91,8.91,0,0,1-4.72-1c-.52-.28-.8-.32-.83.42,0,1.14-.14,2.27-.28,3.4-.07.58.14.82.67,1a14.87,14.87,0,0,0,4.59.66c.42,0,.84,0,1.25,0,3.84-.21,6.23-2.27,6.77-5.82.58-3.89-.9-6.34-4.7-7.74-.81-.31-1.64-.59-2.43-.94a1.81,1.81,0,0,1-1.26-2.05c.14-1,.8-1.31,1.64-1.5a7.57,7.57,0,0,1,4.67.5c.58.25.9.26.94-.49,0-1.06.12-2.12.22-3.18,0-.57-.31-.72-.73-.84A12.64,12.64,0,0,0,64.3.63,5.82,5.82,0,0,0,60.18,6.3C60,9.51,61.12,11.45,63.76,12.66Z"/><path class="cls-1" d="M19.92,21.59c0,.6.21.8.79.79,1.06,0,2.13,0,3.18,0,.73,0,.9-.29.88-.95,0-1.25,0-2.5,0-3.75,0-.71.25-.92.92-.9a23.12,23.12,0,0,0,2.5-.06,7.06,7.06,0,0,0,6.76-6,12,12,0,0,0-.06-4.63A6.45,6.45,0,0,0,30,.92,19.76,19.76,0,0,0,24.38.38c-1.21,0-2.43,0-3.64,0-.53,0-.83.1-.83.74Q19.94,11.37,19.92,21.59Zm4.84-13h0c0-1.06,0-2.12,0-3.18,0-.28-.09-.58.34-.73a4.1,4.1,0,0,1,5,2.76c.66,3.37-1.34,5.47-4.76,5.05-.5-.06-.64-.26-.63-.72C24.77,10.72,24.76,9.66,24.76,8.6Z"/><path class="cls-1" d="M0,3.25c1.33,0,2.42-.49,3.59-.27L.15,4.12l.07.28,5.05-.83.05.15L.17,5.36l.07.26L6,4.62C4.15,5.6,2.13,6,.25,6.74A41,41,0,0,1,6.51,6L.18,7.87l.08.29A42.32,42.32,0,0,1,7.14,7C4.9,8,2.43,8.39.16,9.37,2.79,9,5.35,8.37,8,8.15a5.9,5.9,0,0,1-1.25.52c-2,.56-4,1.1-6,1.64-.24.07-.61.07-.53.44s.44.12.65.08c.56-.11,1.1-.28,1.66-.4a35.23,35.23,0,0,1,5.7-.9c-1.5.56-3,1-4.54,1.46-1,.27-2,.48-3,.73-.24.06-.59.11-.49.47s.37.14.58.09l.77-.19a43.82,43.82,0,0,1,6.92-1.24,43.5,43.5,0,0,1-6.38,2l-1.65.4a.3.3,0,0,0-.26.32c0,.28.23.26.41.23s.44-.11.66-.17a48.66,48.66,0,0,1,7.29-1.32A52.89,52.89,0,0,1,.8,14.55c-.3.07-.81,0-.63.56s.52.09.77,0a50.76,50.76,0,0,1,7.27-1.3A46.75,46.75,0,0,1,2,15.78c-.48.11-1,.21-1.44.33-.24.06-.43.18-.36.47s.29.19.47.16.44-.1.66-.15a45.08,45.08,0,0,1,6.55-1.14,5.48,5.48,0,0,1-.83.36c-2.08.7-4.2,1.3-6.34,1.79-.27.06-.57.12-.51.47s.41.22.64.18c.45-.09.89-.23,1.33-.31l4.53-.8a32.13,32.13,0,0,1-5.93,2c-.25.07-.62.05-.56.41.08.52.46.22.71.18,1.49-.24,3-.5,4.45-.75a1.3,1.3,0,0,1-.69.42c-1.16.36-2.32.7-3.47,1.08-.36.12-1,0-1,.54s.69.15,1.06.12.84-.09,1.25-.14c-.7.59-1.61.58-2.39,1.15.2.1.29.18.38.18l14.22,0c.66,0,.73-.34.73-.86q0-10.13,0-20.26c0-.63-.19-.88-.84-.87C10,.4,5.44.38.85.39.57.39.2.29.13.74s.41.39.67.53c-.13.31-.79.22-.62.67s.59.12.89.09.82-.1,1.48-.19C1.67,2.52.66,2.33,0,3.25Z"/></g></g></svg>