<svg xmlns="http://www.w3.org/2000/svg" viewBox="0 0 81.94 81.94"><defs><style>.cls-1{fill:#595a5b;}.cls-2{fill:#fff;}</style></defs><g id="Capa_2" data-name="Capa 2"><g id="Capa_1-2" data-name="Capa 1"><circle class="cls-1" cx="70" cy="62.88" r="3.16"/><path class="cls-1" d="M81.94,38.61v4.73a6.93,6.93,0,0,0-.17.79,32.19,32.19,0,0,1-1.33,7.68C75.31,68.24,64.31,78.14,47.37,81.39c-1.33.25-2.69.37-4,.55H38.61a1.68,1.68,0,0,0-.88-.18,32.13,32.13,0,0,1-7.42-1.28Q5.45,72.85.55,47.29C.3,46,.18,44.66,0,43.34V38.61a4.66,4.66,0,0,0,.17-.79A33.21,33.21,0,0,1,1.5,30.13C6.64,13.7,17.64,3.8,34.57.56,35.9.3,37.26.18,38.61,0h4.73a1.46,1.46,0,0,0,.79.18,37.58,37.58,0,0,1,5.39.75A41,41,0,0,1,81.39,34.57C81.59,35.91,81.76,37.26,81.94,38.61ZM14,45.53l.22-.05c.2.22.41.44.61.67C20.88,53.09,27,60,33,67c1.53,1.81,3.06,2.77,5.38,2.35.31-.05.75.19.9-.17s-.27-.5-.46-.73L21,47c-.77-.93-.77-.93.24-1.52a14.74,14.74,0,0,0,7.07-9.3,21.32,21.32,0,0,0,.48-8.3c-.75-5.61-3.62-9.6-9-11.59A22.13,22.13,0,0,0,11,15.27c-1.23.05-1.23,0-1.24,1.27q0,18.71,0,37.41c0,3.91,0,7.83,0,11.74,0,.68.21.91.88.87a13.23,13.23,0,0,1,2.27,0c.93.1,1.1-.29,1.1-1.13,0-5,0-10.08,0-15.11ZM33.81,33.68c0-.34-.05-.52-.05-.7l.06-21.66c0-3.07,0-6.13,0-9.2,0-.68-.21-.86-.84-.69a11.15,11.15,0,0,1-1.6.35c-.86.09-1.08.51-1.08,1.38q0,19.42-.07,38.87c0,4.95,0,9.89,0,14.84,0,.7.18,1,.92.93a7.49,7.49,0,0,1,1.64,0c.76.09,1-.19,1-.94,0-6,0-12,0-18a4.64,4.64,0,0,1,.17-1.62,1,1,0,0,1,1-.77,1.06,1.06,0,0,1,1,.73,3.81,3.81,0,0,1,.19,1.43q0,8.38-.05,16.75c0,2.46,0,2.43,2.47,2.47.8,0,1-.2,1-1,0-6.52,0-13.05,0-19.57a14.49,14.49,0,0,0-.09-2.09,3,3,0,0,0-3.72-2.58A5.38,5.38,0,0,0,33.81,33.68ZM62.6,45.16h0V55.44c0,2.44,0,2.4,2.41,2.45.9,0,1.1-.3,1.1-1.15,0-6,0-12.07,0-18.11a6,6,0,0,1,.09-1.27,1,1,0,0,1,1-.89,1.1,1.1,0,0,1,1.1.79,3.17,3.17,0,0,1,.15,1.26q0,8.55,0,17.11c0,2.26,0,2.26,2.29,2.25,1.2,0,1.2,0,1.2-1.19q0-9,0-18a6.69,6.69,0,0,1,0-1c.1-.65.41-1.19,1.14-1.18s1,.54,1.15,1.2a8.35,8.35,0,0,1,0,1q0,8.37,0,16.75c0,2.5,0,2.47,2.55,2.48.78,0,1-.25,1-1,0-7.1,0-14.2,0-21.3a2.8,2.8,0,0,0-1.91-2.8,3.51,3.51,0,0,0-3.81.7c-.24.22-.36.37-.71.07a3.62,3.62,0,0,0-5-.19c-.17.12-.29.35-.49,0-.57-1-1.5-.86-2.42-.83-.68,0-.91.3-.91,1C62.62,37.45,62.6,41.3,62.6,45.16ZM40.74,46A33.83,33.83,0,0,0,41,49.91a20,20,0,0,0,.89,4.45A7.7,7.7,0,0,0,43,56.7a3,3,0,0,0,5.14-.05c1.51-2.06,1.79-4.53,2.09-7,0-.43-.26-.48-.58-.52-.69-.08-1.39-.12-2.07-.26s-.67.1-.69.6a16.92,16.92,0,0,1-.35,3.25c-.13.57-.18,1.34-1,1.36s-.81-.76-1-1.33a1,1,0,0,1,0-.18,35.45,35.45,0,0,1-.36-5.25c0-.66.14-.91.85-.88,1.55.06,3.1,0,4.64,0,.55,0,.74-.15.74-.72a40.18,40.18,0,0,0-.58-7.51,10.51,10.51,0,0,0-1.55-4.15,3.09,3.09,0,0,0-5.42,0,7.9,7.9,0,0,0-1.09,2.29A33.52,33.52,0,0,0,40.74,46Zm10.93-.45a32.91,32.91,0,0,0,.39,5.88A11.16,11.16,0,0,0,54,56.78a3,3,0,0,0,4,.88,4.48,4.48,0,0,0,1.59-1.83A14.81,14.81,0,0,0,61,51.33c.36-2,.36-2-1.63-2.33-1.45-.21-1.46-.21-1.56,1.25a10.56,10.56,0,0,1-.54,3.3.74.74,0,0,1-1.46,0,3.45,3.45,0,0,1-.18-.51A30.1,30.1,0,0,1,55.16,47c0-.49.31-.5.67-.5,1.55,0,3.09,0,4.64,0,.74,0,.92-.24.91-.94a51.9,51.9,0,0,0-.38-6,12.07,12.07,0,0,0-1.84-5.55,3.06,3.06,0,0,0-5.31,0,8.71,8.71,0,0,0-1.27,2.79A31.48,31.48,0,0,0,51.67,45.58ZM67.81,62.74A2.23,2.23,0,0,0,70.05,65a2.27,2.27,0,0,0,2.26-2.33A2.23,2.23,0,0,0,70,60.43,2.21,2.21,0,0,0,67.81,62.74Z"/><path class="cls-1" d="M14,31.5c0-3.7,0-7.4,0-11.1,0-.69.22-.86.88-.89a9.65,9.65,0,0,1,10,8.56,14.79,14.79,0,0,1-1.39,9.45,10.41,10.41,0,0,1-8.32,5.76c-1.15.14-1.19.1-1.2-1V31.5Z"/><path class="cls-1" d="M47,41.21c0,2.44,0,2.43-2.12,2.28-.43,0-.56-.17-.56-.59a30.51,30.51,0,0,1,.38-5,3.22,3.22,0,0,1,.2-.69c.15-.34.31-.69.75-.7s.68.35.81.73A15.88,15.88,0,0,1,47,41.21Z"/><path class="cls-1" d="M55.18,41.56a19.51,19.51,0,0,1,.42-4c.11-.49.24-1.09.88-1.12s.8.57.92,1.06a25.34,25.34,0,0,1,.47,5.5s0,.07,0,.09c-.57.75-1.36.21-2,.35-.34.07-.69,0-.67-.47S55.18,42,55.18,41.56Z"/><path class="cls-1" d="M71,64.15a1.6,1.6,0,0,1-2.18-.23,2,2,0,0,1,.08-2.5,1.61,1.61,0,0,1,2.14-.2,1.92,1.92,0,0,1,.49,2.37,1.34,1.34,0,0,1-.55.58c0-.09.07-.19.05-.26-.2-.5-.55-.92,0-1.49.25-.24.06-.82-.44-.88s-1.15-.4-1.34.22a6.46,6.46,0,0,0,0,2c0,.13,0,.24.21.24s.2-.1.24-.22-.13-.63.24-.67.38.35.5.57S70.78,64,71,64.15Z"/><path class="cls-2" d="M71,63.81h-.48a.05.05,0,0,1-.05,0l-.39-.84h-.31a0,0,0,0,0,0,0v.82a0,0,0,0,1,0,0h-.43a0,0,0,0,1,0,0V61.56a0,0,0,0,1,0,0h.91a.79.79,0,0,1,.56.19.67.67,0,0,1,.22.52.7.7,0,0,1-.11.38.62.62,0,0,1-.3.25l.45.9a0,0,0,0,1,0,0S71,63.81,71,63.81Zm-.83-1.29a.3.3,0,0,0,.23-.08.24.24,0,0,0,.08-.2.25.25,0,0,0-.08-.21.34.34,0,0,0-.23-.08h-.4l0,0v.53s0,0,0,0Z"/><path class="cls-2" d="M70.05,60.51a2.23,2.23,0,1,0,2.22,2.22A2.22,2.22,0,0,0,70.05,60.51Zm0,4a1.81,1.81,0,1,1,1.8-1.81A1.81,1.81,0,0,1,70.05,64.54Z"/></g></g></svg>