<svg xmlns="http://www.w3.org/2000/svg" viewBox="0 0 93.43 35.69"><defs><style>.cls-1{fill:#595a5b;}</style></defs><g id="Capa_2" data-name="Capa 2"><g id="Capa_1-2" data-name="Capa 1"><path class="cls-1" d="M14.8,26c-.44.27-.85.56-1.29.8a8,8,0,0,1-3.85.85c-1.56,0-3.12,0-4.68,0H4.64v7.58H0V14.07l.3,0H9.89a7.55,7.55,0,0,1,4.21,1.17,5.93,5.93,0,0,1,2.69,4.37c.08.59.05,1.2.08,1.8v.36a1.05,1.05,0,0,0,.13-.08,7.76,7.76,0,0,1,5.93-2.19,7,7,0,0,1,6.63,5.16A11.48,11.48,0,0,1,30,28.33c0,.23-.08.3-.31.3H18.93a5.54,5.54,0,0,0,.44,2.12,2.58,2.58,0,0,0,1.42,1.39,4.16,4.16,0,0,0,4.54-.63,6.58,6.58,0,0,0,.63-.82c.05-.07.14-.16.22-.16h3.44s.05,0,.1,0a9.07,9.07,0,0,1-1,2.23,5.76,5.76,0,0,1-3,2.35,9.14,9.14,0,0,1-6.17,0,6.82,6.82,0,0,1-4.37-4.64,9.57,9.57,0,0,1-.33-4.35C14.79,26.12,14.8,26.07,14.8,26ZM4.66,24s0,0,.07,0c1.63,0,3.25,0,4.88-.09a2.78,2.78,0,0,0,2.29-1.25,3.55,3.55,0,0,0,.41-2.53A2.48,2.48,0,0,0,10.45,18a6.41,6.41,0,0,0-1.69-.26c-1.31,0-2.61,0-3.92,0l-.18,0ZM19,25.9h6.78a3.23,3.23,0,0,0-3.58-3.23A3.24,3.24,0,0,0,19,25.9Z"/><path class="cls-1" d="M61.05,35.28h-.7c-1.1,0-2.21,0-3.31,0a.31.31,0,0,1-.36-.29c-.07-.37-.15-.73-.23-1.12l-.1,0a6.57,6.57,0,0,1-4.14,1.69,7.83,7.83,0,0,1-3-.23A4.19,4.19,0,0,1,46.07,31a4,4,0,0,1,1.49-3.27,4.8,4.8,0,0,1,2.16-1c1.32-.24,2.65-.41,4-.63a9.7,9.7,0,0,0,1.51-.34c1.07-.39,1.2-.85,1-1.94a1.6,1.6,0,0,0-1.45-1.38,7.58,7.58,0,0,0-1.9-.06,2.13,2.13,0,0,0-2.09,2l0,.21h-4.2a4.5,4.5,0,0,1,.27-1.52,4.83,4.83,0,0,1,2.57-2.75,7.84,7.84,0,0,1,2.81-.77,13.92,13.92,0,0,1,4.9.27,5.22,5.22,0,0,1,2.17,1.08,3.42,3.42,0,0,1,1.23,2.6c0,.73,0,1.47,0,2.2,0,2.4,0,4.8,0,7.19A5.24,5.24,0,0,0,61.05,35.28Zm-4.72-7.43a8.39,8.39,0,0,1-1.12.39c-.67.14-1.34.23-2,.34a5,5,0,0,0-2.08.66,1.94,1.94,0,0,0-.8,2.06,1.66,1.66,0,0,0,1.35,1.41,5.24,5.24,0,0,0,1.85.11,2.8,2.8,0,0,0,2.65-2.36C56.31,29.61,56.28,28.73,56.33,27.85Z"/><path class="cls-1" d="M77.45,27.61a9.74,9.74,0,0,1,.93-4.08A6.84,6.84,0,0,1,82.47,20a9,9,0,0,1,6.14.07A6.82,6.82,0,0,1,93,24.81a9.57,9.57,0,0,1-.3,6.42,6.79,6.79,0,0,1-4.83,4.13,9.3,9.3,0,0,1-5.55-.2,7,7,0,0,1-4.62-5.43C77.57,29,77.53,28.31,77.45,27.61Zm11.73,0h.07a22.06,22.06,0,0,0-.38-2.3,3.45,3.45,0,0,0-4.54-2.48A3.33,3.33,0,0,0,82,25.43a8.64,8.64,0,0,0-.14,3.72,4.56,4.56,0,0,0,.92,2.18,3.32,3.32,0,0,0,3,1.16,3.17,3.17,0,0,0,2.74-1.75A6.6,6.6,0,0,0,89.18,27.62Z"/><path class="cls-1" d="M62.2,19.9h4v2.18a1.9,1.9,0,0,0,.18-.2,5.15,5.15,0,0,1,4.31-2.37,8.08,8.08,0,0,1,2.08.15,4.24,4.24,0,0,1,3.63,3.81,15.42,15.42,0,0,1,.2,2.25c0,3.07,0,6.15,0,9.22v.32H72.37v-.39c0-2.8,0-5.59,0-8.38a8.53,8.53,0,0,0-.27-2A2,2,0,0,0,70,22.84a5.26,5.26,0,0,0-1.12.05,2.43,2.43,0,0,0-2.18,1.89A9.53,9.53,0,0,0,66.42,27c0,2.65,0,5.3,0,8,0,.23-.07.3-.3.29H62.2Z"/><path class="cls-1" d="M40.73,35.26l-.27,0h-3.7c-.19,0-.26,0-.26-.24q0-7.48,0-15a1,1,0,0,1,0-.16h4v2.76h0a1.25,1.25,0,0,0,.09-.12,5.33,5.33,0,0,1,4.22-3.05,6.06,6.06,0,0,1,1.34.07c.07,0,.18.13.18.21,0,1.21,0,2.42,0,3.64,0,0,0,.07,0,0-.72,0-1.42-.08-2.12,0A3.54,3.54,0,0,0,41,26.3a11.13,11.13,0,0,0-.24,2.07c0,2.2,0,4.4,0,6.6Z"/><path class="cls-1" d="M35.21,35.27H31V19.91h4.19Z"/><path class="cls-1" d="M9.11,9.38a11.59,11.59,0,0,1-.85,1.06A4.2,4.2,0,0,1,5,11.53,4.77,4.77,0,0,1,.89,9.18,6.5,6.5,0,0,1,0,5.5,6.46,6.46,0,0,1,.7,2.7,4.83,4.83,0,0,1,5.41,0,4.71,4.71,0,0,1,8.5,1.11,4.3,4.3,0,0,1,9.85,3.5a1.05,1.05,0,0,1,0,.18c-.31,0-.62,0-.93,0,0,0-.11-.08-.13-.14A3.62,3.62,0,0,0,5.05.9,3.92,3.92,0,0,0,1.37,3.83a6.07,6.07,0,0,0,.54,5,4,4,0,0,0,6.42.33,4.22,4.22,0,0,0,.74-2.61H5.3c0-.28,0-.53,0-.78,0,0,.14-.13.22-.13.53,0,1.07,0,1.6,0H9.76c.16,0,.26,0,.26.22v5.27a1.25,1.25,0,0,1,0,.15,4.12,4.12,0,0,1-.61,0c-.06,0-.14-.13-.15-.2C9.19,10.53,9.15,10,9.11,9.38Z"/><path class="cls-1" d="M46.4,10.47v.78a1.88,1.88,0,0,1-1.32-.09c-.44-.25-.44-.72-.48-1.24l-.2.27a3.16,3.16,0,0,1-3.18,1.32,2.47,2.47,0,0,1-1.74-.82,2.27,2.27,0,0,1,.81-3.5,8.64,8.64,0,0,1,2.41-.51l.92-.11a.92.92,0,0,0,.92-1.11A1.45,1.45,0,0,0,43.19,4a3.34,3.34,0,0,0-1.8.13,1.57,1.57,0,0,0-1,1.35,1.87,1.87,0,0,1,0,.25l0,0h-1A2.47,2.47,0,0,1,40.6,3.51a4.27,4.27,0,0,1,3.69-.12,2.16,2.16,0,0,1,1.24,2.17c0,1.33,0,2.67,0,4C45.53,10.4,45.57,10.44,46.4,10.47ZM44.5,7.05a6.39,6.39,0,0,1-.7.22c-.43.09-.86.12-1.28.21a14.65,14.65,0,0,0-1.73.45A1.18,1.18,0,0,0,40,9.05a1.49,1.49,0,0,0,.71,1.36,2.21,2.21,0,0,0,1.51.28,2.5,2.5,0,0,0,2.29-2A11.27,11.27,0,0,0,44.5,7.05Z"/><path class="cls-1" d="M30.3,8.67a3.11,3.11,0,0,1-2.8,2.81,6.48,6.48,0,0,1-1.59-.06,2.83,2.83,0,0,1-2.18-1.7,5.45,5.45,0,0,1,.19-5.1,3.11,3.11,0,0,1,2.64-1.55c2.13-.14,3.42,1.28,3.72,3.25.06.41.06.82.1,1.26H24.21a3.52,3.52,0,0,0,.6,2.08,2.55,2.55,0,0,0,3.44.68,2.42,2.42,0,0,0,1-1.44.29.29,0,0,1,.34-.24C29.83,8.68,30.06,8.67,30.3,8.67Zm-.88-1.95a8.27,8.27,0,0,0-.31-1.19,2.37,2.37,0,0,0-2-1.61,2.74,2.74,0,0,0-2.88,2.8Z"/><path class="cls-1" d="M35.2,17.51H31V14.07l.26,0H35c.16,0,.28,0,.28.23,0,1,0,2.07,0,3.1A.83.83,0,0,1,35.2,17.51Z"/><path class="cls-1" d="M21.08,3.3h1.59v.84H21.12v7.15h-1V4.14H18.78V3.3h1.35c0-.32,0-.6,0-.87a5.69,5.69,0,0,1,.12-1A1.42,1.42,0,0,1,21.43.3a3.77,3.77,0,0,1,1.46,0v.79c-.35,0-.68,0-1,0a.69.69,0,0,0-.69.6C21.12,2.22,21.12,2.74,21.08,3.3Z"/><path class="cls-1" d="M31.69,3.31h.87V5l.06,0a3,3,0,0,1,3-1.89,8.16,8.16,0,0,1,0,.86s-.16.12-.24.13a2.7,2.7,0,0,0-1.8.7,2.61,2.61,0,0,0-.9,2c0,1.36,0,2.73,0,4.09v.32h-1Z"/><path class="cls-1" d="M11.88,3.31h.87V5l.06,0a3,3,0,0,1,3-1.89c0,.3,0,.6,0,.89,0,0-.16.1-.25.1a2.7,2.7,0,0,0-2.21,1.16,2.64,2.64,0,0,0-.49,1.51c0,1.38,0,2.76,0,4.14v.3h-1Z"/><path class="cls-1" d="M37.53,11.3h-1v-8h1Z"/><path class="cls-1" d="M17.7,11.3h-.93v-8h.93Z"/><path class="cls-1" d="M39,0c-.7.74-1.31,1.44-2,2.08-.17.16-.53.12-.8.17l0-.09c0-.05,0-.11.08-.15L37.64.16c0-.07.13-.15.19-.15C38.19,0,38.55,0,39,0Z"/><path class="cls-1" d="M16.75.24h.95V1.82h-.82c-.05,0-.12-.09-.13-.14Z"/></g></g></svg>