<svg xmlns="http://www.w3.org/2000/svg" viewBox="0 0 93.43 39.82"><defs><style>.cls-1{fill:#595a5b;}</style></defs><g id="Capa_2" data-name="Capa 2"><g id="Capa_1-2" data-name="Capa 1"><path class="cls-1" d="M0,38.4v-.56c0-2.22,0-4.45,0-6.67,0-.3.1-.41.37-.47C3.26,30,6.18,29.47,9.13,29a77.11,77.11,0,0,1,13-.78,63,63,0,0,1,8.9.6c2.87.46,5.7,1.11,8.55,1.66,2.68.51,5.35,1.07,8,1.48a56.56,56.56,0,0,0,10.73.41,63.84,63.84,0,0,0,7.93-.84l.09.11a2,2,0,0,0-.22.09L53.61,39.7a.74.74,0,0,1-.43.12c-2-.19-4-.39-6.08-.6-3.67-.38-7.25-1.33-10.88-1.95-2.1-.37-4.23-.67-6.35-1a72.46,72.46,0,0,0-10.41-.61,69.37,69.37,0,0,0-7.89.52A82.27,82.27,0,0,0,.22,38.35Z"/><path class="cls-1" d="M7.4,14.76v9.62H0V0L.38,0c4.9,0,9.8,0,14.7,0a10,10,0,0,1,5.09,1.25,5.81,5.81,0,0,1,3.07,5.09,6.55,6.55,0,0,1-2.13,5.43,7.58,7.58,0,0,1-2.45,1.48l-.35.14,6,10.78-.32,0H16.41a.5.5,0,0,1-.51-.31C14.32,21,12.72,18,11.14,15.06a.52.52,0,0,0-.54-.33c-.93,0-1.85,0-2.77,0ZM7.35,3.52v7.91c1.24-.12,2.45-.18,3.64-.37a7.69,7.69,0,0,0,3.29-1.22,3.36,3.36,0,0,0,1.61-2.79A3.35,3.35,0,0,0,12.42,3.5c-1.57,0-3.14,0-4.72,0Z"/><path class="cls-1" d="M37.67,6.21A17.79,17.79,0,0,1,43.33,7a7.33,7.33,0,0,1,5.27,6.65,14.17,14.17,0,0,1-.26,5.15,7.27,7.27,0,0,1-5.53,5.41,19.5,19.5,0,0,1-6.14.6,16.31,16.31,0,0,1-4.33-.69,7.4,7.4,0,0,1-5.48-6.63A15,15,0,0,1,27,12.38a7,7,0,0,1,5.21-5.49A18.77,18.77,0,0,1,37.67,6.21Zm-4.09,9c.05.94.06,1.58.12,2.21A15,15,0,0,0,34,19.25a2.68,2.68,0,0,0,2.23,2.26,10.39,10.39,0,0,0,2,.12,3.15,3.15,0,0,0,3.41-2.86,15.93,15.93,0,0,0,.24-4.57,18.9,18.9,0,0,0-.41-2.8,2.48,2.48,0,0,0-2.06-2,9.69,9.69,0,0,0-2.28-.16c-2,.11-2.93,1-3.29,3.08C33.69,13.36,33.65,14.41,33.58,15.16Z"/><path class="cls-1" d="M86.35,13.26c0-.74-.08-1.47-.16-2.18a1.43,1.43,0,0,0-1-1.15,7.78,7.78,0,0,0-2.92-.32,33.52,33.52,0,0,0-5.74.74h-.16l-1.13-3L76.72,7a34.32,34.32,0,0,1,7.42-.78,13.17,13.17,0,0,1,6,1.23,5.26,5.26,0,0,1,3.11,4.88c0,3.68,0,7.36.06,11v.25c-1.08.19-2.15.41-3.22.57a43.13,43.13,0,0,1-8.34.58,14.46,14.46,0,0,1-5.51-1.08,4.45,4.45,0,0,1-2.89-3.41,5,5,0,0,1,3.08-5.65,13,13,0,0,1,4.48-1.1c1.67-.12,3.35-.16,5-.23Zm-.07,5.61c0-.89,0-1.79,0-2.69,0-.29-.07-.43-.39-.42-.73,0-1.46,0-2.18.09a5.71,5.71,0,0,0-2.94,1,2.67,2.67,0,0,0,.59,4.67,10,10,0,0,0,4.57.39c.27,0,.35-.12.35-.39C86.27,20.67,86.28,19.77,86.28,18.87Z"/><path class="cls-1" d="M93.43,29.19v8.37H67.49c.26-.47.5-.9.75-1.33,1.2-2.06,2.42-4.12,3.62-6.19a1.52,1.52,0,0,1,1.44-.85H93.43Z"/><path class="cls-1" d="M70,7.33c-.34,1-.66,2-1,2.91,0,.08-.23.14-.34.13-1.14-.15-2.28-.35-3.43-.47a7.52,7.52,0,0,0-2.67.17A3.25,3.25,0,0,0,60,12.5a10.19,10.19,0,0,0,0,5.61,3.62,3.62,0,0,0,3.35,2.66,15.79,15.79,0,0,0,5.21-.49l.34-.07L70,23.73c-.6.17-1.18.36-1.76.51a18.22,18.22,0,0,1-10-.2A7.29,7.29,0,0,1,53,17.57a15.26,15.26,0,0,1,.12-5A6.9,6.9,0,0,1,57.9,7,19.2,19.2,0,0,1,70,7.33Z"/></g></g></svg>