<svg xmlns="http://www.w3.org/2000/svg" viewBox="0 0 93.43 25.84"><defs><style>.cls-1{fill:#595a5b;}</style></defs><g id="Capa_2" data-name="Capa 2"><g id="Capa_1-2" data-name="Capa 1"><path class="cls-1" d="M57.48,25.48a19.08,19.08,0,0,0,8.37-.24,2.74,2.74,0,0,0,2.39-3c0-1.81,0-3.62,0-5.43h0c0-1.76.06-3.52,0-5.28-.1-2.5-1-3.57-3.43-4.05a22.78,22.78,0,0,0-8.39.18c-1,.19-.9.81-.81,1.56.12,1,.67.88,1.4.72a16.19,16.19,0,0,1,6.72-.22,2,2,0,0,1,1.83,2.2c0,3.42,0,6.84,0,10.26,0,.49,0,.86-.63,1a12.33,12.33,0,0,1-6.84.06c-1.53-.5-2.2-1.95-1.94-3.81.23-1.57,1.14-2.37,2.92-2.44,1.26-.05,2.52-.06,3.77,0,.89,0,1.12-.37,1.12-1.17s-.28-1.1-1.06-1.07c-1.61.07-3.23,0-4.83.14a4.65,4.65,0,0,0-4.56,4.7C53.33,22.78,54.7,24.87,57.48,25.48Z"/><path class="cls-1" d="M42.14,25.31a14.9,14.9,0,0,0,8.32-.18c.91-.23.76-.88.64-1.55s-.57-.71-1.22-.57a14.23,14.23,0,0,1-5.36.51A3.86,3.86,0,0,1,41,20.29a17.32,17.32,0,0,1,0-7.48c.5-2.27,1.7-3.19,4-3.34a13.34,13.34,0,0,1,4.62.52c.54.16,1.22.52,1.44-.45.17-.77.29-1.44-.8-1.71a16.06,16.06,0,0,0-7.45-.34,5.53,5.53,0,0,0-4.41,4.25,23.19,23.19,0,0,0-.57,5c.08.95.11,2.16.31,3.35C38.57,22.53,39.58,24.51,42.14,25.31Z"/><path class="cls-1" d="M78.61,21.18c-.37-2.18.82-3.62,2.26-4.95.95-.89,1.94-1.75,2.84-2.68a4.85,4.85,0,0,0,1.34-5A9.66,9.66,0,0,1,81.82,11a33.54,33.54,0,0,0-4.12,2.44C74.74,15.73,75.14,19.56,78.61,21.18Z"/><path class="cls-1" d="M87.36,13.16c-.41,5.31-3.65,8.68-8.47,8.51,2.72,5,8.51,5.57,12,1.26,2.6-3.21,3-6.9,2.13-10.79C92,7.83,87.42,1.6,84.11,0c0,.45.31.72.5,1.05A20.8,20.8,0,0,1,87.36,13.16Z"/><path class="cls-1" d="M23.79,25.3A16.11,16.11,0,0,0,32.84,25c.91-.26.86-.81.67-1.5s-.69-.75-1.37-.56a13.46,13.46,0,0,1-6.84.42A4,4,0,0,1,22.09,20a22.65,22.65,0,0,1,.06-7.21c.21-1.25.6-2.6,2-3,4.59-1.31,7.55-.27,7.66,4.77,0,.86-.21,1.16-1.08,1.14-2.06-.05-4.12,0-6.18,0-.86,0-1,.42-1,1.13s.09,1.16,1,1.13c1.45-.05,2.91,0,4.37,0s2.92,0,4.38,0c.87,0,1.32-.23,1.26-1.19s0-2.22-.07-3.32c-.29-3.21-1.89-5.26-4.68-5.94a12.31,12.31,0,0,0-6,0,5.25,5.25,0,0,0-4.1,4,18.37,18.37,0,0,0,0,9.54A5.65,5.65,0,0,0,23.79,25.3Z"/><path class="cls-1" d="M5.32,25.57a17.92,17.92,0,0,0,8-.49,2.24,2.24,0,0,0,1.83-2.53c-.06-3.52,0-7,0-10.56s0-7.24,0-10.86c0-1-.3-1.17-1.22-1-1.15.22-1.51.76-1.5,1.94.07,5.63,0,11.26,0,16.89,0,4.7-.22,4.91-5,4.72H7.31c-2.5-.14-3.76-1.24-4.22-3.68a20.55,20.55,0,0,1-.29-4.36C2.93,10.46,4.52,9,9.67,9.43c.55.05,1.25.35,1.28-.69,0-.79,0-1.32-1.07-1.41a17.15,17.15,0,0,0-4.05,0c-3,.4-4.66,1.8-5.33,4.71a20.31,20.31,0,0,0,0,9A5.52,5.52,0,0,0,5.32,25.57Z"/></g></g></svg>