<svg xmlns="http://www.w3.org/2000/svg" viewBox="0 0 93.43 29.6"><defs><style>.cls-1{fill:#595a5b;}</style></defs><g id="Capa_2" data-name="Capa 2"><g id="Capa_1-2" data-name="Capa 1"><path class="cls-1" d="M0,1.78a1,1,0,0,1,.91-.43q4.68,0,9.36,0c.44,0,.63.12.58.57a1.76,1.76,0,0,0,0,.23c0,.51.14,1.11-.08,1.51s-.88.26-1.34.41c-.83.27-1.1.55-1.16,1.62s0,2.13,0,3.19c0,.52.4.47.72.47,2,0,3.95,0,5.92,0h.18c.34,0,.49-.13.49-.5,0-1.08,0-2.17,0-3.25a1.53,1.53,0,0,0-1-1.47A4.91,4.91,0,0,0,14,4C13,3.75,12.94,3.75,13,2.61c0-1.43-.17-1.24,1.27-1.25,2.75,0,5.49,0,8.23,0,.32,0,.63,0,.95,0s.36.12.35.37a1.08,1.08,0,0,0,0,.18,5,5,0,0,1-.05,1.64c-.21.59-.95.3-1.44.48C21.32,4.4,21,4.69,21,5.68c0,3.63,0,7.26,0,10.89A2.17,2.17,0,0,0,23.23,19a2.63,2.63,0,0,0,.93.09c1-.22,1.3-.55,1.35-1.6.08-1.74.09-3.47,0-5.21a1.39,1.39,0,0,0-1.44-1.53c-.82-.11-.82-.11-.82-.93,0-.18,0-.35,0-.53,0-1,0-1,1-1.07,1.36-.14,2.72-.34,4.09-.53.65-.09,1.29,0,1.94,0,.4,0,.32.31.31.51a16.2,16.2,0,0,1-.11,3.1c.29,0,.32-.26.4-.41A6.65,6.65,0,0,1,38.54,7.5c.42.13.82.28,1.22.44s.43,0,.42-.28,0-.68,0-1c0-1.18-.46-1.62-1.64-1.58-.64,0-.74-.22-.73-.78,0-1.57,0-1.6,1.52-1.73a15,15,0,0,0,3.33-.75,5.45,5.45,0,0,1,1.78-.34c.69,0,.75,0,.75.72v14c0,.56,0,1.11,0,1.66,0,.85.24,1.1,1.08,1.2,1.06.12,1.83-.17,1.73-1.61s0-3.2,0-4.79c0-1.32-.36-1.8-1.66-1.94-.46-.06-.65-.21-.67-.73,0-1.57-.07-1.58,1.48-1.84s2.95-.44,4.45-.55c.51,0,.68.16.62.64s.14.57.57.34a8.07,8.07,0,0,1,2.72-.94,2.91,2.91,0,0,1,3.17,1.51,9,9,0,0,1,5.88-1.9,10.46,10.46,0,0,1,4.87,1A6.65,6.65,0,0,1,73,13.37a7.15,7.15,0,0,1-.66,4.42,6.57,6.57,0,0,1-4,3.38,11.43,11.43,0,0,1-5.18.45c-3.31-.38-6-2.29-6.58-6a7.74,7.74,0,0,1,.08-2.92c.07-.33.07-.5-.34-.63a7.34,7.34,0,0,1-1.89-.81,1.35,1.35,0,0,0-.92-.17.58.58,0,0,0-.57.63c0,2,0,4,0,6a1.24,1.24,0,0,0,1.36,1.38c.61,0,.8.23.78.85,0,1.57,0,1.57-1.59,1.57-4.08,0-8.17,0-12.25,0-.45,0-.73-.05-.65-.59,0-.23-.07-.35-.31-.18a7.14,7.14,0,0,1-4.76.94A5,5,0,0,1,33,20.79c-.33-.23-.45-.06-.42.24s-.17.49-.52.48c-.85,0-1.7,0-2.55,0-5.26,0-10.52.2-15.79.14-.55,0-.8-.1-.73-.7a9.62,9.62,0,0,0,0-1.42c0-.38.15-.56.53-.52h.23c1.35-.15,1.83-.67,1.84-2s0-2.8,0-4.2c0-.49-.18-.61-.63-.61-2,0-4.06,0-6.09,0-.25,0-.58,0-.58.34,0,1.63-.08,3.27.05,4.91.1,1.3.76,1.47,1.82,1.56.59.05.78.24.72.78s.26,1.38-.14,1.76-1.13.11-1.72.11H.47c-.16,0-.31,0-.47,0v-2.6a3.35,3.35,0,0,0,1-.5,4.51,4.51,0,0,0,1.86-4c0-2.66,0-5.32,0-8a7.61,7.61,0,0,0-.11-1.35,1.09,1.09,0,0,0-.57-.92A4.53,4.53,0,0,0,0,3.91Zm67.66,13a6.75,6.75,0,0,0-.72-3.52,2.54,2.54,0,0,0-4.19-.05,7.58,7.58,0,0,0-.27,6.1,2.23,2.23,0,0,0,2.13,1.59,2.45,2.45,0,0,0,2.58-1.48A8,8,0,0,0,67.66,14.76Zm-27.48-.27V11.77a.74.74,0,0,0-.13-.56c-1.12-1.26-3.14-1.7-4.2.07a6.55,6.55,0,0,0-.39,6.21,2.13,2.13,0,0,0,1.72,1.38,3.64,3.64,0,0,0,2.26-.55A1.36,1.36,0,0,0,40.2,17C40.13,16.15,40.18,15.31,40.18,14.49Z"/><path class="cls-1" d="M8.05,29.6a1.72,1.72,0,0,1-1.16-1.88c0-.36,0-.71,0-1.07.11-1,.46-1.4,1.48-1.5a6.86,6.86,0,0,1,2.12.05,1.68,1.68,0,0,1,1.3,2.06c-.06.3-.27.23-.45.24-1,0-2.09,0-3.13,0-.23,0-.59-.17-.66.19a.93.93,0,0,0,.35,1.05,1.7,1.7,0,0,0,.9.25c.47,0,.95,0,1.42,0s.77-.09.89-.54.31-.28.51-.22.14.28.12.44c-.1.63-.69.68-1.11.92Zm1.33-2.69c.43,0,.87,0,1.3,0,.16,0,.38.09.46-.14a.63.63,0,0,0-.09-.56.89.89,0,0,0-.52-.36,5.28,5.28,0,0,0-2.34,0,.77.77,0,0,0-.61.71c0,.27,0,.4.33.39C8.4,26.9,8.89,26.91,9.38,26.91Z"/><path class="cls-1" d="M43.58,29.6a1.18,1.18,0,0,1-.95-1.19c0-.18,0-.37.25-.36s.34,0,.36.26c0,.5.37.68.8.69.67,0,1.34,0,2,0,.44,0,.75-.19.74-.72s-.34-.61-.75-.62c-.77,0-1.54,0-2.31,0s-1-.33-1.06-1.07.19-1.19.87-1.32a8,8,0,0,1,2.88,0c.49.08.85.33.84.9,0,.15,0,.33-.2.35s-.35,0-.38-.17c-.08-.51-.47-.55-.85-.57a10.63,10.63,0,0,0-1.95,0c-.46.06-.56.34-.54.74s.29.53.64.53c.75,0,1.5,0,2.25,0s1.07.25,1.19.88a1.23,1.23,0,0,1-.76,1.53,1.31,1.31,0,0,0-.12.11Z"/><path class="cls-1" d="M51.87,29.6c-.54-.21-1.18-.35-1.32-1a4.31,4.31,0,0,1,.1-2.61,1.32,1.32,0,0,1,1.07-.74,7.32,7.32,0,0,1,2.64,0,1.38,1.38,0,0,1,1.23,1.37c0,.27,0,.55,0,.83a1.78,1.78,0,0,1-1.38,2.18Zm1.18-.6c.2,0,.4,0,.59,0,1,0,1.31-.33,1.32-1.31,0-.29,0-.59,0-.88a1,1,0,0,0-.92-1,6.93,6.93,0,0,0-1.82,0c-.78.06-1.08.38-1.13,1.16C51,28.72,51.22,29,53.05,29Z"/><path class="cls-1" d="M28.18,29.6c-1.1-.3-1.36-1.08-1.35-2.15,0-1.5.11-2.31,2.34-2.33a7.09,7.09,0,0,1,1.59.1A1.4,1.4,0,0,1,32,26.61c0,.27,0,.55,0,.83a1.79,1.79,0,0,1-1.33,2.16ZM29.42,29h.65c.91,0,1.26-.34,1.29-1.23,0-.32,0-.64,0-.95-.06-.7-.31-1-1-1.07a10.84,10.84,0,0,0-1.71,0c-.82.05-1.09.36-1.14,1.2C27.38,28.77,27.6,29,29.42,29Z"/><path class="cls-1" d="M37.89,29.6a1.59,1.59,0,0,1-1.09-1.79c0-.73,0-1.46,0-2.19,0-.25,0-.41.35-.4s.3.18.3.39c0,.75,0,1.5,0,2.25s.23,1,1,1.12a1.51,1.51,0,0,0,.3,0c1.85.08,2.13-.19,2.13-2v-1.3c0-.25,0-.48.35-.47s.31.23.31.45c0,1.1,0,2.21,0,3.31,0,.19.12.45-.2.54s-.4-.18-.5-.46c-.23.32-.56.38-.81.55Z"/><path class="cls-1" d="M93.43,2.49c-.3.48-.49,1.06-1.07,1.33A1.8,1.8,0,0,1,89.94,3a2.07,2.07,0,0,1,.77-2.8L91.18,0H92a2.82,2.82,0,0,1,1.42,1.54ZM93.08,2A1.66,1.66,0,0,0,91.55.34,1.7,1.7,0,0,0,90,2,1.68,1.68,0,0,0,91.5,3.68,1.63,1.63,0,0,0,93.08,2Z"/><path class="cls-1" d="M86,10.56c.68.37,1.34.51,1.9.88A4.87,4.87,0,0,1,90,16.67c-.66,2.73-2.51,4.21-5,5a12.73,12.73,0,0,1-6.81.37A6.55,6.55,0,0,1,73.52,19a3.67,3.67,0,0,1-.12-3.29,2.39,2.39,0,0,1,2.6-1.3,2.34,2.34,0,0,1,2,2.4,1.44,1.44,0,0,1-.14.62,1,1,0,0,0,.34,1.31c1.46,1.07,4.37,1.08,5.59-.73,1.06-1.57.59-4.4-.92-5.37a2.86,2.86,0,0,0-1.4-.45,9.24,9.24,0,0,0-2.29-.08c-.3.06-.39-.08-.39-.35,0-.59,0-1.18,0-1.77s.11-.63.59-.61A5.87,5.87,0,0,0,82.09,9,3.15,3.15,0,0,0,83.6,5.57a2.49,2.49,0,0,0-2.66-1.95,3.16,3.16,0,0,0-2.51,1,.74.74,0,0,0-.14,1A2.18,2.18,0,0,1,77.2,8.81a2.39,2.39,0,0,1-3.27-1.24,4,4,0,0,1,.68-3.94A7.09,7.09,0,0,1,79,1a10.65,10.65,0,0,1,7.19.83,5,5,0,0,1,2.93,5.07A4.69,4.69,0,0,1,86,10.56Z"/><path class="cls-1" d="M27.74,1.42a2.7,2.7,0,0,1,2.87,2.63,3,3,0,0,1-2.93,2.76,2.82,2.82,0,0,1-2.87-2.64A2.79,2.79,0,0,1,27.74,1.42Z"/><path class="cls-1" d="M21.85,25.78c.86-.91,1.93-.75,3-.51a1.12,1.12,0,0,1,.89,1.13c0,.93,0,1.85,0,2.78,0,.25-.08.35-.35.34s-.3-.18-.3-.39c0-.75,0-1.5,0-2.25s-.24-1-1-1.13a3.58,3.58,0,0,0-.65,0c-1.05,0-1.37.37-1.38,1.42,0,.65,0,1.3,0,1.95,0,.22,0,.43-.32.44s-.33-.2-.33-.43c0-.77,0-1.54,0-2.31s-.22-.92-.88-1a5.26,5.26,0,0,0-.89,0c-1,0-1.34.4-1.34,1.38,0,.67,0,1.34,0,2,0,.25,0,.42-.35.41s-.29-.2-.29-.4V25.63c0-.15-.06-.35.16-.39s.35-.11.43.16.22.06.32,0A3,3,0,0,1,21.85,25.78Z"/><path class="cls-1" d="M4,23.42H6.75c.24,0,.43,0,.42.33s-.21.32-.44.32H5.19c-.77,0-.78,0-.78.75,0,1.38,0,2.76,0,4.14,0,.26.1.56-.37.57s-.36-.3-.36-.55c0-1.46,0-2.92,0-4.38,0-.4-.09-.56-.52-.54-.59,0-1.18,0-1.77,0-.25,0-.48,0-.47-.35s.23-.3.45-.3Z"/><path class="cls-1" d="M57.35,25.69a3.53,3.53,0,0,1,3.32-.38,1.07,1.07,0,0,1,.76,1.1c0,.91,0,1.82,0,2.72,0,.22,0,.39-.31.39s-.34-.18-.34-.42c0-.79,0-1.58,0-2.37A.83.83,0,0,0,60,25.8a4,4,0,0,0-.59-.08c-2,0-2.12.44-2.09,2,0,.5,0,1,0,1.48,0,.23,0,.38-.32.37s-.32-.15-.32-.37c0-1.13,0-2.25,0-3.38,0-.2-.15-.49.24-.55S57.26,25.51,57.35,25.69Z"/><path class="cls-1" d="M35.12,25.22h.65c.23,0,.23.17.23.34s-.07.25-.24.25c-.36,0-.71,0-1.07,0s-.51.08-.5.48c0,.91,0,1.82,0,2.72,0,.26,0,.53-.37.52s-.3-.29-.31-.51c0-.91,0-1.81,0-2.72,0-.32,0-.54-.44-.49-.19,0-.4.05-.41-.27s.2-.34.42-.32.42-.13.43-.45c0-1,.45-1.34,1.4-1.35.22,0,.44,0,.65,0s.42-.06.42.26-.23.3-.44.31-.48,0-.71,0a.74.74,0,0,0-.64,1,.23.23,0,0,0,.26.18Z"/><path class="cls-1" d="M12.89,27.35V25.58c0-.15,0-.34.2-.35s.37-.08.4.2.16.13.26.05a2.59,2.59,0,0,1,2.43-.19,1.57,1.57,0,0,1,.74,1.7c-.07.18-.21.15-.34.16s-.25-.17-.28-.35c-.14-.9-.26-1-1.16-1.08-1.21-.09-1.62.29-1.62,1.5v2c0,.2,0,.35-.28.35s-.36-.08-.35-.33c0-.62,0-1.23,0-1.84Z"/><path class="cls-1" d="M49.26,27.36c0,.57,0,1.14,0,1.71,0,.21,0,.44-.29.45s-.31-.21-.31-.43V25.67c0-.19-.07-.45.28-.45s.32.26.32.48C49.26,26.25,49.26,26.81,49.26,27.36Z"/><path class="cls-1" d="M52.5,24.49c.74-1.34,1-1.52,1.62-1.48C53.88,23.69,53,24.5,52.5,24.49Z"/><path class="cls-1" d="M49.25,23.85c0,.26-.1.36-.34.35s-.24-.28-.26-.47.08-.31.31-.31S49.26,23.64,49.25,23.85Z"/><path class="cls-1" d="M90.78.89c.32,0,.63,0,.94,0,.56,0,.77.48.41.89s.11.51.15.76.3.32.12.45-.4-.06-.5-.26l0-.06c-.16-.17-.09-.62-.43-.52s-.08.42-.06.65,0,.23-.53.2A4.25,4.25,0,0,0,90.78.89Zm.56.59c0,.16-.07.41.19.42s.38-.18.37-.43a.34.34,0,0,0-.35-.39C91.27,1.08,91.38,1.33,91.34,1.48Z"/></g></g></svg>