<svg xmlns="http://www.w3.org/2000/svg" viewBox="0 0 73.44 93.43"><defs><style>.cls-1{fill:#595a5b;}</style></defs><g id="Capa_2" data-name="Capa 2"><g id="Capa_1-2" data-name="Capa 1"><path class="cls-1" d="M0,46.71V1.49C0,.13.09.05,1.46,0h69.6c2.38,0,2.38,0,2.38,2.36V92c0,1.48,0,1.48-1.49,1.48H1.49c-.26,0-.52,0-.78,0-.49,0-.73-.21-.71-.71,0-.26,0-.52,0-.78V46.71ZM36.63,74.38H2.49c-1.19,0-1.23,0-1.23,1.23V90.84C1.26,92,1.31,92,2.46,92H70.81C72,92,72,92,72,90.8c0-5,0-10.06,0-15.08,0-1.34,0-1.34-1.35-1.34Zm-14.76-25c-.08,1.75.12,4,.16,6.21,0,2.39-.35,2.41,2.55,2.36h.16a.72.72,0,0,0,.75-.81c0-.54,0-1.09,0-1.64,0-1.1.1-1.17,1.16-.91,2.08.53,4.2.9,6.33,1.23,4.53.7,8.9-.16,13.28-1.1,1.42-.31,1.4-.4,1.4,1.06,0,2.19,0,2.2,2.23,2.18,1.11,0,1.27-.22,1.39-1.32.33-3,.12-6.08.24-9.12.17-4,.23-8,.32-11.93.08-3.3.18-6.61.2-9.91,0-1.28,0-2.55.05-3.83a2.22,2.22,0,0,0-1.23-2.17,17,17,0,0,0-4.27-1.45c-.65-.16-1.35-.17-1.62-1-.08-.21-.34-.31-.56-.41a12.92,12.92,0,0,0-3-.91,25,25,0,0,0-11,.34,3.4,3.4,0,0,0-2,1,2.24,2.24,0,0,1-1.54.81A15.91,15.91,0,0,0,23,19.3a2.9,2.9,0,0,0-1.88,3c.18,1.7.27,3.41.29,5.13,0,2.47.1,4.95.1,7.41C21.52,39.55,21.93,44.22,21.87,49.4Z"/><path class="cls-1" d="M45.79,83.52c0,1.33,0,2.66,0,4,0,.73-.29.87-1,1a3,3,0,0,1-3.37-1.85,15.33,15.33,0,0,0-1.32-1.93c-.1-.14-.2-.35-.42-.26s-.18.3-.18.48c0,.83,0,1.67,0,2.5s-.27,1-1,1c-2.22,0-2,.13-2-1.89,0-2.31,0-4.63,0-7,0-.74.29-.93,1-1a2.8,2.8,0,0,1,3.08,1.52,21.64,21.64,0,0,0,1.48,2.11c.09.12.19.3.35.27s.19-.29.19-.46c0-.83,0-1.67,0-2.5,0-.61.19-.92.85-.91,2.7,0,2.22-.33,2.27,2.19C45.8,81.7,45.79,82.61,45.79,83.52Z"/><path class="cls-1" d="M10.28,78.6c1.7.05,1.52-.37,2.23,1.66.82,2.36,1.65,4.71,2.46,7.08.33,1,.22,1.09-.8,1.09-2.24,0-1.9.28-2.67-2-.34-1-.71-2-1.07-2.93-.06-.17-.11-.39-.34-.38s-.21.21-.28.35a2.86,2.86,0,0,0,0,2.49c.44,1,.41,1.1-.66,1.17a.84.84,0,0,0-.87.63.83.83,0,0,1-1,.63c-.57,0-1.14,0-1.71,0s-.7-.25-.52-.75c1-2.77,2-5.55,2.91-8.32a1,1,0,0,1,1-.76C9.45,78.62,9.81,78.6,10.28,78.6Z"/><path class="cls-1" d="M16,83.52c0-1.35,0-2.71,0-4.06,0-.65.24-.88.87-.87q2.65,0,5.31,0c.65,0,.87.25.86.88,0,2,.14,1.77-1.75,1.78H19.67c-.4,0-.73.12-.73.61s.3.62.71.62c.84,0,1.67,0,2.5,0,.6,0,.88.23.83.83a2.53,2.53,0,0,0,0,.55c.08.74-.24,1-1,1s-1.41,0-2.11,0-1,.23-1,1,0,1.25,0,1.88-.24.76-.76.76c-2.63,0-2.16.26-2.2-2C15.93,85.45,16,84.48,16,83.52Z"/><path class="cls-1" d="M24.22,83.52c0-1.33,0-2.66,0-4,0-.65.18-1,.89-.94,1.74,0,3.49,0,5.23,0,.67,0,.92.25.93.93,0,1.73,0,1.73-1.72,1.73H27.9c-.42,0-.7.18-.69.65s.3.57.69.58c.85,0,1.71,0,2.57,0,.58,0,.82.24.78.8v.08c0,1.48,0,1.48-1.42,1.48-.59,0-1.19,0-1.79,0s-.87.23-.85.83,0,1.31,0,2-.26.79-.81.79c-2.48,0-2.13.18-2.16-2Z"/><path class="cls-1" d="M61.26,78.6c1.22-.43,1.76.53,2.31,1.54s.73.9,1.26,0c.21-.36.44-.7.66-1.06a.76.76,0,0,1,.61-.43c.83,0,1.67,0,2.5,0,.57,0,.4.41.22.72-.7,1.19-1.34,2.42-2.12,3.55a6,6,0,0,0-1.09,3.87c.09,1.77.19,1.66-1.59,1.66-1.34,0-1.43,0-1.33-1.35a6.8,6.8,0,0,0-1.24-4.54c-.64-.91-1.15-1.92-1.72-2.88s-.4-1,.56-1.06Z"/><path class="cls-1" d="M54.83,78.6c1.09,0,2.18,0,3.28,0,.55,0,.82.24.8.8v.15c.05,1.9.05,1.92-1.82,2-.61,0-.83.28-.83.86,0,1.69,0,3.39,0,5.08,0,.72-.27,1-1,.94-2.05,0-1.86.11-1.87-1.85,0-1.3,0-2.6,0-3.9,0-.94-.18-1.12-1.08-1.12-1.68,0-1.57.12-1.57-1.66,0-1.29,0-1.31,1.31-1.31Z"/><path class="cls-1" d="M47,83.52c0-1.33,0-2.66,0-4,0-.72.26-1,1-.94,2.25,0,2-.18,2,2s0,4.53,0,6.79c0,.93-.09,1-1,1-2.11,0-1.92.14-1.92-1.87C47,85.55,47,84.53,47,83.52Z"/><path class="cls-1" d="M35.32,83.51c0,1.32,0,2.65,0,4,0,.65-.21,1-.9,1-2.37,0-2.06.18-2.07-2s0-4.47,0-6.71c0-1,.08-1.09,1.13-1.1,2,0,1.84-.12,1.84,1.86C35.33,81.48,35.32,82.49,35.32,83.51Z"/><path class="cls-1" d="M47.83,27.14c-.2,4.16,0,8.33-.22,12.48-.15,3.31-.25,6.61-.25,9.91a1.18,1.18,0,0,1-.87,1.28A23.74,23.74,0,0,1,40.55,52a38.49,38.49,0,0,1-5.15.17,30.12,30.12,0,0,1-8.73-1.4.91.91,0,0,1-.73-1c0-3.49-.06-7-.21-10.46-.18-4.16-.19-8.32-.28-12.48,0-1-.13-2-.13-3,0-.47.17-.68.65-.78a46.42,46.42,0,0,1,12.91-1.35A45.78,45.78,0,0,1,46,22.84c.1,0,.2.07.3.08,1.75.19,1.47.31,1.49,1.79C47.83,25.52,47.83,26.33,47.83,27.14ZM41.92,44.38h.7c.92,0,1-.09.67-.92-.73-2-1.45-4.07-2.19-6.1-.91-2.51-1.85-5-2.75-7.54a1,1,0,0,0-1.1-.76,6.77,6.77,0,0,1-.78,0,1,1,0,0,0-1.14.8c-.89,2.55-1.85,5.07-2.77,7.61-.73,2-1.42,4-2.15,6-.25.68,0,.92.65.89a14.81,14.81,0,0,1,1.49,0c.66,0,1-.3,1.17-.89.76-2,.16-1.74,2.37-1.76,1.69,0,1.66,0,1.24-1.61-.2-.75-.53-1.14-1.34-1.07-.56,0-.74-.25-.54-.79.4-1.08.77-2.16,1.15-3.24.07-.18.06-.47.32-.48s.25.29.31.48c.92,2.78,1.84,5.57,2.73,8.37.22.68.56,1.1,1.34,1A4.28,4.28,0,0,1,41.92,44.38Z"/></g></g></svg>