<svg xmlns="http://www.w3.org/2000/svg" viewBox="0 0 93.43 45.81"><defs><style>.cls-1{fill:#595a5b;}</style></defs><g id="Capa_2" data-name="Capa 2"><g id="Capa_1-2" data-name="Capa 1"><path class="cls-1" d="M46.68,45.81H.65c-.72,0-.64.07-.64-.65Q0,22.87,0,.57C0,.09.15,0,.6,0H92.66A1.4,1.4,0,0,0,93,0c.39-.06.48.12.48.49,0,2.56,0,5.12,0,7.68V44.89c0,.92,0,.92-.91.92Zm0-1.61H91.23c.63,0,.63,0,.63-.63V2.75c0-1.12,0-1.12-1.1-1.12H2.35c-.73,0-.73,0-.73.72q0,20.63,0,41.26c0,.45.11.6.59.6Q24.45,44.18,46.69,44.2Z"/><path class="cls-1" d="M46.71,34.3H6.76c-.48,0-.61-.11-.6-.61q0-4.88,0-9.75c0-.47.14-.55.56-.55H85.89c.36,0,.71,0,1.06,0s.34.08.34.33c0,.71,0,1.42,0,2.12,0,2.65,0,5.29,0,7.93,0,.44-.13.52-.54.52Zm31.2-4.63c-.07-.21-.12-.32-.16-.44-.46-1.34-.91-2.68-1.37-4-.07-.22-.15-.4-.46-.39-1.08,0-2.15,0-3.23,0-.25,0-.35.08-.34.33V32.5c0,.3.11.4.4.39.67,0,1.35,0,2,0,.37,0,.5-.09.49-.48,0-1.34,0-2.69-.08-4a.72.72,0,0,1,.14.24c.43,1.29.87,2.59,1.31,3.88.06.18.07.39.34.39h1.84a.27.27,0,0,0,.3-.23c.16-.49.33-1,.49-1.46.36-1,.71-2.06,1.06-3.09a30,30,0,0,0-.14,4.34c0,.32.06.46.42.45.69,0,1.39,0,2.08,0,.33,0,.45-.07.44-.42,0-2.42,0-4.83,0-7.25,0-.33-.12-.4-.42-.39-1,0-1.93,0-2.9,0a.68.68,0,0,0-.8.58C78.92,26.8,78.42,28.19,77.91,29.67Zm-17.68-.81c0,1.19,0,2.38,0,3.57,0,.32.05.47.41.46H68c.29,0,.42-.08.4-.38a7,7,0,0,1,0-1c0-.43-.08-.59-.55-.58-1.32,0-2.64,0-4,0-.31,0-.45-.07-.41-.4a1.21,1.21,0,0,0,0-.38c0-.31.11-.39.39-.38.69,0,1.39,0,2.08,0,.49,0,1.15.21,1.43-.12s0-.92.08-1.4-.12-.44-.46-.44c-1,0-2.09,0-3.14,0-.12,0-.32.05-.34-.09a2.08,2.08,0,0,1,0-.86c0-.17.31-.09.48-.09,1.24,0,2.48,0,3.72,0,.39,0,.52-.12.48-.5a5.79,5.79,0,0,1,0-1c0-.32-.07-.45-.42-.44-2.38,0-4.77,0-7.15,0-.32,0-.41.1-.4.41C60.24,26.44,60.23,27.65,60.23,28.86ZM11.11,30.33h0c-.39,0-.78,0-1.16,0s-.42.12-.33.45A2.56,2.56,0,0,0,11,32.4a6.35,6.35,0,0,0,3.83.64,4.91,4.91,0,0,0,2.79-.95,2.13,2.13,0,0,0-.48-3.67,10.6,10.6,0,0,0-2.4-.68,9.34,9.34,0,0,1-1.49-.4.43.43,0,0,1-.32-.39c0-.17.1-.24.25-.31a1.75,1.75,0,0,1,1.88.42.4.4,0,0,0,.33.14h2.46c.26,0,.35-.08.27-.34a2.48,2.48,0,0,0-1-1.46,6,6,0,0,0-4.27-.72,4.63,4.63,0,0,0-2.07.72,2.11,2.11,0,0,0,.22,3.66,11.24,11.24,0,0,0,2.9.85,3.2,3.2,0,0,1,1.23.38c.31.21.31.44,0,.65a1.87,1.87,0,0,1-2.19-.2.92.92,0,0,0-1-.41ZM42,27.19h1.26c.27,0,.34-.08.25-.34a2.39,2.39,0,0,0-1-1.43,6.26,6.26,0,0,0-6.09-.18,2,2,0,0,0-1.23,2,2.12,2.12,0,0,0,1.43,1.93,11.72,11.72,0,0,0,2.08.59,10.06,10.06,0,0,1,1.64.4c.45.2.5.51.15.75a1.83,1.83,0,0,1-2.31-.37.52.52,0,0,0-.48-.24c-.77,0-1.54,0-2.31,0-.42,0-.48.18-.36.51a2.91,2.91,0,0,0,1.35,1.58,5.22,5.22,0,0,0,2.11.63,7.33,7.33,0,0,0,3.95-.57,2.31,2.31,0,0,0,1.4-2.2,2.08,2.08,0,0,0-1.54-1.94,9.56,9.56,0,0,0-1.81-.51,10.94,10.94,0,0,1-1.77-.45c-.4-.14-.52-.47-.26-.67a1.8,1.8,0,0,1,1.82.15.83.83,0,0,0,.85.35Zm-15.28.27c-.49-.79-.95-1.5-1.37-2.24a.71.71,0,0,0-.69-.4c-.93,0-1.86,0-2.8,0-.11,0-.26-.06-.35.1l3.37,4.76a.92.92,0,0,1,.2.62c0,.74,0,1.48,0,2.22,0,.27.1.36.37.36.82,0,1.64,0,2.46,0,.31,0,.43-.09.42-.41,0-.74,0-1.49,0-2.23a1,1,0,0,1,.19-.62c.71-1,1.43-1.95,2.11-2.94a17.8,17.8,0,0,0,1.27-1.86c-1.14,0-2.22,0-3.3,0-.24,0-.33.13-.43.3C27.69,25.89,27.23,26.64,26.72,27.46ZM53.4,29.91c0-.85,0-1.7,0-2.55,0-.28.09-.37.36-.36.71,0,1.42,0,2.13,0,.25,0,.34-.09.34-.34,0-.5,0-1,0-1.49,0-.29-.1-.35-.36-.35-2.74,0-5.47,0-8.21,0-.28,0-.35.11-.34.37,0,.48,0,1,0,1.44,0,.32.11.38.39.37.6,0,1.19,0,1.79,0s.63-.14.63.61c0,1.61,0,3.22,0,4.83,0,.33.08.45.43.44.82,0,1.64,0,2.46,0,.32,0,.42-.11.41-.42C53.39,31.62,53.4,30.77,53.4,29.91Z"/><path class="cls-1" d="M53,18.87l-1.35-2.3L51.3,16a2.72,2.72,0,0,1-.43-1.45,4.93,4.93,0,0,0-4.87-5,4.78,4.78,0,0,0-4.41,3.56,5.6,5.6,0,0,0,.4,4.25,4.44,4.44,0,0,0,5.63,2c.36-.15.52-.12.7.24a13.82,13.82,0,0,0,1,1.71c.29.42.09.54-.26.65a8.79,8.79,0,0,1-4.13.42,7.62,7.62,0,0,1-5.66-3.69,7.74,7.74,0,0,1,3.25-11,8,8,0,0,1,10.07,2.39,7.71,7.71,0,0,1,1.22,6.74A8.53,8.53,0,0,1,53,18.87Z"/><path class="cls-1" d="M54.93,12.5c0-1.58,0-3.16,0-4.73,0-.36.09-.49.46-.47.74,0,1.48,0,2.22,0,.33,0,.43.09.43.43,0,2.71,0,5.41,0,8.12a7,7,0,0,0,.4,2.6A2.57,2.57,0,0,0,61.36,20a2.47,2.47,0,0,0,2.2-2.12A8.11,8.11,0,0,0,63.77,16c0-2.7,0-5.41,0-8.11,0-.46.15-.57.56-.55.73,0,1.45,0,2.18,0,.26,0,.36.08.36.36,0,3,0,6,0,9a6.82,6.82,0,0,1-.66,2.94,4.81,4.81,0,0,1-3.42,2.66,7.74,7.74,0,0,1-4.42-.21,5.06,5.06,0,0,1-3.27-4.14,10,10,0,0,1-.14-2c0-1.16,0-2.31,0-3.47Z"/><path class="cls-1" d="M37.62,11.1a6.56,6.56,0,0,0-2.1-1.27,4.72,4.72,0,0,0-6,3.24,5.44,5.44,0,0,0,.66,4.66,4.68,4.68,0,0,0,6.9,1l.53-.43v2.17c0,1.28,0,1.24-1.25,1.64a7.64,7.64,0,0,1-6.82-.92A7.42,7.42,0,0,1,26.18,16,7.84,7.84,0,0,1,31,7.49a7.94,7.94,0,0,1,6.37.13c.15.07.3.13.3.33Z"/><path class="cls-1" d="M19.07,9.19l-.45,1.13c-.66,1.71-1.32,3.41-2,5.13a.45.45,0,0,1-.52.35c-.79,0-1.58,0-2.37,0-.37,0-.41-.08-.28-.4.52-1.25,1-2.5,1.52-3.75.6-1.47,1.21-2.94,1.8-4.42.1-.25.19-.35.47-.34,1.2,0,2.39,0,3.58,0a.49.49,0,0,1,.57.35c1.44,3.62,2.9,7.22,4.35,10.82.5,1.22,1,2.44,1.51,3.66.11.28.12.39-.25.38-.83,0-1.67,0-2.51,0a.46.46,0,0,1-.52-.36q-2.38-6.21-4.8-12.41S19.15,9.27,19.07,9.19Z"/><path class="cls-1" d="M74.36,9.22l-1.3,3.36c-.87,2.27-1.75,4.53-2.62,6.79-.31.8-.62,1.59-.92,2.38-.08.22-.17.36-.44.35-.88,0-1.77,0-2.65,0-.28,0-.3-.08-.21-.31q2-4.89,4-9.78c.64-1.59,1.31-3.18,1.94-4.78.11-.29.27-.33.53-.33,1.15,0,2.29,0,3.43,0a.59.59,0,0,1,.68.42c.86,2.17,1.74,4.32,2.61,6.48.23.58.46,1.17.71,1.74.09.21,0,.26-.16.26-.88,0-1.77,0-2.65,0-.28,0-.34-.18-.42-.38l-1.68-4.36-.71-1.83Z"/><path class="cls-1" d="M15.05,19.65c-.31.77-.6,1.48-.87,2.2a.37.37,0,0,1-.41.25H6.48c-.25,0-.33-.1-.32-.35,0-.59,0-1.19,0-1.78,0-.26.09-.33.34-.33Z"/><path class="cls-1" d="M82.92,19.65h4c.29,0,.39.07.38.38,0,.56,0,1.12,0,1.69,0,.27,0,.4-.37.4-2.37,0-4.73,0-7.1,0a.49.49,0,0,1-.54-.36c-.22-.59-.44-1.18-.69-1.75-.13-.31,0-.35.25-.35Z"/><path class="cls-1" d="M14,19.06c-2.48,0-5,0-7.44,0-.4,0-.53-.12-.51-.52s0-1.06,0-1.59c0-.33.09-.45.43-.44.89,0,1.77,0,2.66,0H20.67a.48.48,0,0,1,.54.35c.21.59.43,1.18.67,1.76.14.35.05.44-.32.44Z"/><path class="cls-1" d="M79.29,19.06H71.86c-.54,0-.55,0-.35-.53s.43-1,.59-1.52a.61.61,0,0,1,.69-.49H86.2c1,0,1,0,1,1.06a6.91,6.91,0,0,0,0,.91c.07.49-.15.58-.59.57-2.46,0-4.92,0-7.38,0Z"/><path class="cls-1" d="M54.05,22.36a13.17,13.17,0,0,0-1.89,0A1.88,1.88,0,0,1,50,21.14c-.8-1.58-1.78-3.08-2.7-4.61-.21-.36-.11-.44.26-.43H50a.44.44,0,0,1,.44.2C51.65,18.29,52.83,20.28,54.05,22.36Z"/></g></g></svg>