<svg xmlns="http://www.w3.org/2000/svg" viewBox="0 0 75.4 93.43"><defs><style>.cls-1{fill:#595a5b;}</style></defs><g id="Capa_2" data-name="Capa 2"><g id="Capa_1-2" data-name="Capa 1"><path class="cls-1" d="M20.46,35.43c2.1-.24,4.21-.34,6.27-.74a15.16,15.16,0,0,0,6.62-3.38c2.28-1.88,5.47-2,7.47,1a15.49,15.49,0,0,0,5.2,5c3.09,1.82,4.13,4.27,3.39,7.79-.25,1.15-.64,2.28-1,3.41-.1.38-.25.74-.31,1.12-.09.56-.17,1.22.46,1.49s1-.29,1.28-.75a7.33,7.33,0,0,1,4.9-3.59,6.85,6.85,0,0,1,6.73,2.43,3.82,3.82,0,0,1,.35,4.69,10,10,0,0,1-4.46,4.16,5.59,5.59,0,0,1-6.73-1.22,9.22,9.22,0,0,0-1.35-1.15c-1-.61-1.61-.4-2.14.59a17.23,17.23,0,0,1-7.65,7.84,8.2,8.2,0,0,1-6.2.86c-1.88-.59-3.06-2-4.16-3.55a4.67,4.67,0,0,0-3.3-2,6.59,6.59,0,0,1-5.07-4c-.17-.32-.32-.64-.47-1A5.61,5.61,0,0,0,17,51.5a13.43,13.43,0,0,1-3-1.38c-2.5-1.77-3-4.33-2.45-7.16a16.55,16.55,0,0,1,2.89-6.36,3.28,3.28,0,0,1,2.82-1.34c1.05,0,2.11,0,3.17,0Z"/><path class="cls-1" d="M44.79.88a2.72,2.72,0,0,0,.57,0C36-1.49,23.22.84,13.53,9.09a38.5,38.5,0,0,0-7.39,8.2,35.57,35.57,0,0,0-2.59,4.53,33.23,33.23,0,0,0-1.8,4.62A49.24,49.24,0,0,0,.48,32.56c-.15,1-.29,1.93-.37,2.9a36.47,36.47,0,0,0,0,5.33,36.91,36.91,0,0,0,.69,5.14,37.66,37.66,0,0,0,1.35,4.89,38.13,38.13,0,0,0,1.93,4.57,38.38,38.38,0,0,0,5.29,8,34.16,34.16,0,0,0,3.22,3.26,31.64,31.64,0,0,0,3.5,2.7l.31.2A37,37,0,0,1,2.75,45.89a37.51,37.51,0,0,1-.44-6.26A35.29,35.29,0,0,1,4.56,27.76a39.67,39.67,0,0,1,2.11-4.65,40.66,40.66,0,0,1,2.62-4.22,39.5,39.5,0,0,1,3.07-3.75A37.07,37.07,0,0,1,23.71,6.83c.69-.33,1.4-.64,2.12-.93a38.15,38.15,0,0,1,9.9-2.41c.43,0,.86-.08,1.3-.1A36.41,36.41,0,0,1,59.24,9,37,37,0,0,1,75.4,31C73.29,17.88,62,3.85,44.79.88Z"/><path class="cls-1" d="M17,27a12.91,12.91,0,0,1,1.84-6.68A40,40,0,0,1,22.58,15a5.38,5.38,0,0,1,6-1.52,4.45,4.45,0,0,1,2.79,2.62c1.56,3.52,1,7-.58,10.3a11.18,11.18,0,0,1-5,5.36C21.28,34.15,16.84,30.88,17,27Z"/><path class="cls-1" d="M46.42,11.42a35.51,35.51,0,0,1,3.6.94,3.79,3.79,0,0,1,2.51,4.84,16.58,16.58,0,0,1-6.12,9.57A7.05,7.05,0,0,1,36,24.25a6.6,6.6,0,0,1,.45-6.36A12.13,12.13,0,0,1,43.38,12,29.1,29.1,0,0,1,46.42,11.42Z"/><path class="cls-1" d="M40.93,93c.93-5.27,1.85-10.41,2.75-15.56.08-.45.24-.6.69-.59,3,0,6,0,9,0a4.75,4.75,0,0,1,1.29.2,3.19,3.19,0,0,1,2.53,4.15,6,6,0,0,1-3.53,4.47l2.64,7.31c-1.71,0-3.32,0-4.93,0-.13,0-.33-.22-.39-.38q-1.45-4-2.9-8a1.12,1.12,0,0,1,0-.26,10.78,10.78,0,0,0,1.42-.23,3.69,3.69,0,0,0,2.64-3,1.22,1.22,0,0,0-1.23-1.57h-.08c-2.22-.15-2.25-.15-2.65,2q-1,5.4-1.92,10.8c-.09.53-.27.68-.78.67C44,93,42.48,93,40.93,93Z"/><path class="cls-1" d="M64.16,29.52a24.12,24.12,0,0,1-.62,2.54,19.9,19.9,0,0,1-4.21,7.13A7.6,7.6,0,0,1,56,41.37a5.14,5.14,0,0,1-5.3-1.25,4.6,4.6,0,0,1-1.14-4.87,16.19,16.19,0,0,1,5-8.27c2.53-2.12,5.66-1.77,8.23-.24A3.26,3.26,0,0,1,64.16,29.52Z"/><path class="cls-1" d="M35.69,85.51h5.15c-.17,1-.34,2-.5,2.91-.21,1.25-.41,2.49-.66,3.73,0,.22-.28.55-.47.58a24.83,24.83,0,0,1-9.52.39c-3.32-.66-4.79-3.56-4.35-6.81a11.1,11.1,0,0,1,11.4-9.75c1.21,0,2.42.12,3.62.24a19,19,0,0,1,2,.43l-.49,2.85a28.7,28.7,0,0,0-3.1-.66c-4.55-.45-7.43,1.78-8.22,6.3a3.83,3.83,0,0,0,4.32,4.44Z"/><path class="cls-1" d="M69.08,93H56.93c.37-2.1.72-4.15,1.08-6.2.55-3.09,1.11-6.18,1.65-9.27.07-.4.15-.66.65-.65,3.77,0,7.53,0,11.3,0a2,2,0,0,1,.33.07c-.15.82-.27,1.65-.48,2.45,0,.15-.45.27-.69.27-1.88,0-3.76,0-5.65,0-.52,0-.71.16-.78.68-.13,1-.34,2-.53,3.05h5.62L68.93,86c-1.57,0-3.11,0-4.65,0-.68,0-1,.09-1.08.87-.11,1.11-.38,2.21-.61,3.43h7Z"/><path class="cls-1" d="M11.35,93H6.17C7,88.53,7.75,84.1,8.54,79.59h-5L4,77H19.27l-.47,2.6H13.75C12.94,84.06,12.15,88.51,11.35,93Z"/><path class="cls-1" d="M20.44,76.94h5.19c-1,5.38-1.9,10.69-2.85,16.06H17.59Z"/></g></g></svg>