<svg xmlns="http://www.w3.org/2000/svg" viewBox="0 0 93.43 14.46"><defs><style>.cls-1{fill:#595a5b;}</style></defs><g id="Capa_2" data-name="Capa 2"><g id="Capa_1-2" data-name="Capa 1"><path class="cls-1" d="M6.49,14.45c-1.67,0-3.34,0-5,0C.47,14.48,0,14.12,0,13,.05,10.8,0,8.56,0,6.32A2.4,2.4,0,0,1,.68,4.86C2.24,3.37,3.88,2,5.46.5a1.3,1.3,0,0,1,2,0c1.63,1.48,3.31,2.9,4.9,4.41a2.29,2.29,0,0,1,.68,1.45c.07,2.23,0,4.47,0,6.71,0,1.06-.45,1.46-1.48,1.43C9.91,14.42,8.2,14.45,6.49,14.45Zm4.8-1.81c0-2,0-3.88,0-5.75A1.25,1.25,0,0,0,11,6C9.49,4.7,8,3.41,6.49,2.09,5,3.43,3.56,4.69,2.15,6a1,1,0,0,0-.35.6c0,2,0,4,0,6.07Z"/><path class="cls-1" d="M50.27,12.45l1-1.48a8.25,8.25,0,0,0,5.44,1,1.89,1.89,0,0,0,.91-.3.89.89,0,0,0,.46-.86c0-.21-.42-.48-.68-.51-.81-.08-1.62-.05-2.44-.09a20,20,0,0,1-2.18-.17A2.36,2.36,0,0,1,50.65,8a2.43,2.43,0,0,1,1.67-2.67,9,9,0,0,1,7.51.63,5.7,5.7,0,0,1-1,1.53A5.6,5.6,0,0,0,57.51,7a10.88,10.88,0,0,0-3.74-.11c-.28,0-.9.29-.88.77s.56.52.85.54c1.26.1,2.52.06,3.78.16,2,.16,3.16,1.23,2.87,2.85A3.54,3.54,0,0,1,59,13.3C56.93,14.68,52.35,14.19,50.27,12.45Z"/><path class="cls-1" d="M76.61,4.91H77c4.71-.07,5.48,2.86,4.66,6.49A2.85,2.85,0,0,1,79,13.66a24.56,24.56,0,0,1-4.85,0,3.14,3.14,0,0,1-2.77-3C70.84,6.55,72.32,4.91,76.61,4.91Zm0,7c2.23,0,2.88-.4,3.09-1.92.3-2.13-.49-3-2.65-3.08h-.85c-2,0-2.63.64-2.59,2.65S74.21,11.91,76.57,11.91Z"/><path class="cls-1" d="M42.36,10.57c.68,1,1.34,2.18,2,3.16a11.62,11.62,0,0,1-2.29,0l-1.19-1.67c-1.13-1.5-1.39-1.23-3.88-1.21,0,.89,0,1.87,0,2.87H35C35,11,35,8.1,35,5.19c2.32,0,4.66-.09,7,0a2.22,2.22,0,0,1,2,2,2.66,2.66,0,0,1-1,2.92ZM37,8.84c1.46,0,2.79.05,4.11,0A.87.87,0,0,0,42,8a.92.92,0,0,0-.72-.86c-1.39-.09-2.79,0-4.22,0Z"/><path class="cls-1" d="M85.56,8.25v5.4h-2.1c0-2.52,0-5,0-7.46,0-.38.48-1,.78-1.05A2.53,2.53,0,0,1,86,5.58c1.22,1.07,2.3,2.3,3.44,3.46.54.55,1.1,1.07,1.85,1.79V5.2h2.1c0,2.52,0,5,0,7.53,0,.34-.47,1-.73,1a3,3,0,0,1-1.86-.49c-1.58-1.46-3-3.06-4.55-4.6a3.48,3.48,0,0,1-.34-.51Z"/><path class="cls-1" d="M33.92,13.69c-1.35.05-2.53,0-2.53,0L30.59,12H25.14L24,13.75l-2.34,0c.33-.59.34-.65.49-.91q2.1-3.44,4.21-6.87c.91-1.47,1.86-1.5,2.74-.07C30.72,8.42,32.27,11,33.92,13.69ZM27.8,7.55l-1.73,2.9h3.44Z"/><path class="cls-1" d="M65,13.66V7.07H61.48V5.21l8.92,0c0,2.16.28,1.89-1.37,1.88-.61,0-1.21,0-1.94,0v6.59Z"/><path class="cls-1" d="M48.3,13.7h-2V5.22h2Z"/><polygon class="cls-1" points="6.52 5.41 8.83 7.43 8.85 10.56 4.21 10.54 4.24 7.39 6.52 5.41"/></g></g></svg>