<svg xmlns="http://www.w3.org/2000/svg" viewBox="0 0 93.43 35.25"><defs><style>.cls-1{fill:#595a5b;}</style></defs><g id="Capa_2" data-name="Capa 2"><g id="Capa_1-2" data-name="Capa 1"><path class="cls-1" d="M70.58,30.53c1.54-1.62,3.18-3.17,4.6-4.9a5.24,5.24,0,0,1,5.28-2.18,7.83,7.83,0,0,0,1.37,0c.06.43-.25.56-.44.74C77.94,27.63,74.46,31,71,34.47a1.76,1.76,0,0,1-1.4.58c-1.54,0-3.08-.06-4.62,0-.87,0-1.07-.29-1-1.1.05-2.07,0-4.15,0-6.26-.5-.05-.7.35-1,.59-2.16,2-4.31,4.08-6.44,6.15a1.9,1.9,0,0,1-1.51.61c-1.43,0-2.87,0-4.3,0-.67,0-.93-.15-.92-.88q0-4.94,0-9.88c0-.66.22-.85.87-.84,1.5,0,3,.05,4.51,0,.74,0,.89.26.88.93,0,2,0,4,0,6l.33.2c1.9-2,3.85-3.9,5.69-5.92a3.2,3.2,0,0,1,2.8-1.18,43,43,0,0,0,4.4,0c.72,0,.92.23.91.91,0,2,0,3.93,0,5.89Z"/><path class="cls-1" d="M0,35.23l3.11-8.46c.41-1.1.56-2.61,1.36-3.17s2.28-.19,3.45-.19c4.91,0,9.82,0,14.72,0a10.86,10.86,0,0,1,1.4,0,1.77,1.77,0,0,1,1.67,2.34c-.59,3.06-2.29,4.56-5.48,4.7-1,.05-1,.3-.48,1,.82,1.16,1.58,2.36,2.49,3.73H14.15a.57.57,0,0,1-.51-.31l-3.37-5.25c2,0,3.75-.06,5.51,0,2.12.08,2.54-.64,3.15-2.74a.76.76,0,0,0-.79-1.09c-2.54-.05-5.08,0-7.62-.05-.52,0-.52.43-.63.73C8.92,29.16,8,31.77,7,34.4a1.08,1.08,0,0,1-1.23.85C3.9,35.2,2,35.23,0,35.23Z"/><path class="cls-1" d="M33.94,35.2a59.09,59.09,0,0,1-6.51-.12c-2.16-.29-2.84-1.37-2.18-3.46.49-1.56,1.08-3.1,1.69-4.62a5.33,5.33,0,0,1,5.15-3.54c4.58-.09,9.16-.08,13.73,0,2.47,0,3.3,1.33,2.52,3.7-.4,1.22-.85,2.43-1.3,3.63-1.19,3.14-2.85,4.33-6.22,4.41C38.75,35.24,36.68,35.2,33.94,35.2Zm1.7-2.52h0c.78,0,1.57,0,2.35,0A2.44,2.44,0,0,0,40.53,31c.4-1,.8-2.06,1.15-3.11.45-1.39.07-2-1.38-2s-2.93,0-4.4,0a2.62,2.62,0,0,0-2.46,1.23,18.87,18.87,0,0,0-1.63,4.29c-.23.82.15,1.31,1,1.32Z"/><path class="cls-1" d="M90.08,21a17.75,17.75,0,0,0-1.93,0c-.9.09-1.09-.24-.9-1.08a13.24,13.24,0,0,0-.67-7.89A14.17,14.17,0,0,0,70,3.65,13.94,13.94,0,0,0,59.46,18.49c0,.61.17,1.2.23,1.81,0,.23.33.59-.14.69s-.42-.27-.48-.56a15.06,15.06,0,0,1-.1-6,17.34,17.34,0,0,1,34.26,5.37c-.14.88-.45,1.35-1.43,1.21A12.33,12.33,0,0,0,90.08,21Z"/><path class="cls-1" d="M73.71,35,84.55,23.79a1.22,1.22,0,0,1,1-.33c2.32,0,4.65,0,7,0,.72,0,.91.24.9.93,0,3.29,0,6.58,0,9.88,0,.62-.22.8-.81.79-1.5,0-3,0-4.51,0-.66,0-1-.13-.92-.88s-.26-1-1-.94c-1.83,0-3.65,0-5.48,0a1.77,1.77,0,0,0-1.58.69,2.72,2.72,0,0,1-2.68,1.14A25.36,25.36,0,0,0,73.71,35Zm13.47-8.79-4.85,4.89c1.36,0,2.74,0,4.13,0,.49,0,.73-.15.72-.66C87.17,29.11,87.18,27.73,87.18,26.25Z"/><path class="cls-1" d="M72.42,21.33a14.27,14.27,0,0,0,0-14.45c.94.75,1.89,1.49,2.83,2.25,2.24,1.78,4.46,3.58,6.71,5.35.44.36.58.58,0,.93C78.79,17.37,75.61,19.36,72.42,21.33Z"/><path class="cls-1" d="M3.16,15c.68,0,1.36,0,2,0a1.38,1.38,0,0,1,1.26,2.21c-.14.25-.39.35,0,.63.67.49.46,1.25.33,1.88s-.79.82-1.36.84c-1.5.05-3,0-4.49,0-.48,0-.61-.23-.6-.66,0-1.43,0-2.86,0-4.28,0-.51.2-.69.7-.67C1.74,15,2.45,15,3.16,15Zm.18,5h0c.6,0,1.2,0,1.81,0s1-.3,1-1-.25-1-1-1C4,18,2.88,18,1.75,18c-.6,0-.67.25-.7.76-.06.85.08,1.39,1.12,1.22A6.52,6.52,0,0,1,3.34,20Zm-.06-2.59c.53,0,1.07,0,1.6,0s1-.25,1-.91-.44-.89-1-.9c-.92,0-1.85,0-2.77,0-.74-.05-1.07.13-1.07,1s.47.88,1.08.85C2.5,17.37,2.89,17.39,3.28,17.39Z"/><path class="cls-1" d="M22.58,18.8c0,.47,0,.83,0,1.18s.08.56-.3.58-.34-.3-.34-.55c0-.64,0-1.28,0-1.93s-.29-.82-.82-.93c-1.67-.35-2.26.12-2.33,1.75,0,.56.33,1.6-.29,1.57s-.31-1.06-.34-1.63c-.07-1.6-.21-1.78-1.8-1.73-1.25,0-1.47.27-1.5,1.55,0,.5,0,1,0,1.5,0,.22-.05.44-.36.4s-.27-.21-.27-.39c0-1,0-2.07,0-3.11,0-.24.1-.47.37-.41,1.29.26,2.71-.67,3.94.41.19.17.33-.17.51-.25a3.76,3.76,0,0,1,2.72-.08C22.87,17.09,22.52,18.1,22.58,18.8Z"/><path class="cls-1" d="M23.72,17.81c0-.75,0-1.5,0-2.25,0-.24,0-.55.37-.52s.32.28.28.48c-.19,1.09.27,1.31,1.26,1.06a5.36,5.36,0,0,1,1.6,0,1.49,1.49,0,0,1,1.57,1.62c.16,2.41-.81,2.64-3.69,2.33-.32,0-.54-.34-.95,0s-.44-.19-.45-.45c0-.75,0-1.5,0-2.25Zm2.49-.7c-.45.07-1.17-.18-1.57.38a2.3,2.3,0,0,0-.13,2c.16.61.74.6,1.23.63s.79,0,1.18,0c.9,0,1.25-.44,1.24-1.35C28.14,17.27,28,17.12,26.21,17.11Z"/><path class="cls-1" d="M31.78,18.25a12.89,12.89,0,0,0,1.39,0c.24,0,.66.49.73-.16.05-.41-.09-.88-.57-.87-1,0-2.12-.56-3,.43a.32.32,0,0,1-.47,0c-.19-.15-.07-.33,0-.49a.44.44,0,0,1,.17-.26,5.2,5.2,0,0,1,3.74-.18c1,.23.8,1.13.81,1.87,0,1.93,0,1.94-1.88,2-.57,0-1.15,0-1.72,0-.83,0-1.37-.24-1.39-1.2s.52-1.23,1.35-1.21c.29,0,.57,0,.86,0Zm.25.41v.07a11.2,11.2,0,0,0-1.16,0,.63.63,0,0,0-.62.72.59.59,0,0,0,.61.6A10.3,10.3,0,0,0,33.39,20a.56.56,0,0,0,.5-.58.57.57,0,0,0-.5-.6C32.94,18.74,32.48,18.71,32,18.66Z"/><path class="cls-1" d="M37.94,20.59a12.5,12.5,0,0,1-1.5,0,1,1,0,0,1-1-.85.38.38,0,0,1,.16-.47c.18-.08.3,0,.44.17a4.13,4.13,0,0,0,3.49.51.64.64,0,0,0,.18-.68c-.06-.3-.32-.37-.58-.38-.75,0-1.5,0-2.25,0s-1.38-.17-1.42-1.09.64-1.13,1.34-1.18a16.9,16.9,0,0,1,2.36,0,1,1,0,0,1,1,.63c.06.18.08.36-.11.47a.27.27,0,0,1-.37-.06c-.9-1-2.06-.39-3.1-.46-.37,0-.46.3-.44.61s.25.48.58.49c.72,0,1.43,0,2.15,0s1.48.11,1.5,1.11-.71,1.2-1.53,1.21h-1Z"/><path class="cls-1" d="M10.7,20.62H9.88c-1.58,0-2-.49-2-2.05s.5-1.94,2-2c.39,0,.78,0,1.17,0,2.13,0,2.48,1,2.08,3.07a1.16,1.16,0,0,1-.88.84A5.09,5.09,0,0,1,10.7,20.62Zm-.26-3.5c-.28,0-.57,0-.86,0-.49.05-1,.19-1,.77s-.29,1.38.26,1.93,2.82.4,3.33,0a.9.9,0,0,0,.33-.64C12.84,17.53,12.4,17.08,10.44,17.12Z"/></g></g></svg>