<svg xmlns="http://www.w3.org/2000/svg" viewBox="0 0 46.72 26.88"><defs><style>.cls-1{fill:#595a5b;}</style></defs><g id="Capa_2" data-name="Capa 2"><g id="Capa_1-2" data-name="Capa 1"><path class="cls-1" d="M31.86,13.54a4.89,4.89,0,0,0,1.88-2.24.17.17,0,0,0,0-.14c-.82-1.23.17-2.09.65-3,.1-.19.23-.4.51-.39.11,0,.11,0,.17.59.42-.17.82-.37,1.24-.51s.65-.43,1-.08A1,1,0,0,1,37.38,9a9.66,9.66,0,0,0-1,2c-.05.19-.11.38-.17.57a.7.7,0,0,0,.23.87c.32.2.51-.14.67-.33a7.52,7.52,0,0,0,1.53-2.7,7.45,7.45,0,0,1,3-3.85c.1-.07.24-.17.34-.14.89.22.87-.5,1.06-1,.47-1.29.92-2.58,1.4-3.87.09-.23.15-.64.5-.53a.65.65,0,0,1,.37.76c-.09.48-.24,1-.38,1.44-.44,1.57-1.24,3-1.61,4.6A14.36,14.36,0,0,0,43,9.34c0,.29,0,.65.32.78s.48-.22.63-.43c.47-.66.92-1.34,1.41-2.06a.5.5,0,0,1,.05.58,16.41,16.41,0,0,1-2,3.4c-.22.27-.46.6-.86.48s-.32-.52-.41-.82c-.16-.57,0-1.15-.14-1.78-.34.16-.4.5-.56.75-.44.7-.87,1.41-1.3,2.11-.33.54-.64.43-1,0a7.48,7.48,0,0,1-.56-1.43c-.6,1-1.13,1.87-1.71,2.73-.3.43-.64,1-1.3.78S35,13.47,35,12.9a6.28,6.28,0,0,1,.75-2.41A2.91,2.91,0,0,0,36,9.77c-.69.39-1.43.65-1.8,1.48a8.88,8.88,0,0,1-1.56,2.55c-.77.79-1.57,1.56-2.33,2.37-.91,1-1.91.48-2.36-1.13-.42.63-.79,1.21-1.18,1.78a4.24,4.24,0,0,1-.87,1c-1,.74-1.7.56-2.2-.55-.12-.26-.19-.55-.33-.95-.35.57-.63,1-.9,1.49a7.71,7.71,0,0,1-1.24,1.6c-.83.82-1.6.73-2.16-.3a8.58,8.58,0,0,1-.42-1c-.33,0-.36.37-.48.58A16.53,16.53,0,0,1,16.81,21a.89.89,0,0,1-1,.4c-.41-.13-.41-.51-.41-.87V18.94c-.51.83-1,1.63-1.47,2.38-.67,1-1,.95-1.68-.06a2.68,2.68,0,0,1-.18-2.64,11,11,0,0,1,4.2-4.88.56.56,0,0,1,.81,0,.53.53,0,0,1,0,.8.39.39,0,0,0-.07.54c.42.55.19,1.09,0,1.63a6.14,6.14,0,0,0-.49,1.72c0,.19,0,.42.15.55a.5.5,0,0,0,.62-.12,4.23,4.23,0,0,0,1.46-2.22,7.69,7.69,0,0,1,2.64-4.25c.29-.26.68-.55,1.08-.27s.25.7.16,1.05a5,5,0,0,1-.7,1.65c-.16.22-.31.66-.69.17-.15-.2-.26,0-.35.1A6.06,6.06,0,0,0,19.68,17,1,1,0,0,0,20,18.2c.37.34.76.16,1.09-.09a6.12,6.12,0,0,0,2.51-3.51,7.23,7.23,0,0,1,2.77-4,.74.74,0,0,1,.76-.18c.32.15.25.48.25.74a4.55,4.55,0,0,1-.82,2.21c-.09.15-.29.35-.42.16-.41-.61-.5,0-.68.17a6.82,6.82,0,0,0-1,1.51,1,1,0,0,0,.25,1.29.77.77,0,0,0,1.09,0,5.39,5.39,0,0,0,2.29-3.2,6.09,6.09,0,0,1,2.17-3.6.83.83,0,0,1,.18-.13c.74-.51.9-.32,1.42.33.77,1,.31,1.88.23,2.82A4.28,4.28,0,0,1,31.86,13.54Zm-15.62,2a19.59,19.59,0,0,0-2.66,2.65,2.92,2.92,0,0,0-.7,1.77.55.55,0,0,0,.28.57c.26.11.41-.12.55-.29A18.87,18.87,0,0,0,16.24,15.49ZM30.94,11a5.13,5.13,0,0,0-2,3.6c0,.43.13.8.63.66s1.08-.56,1-1.13A15,15,0,0,1,30.94,11Zm11.3-4.2a8.88,8.88,0,0,0-2.35,2.58,2.22,2.22,0,0,0-.27,1.23c0,.17-.06.39.12.48s.37-.13.48-.26a15,15,0,0,0,2-3.19C42.27,7.4,42.45,7.14,42.24,6.79Z"/><path class="cls-1" d="M22.39,26.88A30,30,0,0,1,10.5,24.05c-.22-.1-.81-.09-.55-.54s.42-1,1.19-.61a27.48,27.48,0,0,0,12.5,2.68,27.47,27.47,0,0,0,18.68-7.19,24.66,24.66,0,0,0,2.58-2.82.56.56,0,0,0,0-.84c-.47-.54-.89-1.14-1.39-1.67s.13-.64.29-.92.44-.2.66,0c.75.81,1.42,1.68,2.1,2.54.29.36.15.6-.07.91a26.55,26.55,0,0,1-12.9,9.52A31.09,31.09,0,0,1,22.39,26.88Z"/><path class="cls-1" d="M2.49,17.74c.38.13.61-.2,1-.12-.72.51-1.38,1-2.06,1.45-.53.35-.69.26-.7-.39A3.91,3.91,0,0,1,2,15.58a9.87,9.87,0,0,1,6.17-2.92,2.43,2.43,0,0,1,2.67,1.7,6.13,6.13,0,0,1,.09,4.4,13.21,13.21,0,0,1-6.4,7.45c-.65.35-1.47.81-2.11.31s-.36-1.4-.2-2.13a39.42,39.42,0,0,1,2.88-7.55c.13-.29.27-.58.51-1.08A13.29,13.29,0,0,0,2.49,17.74Zm7.85-.4c0-1.63-.55-2.2-1.89-2.24A8.37,8.37,0,0,0,7,15.28c-.6.09-1.12.25-1.11,1.09a3.44,3.44,0,0,1-.45,1.33,50.94,50.94,0,0,0-2.12,5.59c-.1.33-.29.71,0,1s.71.14,1.05,0a10.43,10.43,0,0,0,4.51-3.58A7.25,7.25,0,0,0,10.34,17.34Z"/><path class="cls-1" d="M36.18,6.2a6.4,6.4,0,0,1-3.5.07A28.54,28.54,0,0,0,22.35,4.71c-8.29.37-15.27,3.47-20.58,10L.64,16.1c-.82-.89-.83-.9-.16-1.8a26.67,26.67,0,0,1,14.4-9.74,29.28,29.28,0,0,1,11.51-1A31.21,31.21,0,0,1,36.18,6.2Z"/><path class="cls-1" d="M16.61,22.81a3.13,3.13,0,0,1,2.56-.9c7.12,1,13.74-.24,19.58-4.67a15.12,15.12,0,0,0,1.77-1.62c.32-.34.38-.61,0-.93a5.52,5.52,0,0,1-.65-.63c-.17-.2-.67-.34-.2-.72s.65-.78,1.17-.2a19.31,19.31,0,0,0,1.4,1.46c.4.39.4.69,0,1.12a20.68,20.68,0,0,1-6.62,5.08,27,27,0,0,1-11.12,2.74A30,30,0,0,1,16.61,22.81Z"/><path class="cls-1" d="M31.58,8A5.38,5.38,0,0,0,30,8.62a1.06,1.06,0,0,1-.8.07,30.64,30.64,0,0,0-6.34-.63,25,25,0,0,0-11.41,2.78,5.44,5.44,0,0,1-3.13.39C12.74,7.13,25.94,5.29,31.58,8Z"/><path class="cls-1" d="M12.93,10.77c0,.58-.27,1.11.42,1.29.21,0,.16.35.12.53a3,3,0,0,1-.29.84c-.21.39-.51.89-1,.75s-.22-.69-.2-1.06A4.08,4.08,0,0,1,12.93,10.77Z"/></g></g></svg>