<svg xmlns="http://www.w3.org/2000/svg" viewBox="0 0 81.89 84.92"><defs><style>.cls-1{fill:#595a5b;}</style></defs><g id="Capa_2" data-name="Capa 2"><g id="Capa_1-2" data-name="Capa 1"><path class="cls-1" d="M57.29,57.6c.85-2.92,1.66-5.74,2.48-8.56,1.48-5.09,3-10.17,4.42-15.27a1.29,1.29,0,0,1,1.49-1.08c5,0,10.11,0,15.16,0,1.16,0,1.19,0,.88,1.13q-7.25,25-14.48,50a1.21,1.21,0,0,1-1.35,1q-8,0-16,0a1.44,1.44,0,0,1-1.52-1.13c-2.61-6.88-5.24-13.74-7.84-20.61q-2.28-6-4.51-12a1.24,1.24,0,0,0-1.35-1c-2.57,0-2.3-.2-2.3,2.25q0,15.53,0,31.06c0,1.42,0,1.42-1.43,1.42H16.16c-1.39,0-1.42,0-1.42-1.45q0-15.86,0-31.71c0-1.39,0-1.39-1.37-1.39H1.23C0,50.34,0,50.3,0,49.09V33.93c0-1.19.05-1.23,1.26-1.23H13.48c1.21,0,1.25,0,1.25-1.23,0-2.7-.06-5.39,0-8.09A22.24,22.24,0,0,1,22.66,6.45,26.24,26.24,0,0,1,42,.05c7.24.39,13.42,3.19,18,9a23.36,23.36,0,0,1,4.59,11.37c.44,3.14.14,6.3.22,9.45,0,.77-.5.79-1.06.79H54.94c-2.11,0-4.22,0-6.34,0-.85,0-1.22-.23-1.19-1.14.05-1.56,0-3.11-.12-4.67a8,8,0,0,0-7.13-7.73,7.23,7.23,0,0,0-6.5,3.55,10.94,10.94,0,0,0-1.27,5c-.06,2,0,3.92,0,5.88,0,.8.3,1.08,1.09,1.08,2.69,0,5.39-.06,8.08,0a9,9,0,0,1,6.78,2.77,7.94,7.94,0,0,1,1.52,2.7l6.84,18.43A1.63,1.63,0,0,0,57.29,57.6Z"/></g></g></svg>