<svg xmlns="http://www.w3.org/2000/svg" viewBox="0 0 93.43 20.85"><defs><style>.cls-1{fill:#595a5b;}</style></defs><g id="Capa_2" data-name="Capa 2"><g id="Capa_1-2" data-name="Capa 1"><path class="cls-1" d="M6.31,14.27v6.14H0V19.6C0,13.31,0,7,0,.73,0,.19.13,0,.69,0,4,0,7.23,0,10.5,0a7.21,7.21,0,0,1,5.86,2.42,7.36,7.36,0,0,1,1.19,7.49c-.9,2.61-3,3.77-5.57,4.2a14.16,14.16,0,0,1-2.06.13C8.75,14.28,7.57,14.27,6.31,14.27Zm0-4.84c.59,0,1.11,0,1.62,0a18.16,18.16,0,0,0,2.77-.24c1-.19,1.39-.95,1.36-2.07,0-1-.43-1.58-1.42-1.67-1.42-.13-2.86,0-4.33,0Z"/><path class="cls-1" d="M93.43,20.46H88.14c-.91,0-.41-.84-.79-1.23-.22.17-.5.39-.79.59A7.34,7.34,0,0,1,79,19.77a4.23,4.23,0,0,1,.79-7.18,26.48,26.48,0,0,1,4.55-1.09c.62-.14,1.27-.18,1.88-.33A1.22,1.22,0,0,0,87.34,10a1.29,1.29,0,0,0-1-1.26,2.31,2.31,0,0,0-2.89,1.14.66.66,0,0,1-.45.27c-1.57,0-3.14,0-4.69,0a3.75,3.75,0,0,1,2.28-3.91,10,10,0,0,1,3-.83,15.87,15.87,0,0,1,6.21.35,3.79,3.79,0,0,1,3,3.9c0,2.26,0,4.52,0,6.78A8.48,8.48,0,0,0,93.43,20.46Zm-6.1-6.56c-1.06.29-2.07.55-3.08.85a1.31,1.31,0,0,0-.09,2.54A2.21,2.21,0,0,0,86.51,17C87.55,16.14,87.33,15,87.33,13.9Z"/><path class="cls-1" d="M28.93,10.11a4,4,0,0,1,2.64-4A13,13,0,0,1,35,5.32a14.5,14.5,0,0,1,5.48.4,3.76,3.76,0,0,1,3,3.93c.06,2.29,0,4.57.06,6.86,0,1.28.21,2.56.34,3.95h-1.6c-1,0-2-.05-2.95,0-.74,0-1.12-.17-1.1-.94,0-.12,0-.24,0-.41a7,7,0,0,1-7,1.35,4,4,0,0,1-3.06-4,3.8,3.8,0,0,1,2.78-4c1.7-.52,3.5-.73,5.25-1.09A5.87,5.87,0,0,0,37.4,11a1.18,1.18,0,0,0,.27-2,2.4,2.4,0,0,0-3.49.79.59.59,0,0,1-.41.3C32.17,10.12,30.58,10.11,28.93,10.11Zm9.18,3.77-2.35.66a7.47,7.47,0,0,0-1,.35,1.23,1.23,0,0,0-.18,2.2,2.32,2.32,0,0,0,3-.38A4,4,0,0,0,38.11,13.88Z"/><path class="cls-1" d="M53,16.36h7.26v4H45.46c0-1.39,0-2.76,0-4.13,0-.23.3-.48.51-.67,1.93-1.78,3.88-3.55,5.83-5.32.15-.14.34-.25.51-.38l-.1-.16H46.19V5.64H59.7c0,1.4,0,2.77,0,4.14,0,.21-.28.44-.47.62-2,1.88-4,3.74-6,5.61A2.31,2.31,0,0,0,53,16.36Z"/><path class="cls-1" d="M68.84,16.34h7.31v4.05H61.37c0-1.39,0-2.8,0-4.21,0-.15.22-.31.36-.44l5.82-5.32.71-.67H62.06V5.65H75.57c0,1.41,0,2.8,0,4.19,0,.19-.27.39-.44.56l-5.68,5.35C69.27,15.9,69.13,16.05,68.84,16.34Z"/><path class="cls-1" d="M20.21,20.37V5.66h5.56V20.37Z"/><path class="cls-1" d="M25.78,4H20.25V.07h5.53Z"/></g></g></svg>