<svg xmlns="http://www.w3.org/2000/svg" viewBox="0 0 93.43 18.33"><defs><style>.cls-1{fill:#595a5b;}</style></defs><g id="Capa_2" data-name="Capa 2"><g id="Capa_1-2" data-name="Capa 1"><path class="cls-1" d="M91.52,1.11A1.92,1.92,0,1,0,93.43,3,1.92,1.92,0,0,0,91.52,1.11Zm0,3.47A1.56,1.56,0,1,1,93.07,3,1.55,1.55,0,0,1,91.52,4.58Z"/><path class="cls-1" d="M66.28,18.29a9.72,9.72,0,0,1-2.26-.5A9.92,9.92,0,0,1,62.36,17a8.21,8.21,0,0,1-2.57-2.23,9.07,9.07,0,0,1-1.49-3.25c0-.14-.07-.29-.1-.44-.83-4,.72-7.17,4-9.55a8.37,8.37,0,0,1,4-1.57,8.87,8.87,0,0,0-5.08,3.43,8.38,8.38,0,0,0-1.49,6,8.47,8.47,0,0,0,16.74.38,8.28,8.28,0,0,1-1.06,3.43,11.19,11.19,0,0,1-2.52,3A9.15,9.15,0,0,1,69.36,18a10.48,10.48,0,0,1-1.76.32A5.83,5.83,0,0,1,66.28,18.29Z"/><path class="cls-1" d="M32.86,8.86c.5.1.84.14,1.16.24a1.48,1.48,0,0,1,1.21,1.36c.06,2,.07,3.95.11,5.92,0,.42-.17.53-.55.52-1.16,0-2.32,0-3.48,0-.51,0-.68-.12-.67-.66,0-1.38,0-2.77,0-4.15a3.85,3.85,0,0,0,0-.59,1.28,1.28,0,0,0-1.44-1c-.73.08-.39.66-.4,1q-.06,2.37,0,4.74c0,.52-.15.69-.67.67-1.13,0-2.26,0-3.39,0-.4,0-.54-.11-.54-.52q0-7.38,0-14.75c0-.36.1-.5.48-.5,2.37,0,4.74,0,7.11,0A3.85,3.85,0,0,1,35.39,5C35.34,6.86,34.78,8.13,32.86,8.86ZM30.7,5.68a7.53,7.53,0,0,0-.05-.8c-.12-.81-.76-.66-1.3-.69s-.53.42-.53.79c0,.67,0,1.35,0,2,0,.44.16.57.59.58C30.48,7.61,30.68,7.37,30.7,5.68Z"/><path class="cls-1" d="M47.61,10.46c0,1.89,0,3.78,0,5.67,0,.66-.2.82-.81.79a28.21,28.21,0,0,0-3.05,0c-.66,0-.79-.21-.78-.82,0-1.63,0-3.27,0-4.91,0-.85-.52-.7-1-.7s-1-.14-1,.71c.05,1.67,0,3.33,0,5,0,.55-.15.73-.71.71-1.07,0-2.14,0-3.22,0-.46,0-.64-.1-.64-.6,0-3.79,0-7.57,0-11.35a3.44,3.44,0,0,1,3.28-3.72,16,16,0,0,1,4.89.06,3.41,3.41,0,0,1,2.94,3.49c0,1.9,0,3.79,0,5.68ZM41,6.11c0,1.52.17,1.66,1.64,1.43.17,0,.39,0,.38-.23a7.06,7.06,0,0,0-.13-2.59A.85.85,0,0,0,42,4.14a.9.9,0,0,0-.9.62A3.79,3.79,0,0,0,41,6.11Z"/><path class="cls-1" d="M0,9V1.85c0-.31-.13-.73.44-.71C3,1.21,5.48,1,8,1.28a3.35,3.35,0,0,1,3,3.43Q11,9,11,13.27a3.52,3.52,0,0,1-3.5,3.62c-2.29.05-4.58,0-6.87,0-.6,0-.6-.31-.6-.74Q0,12.57,0,9Zm4.55-.12c0,1.47,0,2.94,0,4.4,0,.45.1.66.61.67,1.11,0,1.51-.39,1.53-1.8,0-2.06,0-4.12,0-6.18a5.15,5.15,0,0,0-.16-1.17C6.33,4,5.67,3.91,5,4s-.4.64-.41,1C4.54,6.26,4.56,7.55,4.56,8.85Z"/><path class="cls-1" d="M23,7.71v5.51a3.53,3.53,0,0,1-3.6,3.67,18.47,18.47,0,0,1-4.64-.16,3.37,3.37,0,0,1-2.62-3.41c0-3.75,0-7.51,0-11.27,0-.65.19-.83.81-.79a27.86,27.86,0,0,0,2.89,0c.6,0,.75.17.75.76,0,3.25,0,6.5,0,9.75a4.84,4.84,0,0,0,.14,1.51.94.94,0,0,0,.92.73.89.89,0,0,0,.89-.65,4.19,4.19,0,0,0,.25-1.58c0-3.22,0-6.44,0-9.66,0-.63.11-.92.82-.87a20.42,20.42,0,0,0,2.71,0c.62,0,.75.2.74.77C23,3.92,23,5.82,23,7.71Z"/><path class="cls-1" d="M77.46,9c0-2.37,0-4.75,0-7.12,0-.61.18-.75.76-.74,2.09,0,4.18,0,6.27,0A4.56,4.56,0,0,1,87.32,2,2.93,2.93,0,0,1,88.5,4a12.78,12.78,0,0,1,.07,2.62A3.68,3.68,0,0,1,85,9.94a23.41,23.41,0,0,1-2.37,0c-.58,0-.79.13-.77.74,0,1.84,0,3.68,0,5.51,0,.53-.1.76-.69.73-1-.05-2-.05-3.05,0-.58,0-.69-.2-.68-.73C77.47,13.78,77.46,11.38,77.46,9Zm4.4-3.13a3.75,3.75,0,0,0,0,.75c.06.35-.26.87.29,1a1.31,1.31,0,0,0,1.5-.47,2.38,2.38,0,0,0-.11-2.67,1.38,1.38,0,0,0-1.4-.38c-.52.12-.23.6-.28.93A5.87,5.87,0,0,0,81.86,5.85Z"/><path class="cls-1" d="M51.17,10.46c0-1.87,0-3.73,0-5.6,0-.61-.19-.78-.77-.74s-1.3,0-2,0c-.41,0-.57-.15-.53-.54a1,1,0,0,0,0-.17c0-.73-.3-1.67.13-2.13s1.39-.15,2.12-.15c2.65,0,5.31,0,8,0,.58,0,.83.08.83.76,0,2.25,0,2.28-2.24,2.23-.78,0-1,.15-1,1,.06,3.64,0,7.29,0,10.94,0,.73-.21.9-.9.86a23.06,23.06,0,0,0-2.88,0c-.71.05-.83-.22-.82-.86C51.2,14.19,51.17,12.32,51.17,10.46Z"/><path class="cls-1" d="M75.68,7.64a7.87,7.87,0,0,1-7.1,8,7.33,7.33,0,0,1-7.86-6.83,7.7,7.7,0,0,1,6.72-8,6.85,6.85,0,0,0-5.23,7.05,6.89,6.89,0,0,0,6.89,6.21C72.53,14,75,11.67,75.68,7.64Z"/><path class="cls-1" d="M71.84,12.64A6.5,6.5,0,0,0,64.15,4c.41-1.13,1.4-1.78,3-2a6.45,6.45,0,0,1,6.72,8.71A3.64,3.64,0,0,1,71.84,12.64Z"/><path class="cls-1" d="M92.33,4h-.41s0,0,0,0l-.34-.72h-.26a0,0,0,0,0,0,0v.7a0,0,0,0,1,0,0h-.36a0,0,0,0,1,0,0V2a0,0,0,0,1,0,0h.78a.69.69,0,0,1,.48.17.57.57,0,0,1,.18.44.63.63,0,0,1-.09.33.54.54,0,0,1-.26.21l.39.78v0S92.34,4,92.33,4Zm-.71-1.11a.32.32,0,0,0,.2-.06.27.27,0,0,0,0-.36.32.32,0,0,0-.2-.06h-.34s0,0,0,0v.46h.36Z"/></g></g></svg>