<svg xmlns="http://www.w3.org/2000/svg" viewBox="0 0 93.48 29.87"><defs><style>.cls-1{fill:#595a5b;}</style></defs><g id="Capa_2" data-name="Capa 2"><g id="Capa_1-2" data-name="Capa 1"><path class="cls-1" d="M92.13,4.54h-.5a.05.05,0,0,1,0,0l-.41-.88h-.32s0,0,0,0v.86s0,0,0,0h-.45a0,0,0,0,1,0,0V2.18s0,0,0,0h1a.84.84,0,0,1,.59.21.7.7,0,0,1,.22.54.69.69,0,0,1-.11.4.71.71,0,0,1-.31.26l.47,1v0Zm-.86-1.35a.36.36,0,0,0,.24-.08.29.29,0,0,0,.08-.22.29.29,0,0,0-.08-.22.36.36,0,0,0-.24-.08h-.42s0,0,0,0v.56s0,0,0,0Z"/><path class="cls-1" d="M91.14,1.07a2.34,2.34,0,1,0,2.34,2.34A2.33,2.33,0,0,0,91.14,1.07Zm0,4.24A1.9,1.9,0,1,1,93,3.41,1.91,1.91,0,0,1,91.14,5.31Z"/><path class="cls-1" d="M23.75,24.94c-.22,1.21-.47,2.41-.65,3.61s-.25,1.3-1.44,1.3c-1.66,0-3,0-4.65,0a1.13,1.13,0,0,1-1.34-1C15.33,27.22,15,25.61,14.6,24c-.94-4.28-1.88-8.56-2.93-12.81-.37-1.5-.72-3-1-4.54-.13-.67-.46-.87-1.1-.86-2.65,0-5.62,0-8.27,0C.13,5.78,0,5.66,0,4.5S0,2.1.11.9C.17.24.42,0,1.05,0H16.61c.59,0,.89.2,1,.78C18,3,18.38,5.1,18.76,7.26c.24,1.37.45,2.74.7,4.11a1.46,1.46,0,0,0,.39.94c.29-.24.27-.58.32-.88.29-1.71.58-3.42.84-5.14.11-.7.42-1,1.16-1,1.26,0,2.51,0,3.77,0,.65,0,1,.2,1.06.89.27,1.9.61,3.79.93,5.69a1.07,1.07,0,0,0,.26.63,1.54,1.54,0,0,0,.33-1Q29.45,6.25,30.36,1c.13-.77.57-1,1.3-1Q44.29,0,56.93,0H86.36c1.39,0,1.39,0,1.42,1.36a29.5,29.5,0,0,1,.08,3.52c0,.63-.34.86-.9.88-.37,0-.74,0-1.12,0H38.41c-1.4,0-1.42,0-1.72,1.4-1,4.62-2,9.24-3,13.86-.57,2.66-1.17,5.32-1.74,8a.91.91,0,0,1-1,.83c-1.76,0-3.26,0-5,0-.72,0-1-.34-1.13-1.05-.21-1.3-.54-2.59-.82-3.88Z"/><path class="cls-1" d="M68.39,12.22a4.94,4.94,0,0,0,1-1.48C71,8.1,73.47,7.2,76.26,8.23a1,1,0,0,1,.76,1c0,1.93.1,3.85.14,5.77,0,.2.09.48-.15.58s-.34-.19-.47-.33c-.62-.71-1.23-1.5-2.32-1.28s-1.53,1.17-1.82,2.14a4.38,4.38,0,0,0,.44,3.63,2,2,0,0,0,3.36.38c.17-.17.3-.38.47-.55s.43-.19.47.16a3.47,3.47,0,0,1,0,.72,43.35,43.35,0,0,0-.11,5,1.17,1.17,0,0,1-1,1.28c-3.28.88-5.76-.33-7.22-3.54-.14-.31-.27-.62-.46-1.07-.5,1-.72,1.92-1.18,2.76-1.63,3-7.22,3.23-9-.46-.2-.42-.18-1.14-.68-1.17s-.52.68-.77,1A5.46,5.46,0,0,1,52,26.65c-3.08.09-6.14-.23-9.22-.15-.65,0-.93-.27-1-.89,0-.13,0-.26,0-.4,0-.81-.4-1.24-1.27-1.09H40.3c-1.71,0-1.73,0-2,1.63-.09.52-.29.76-.83.75q-1.68,0-3.36,0c-.56,0-.69-.23-.57-.75q1.94-8.52,3.85-17a.93.93,0,0,1,1.1-.87c1,0,2.09,0,3.13,0,.7,0,1,.26,1.14.91,1.15,5.09,2.33,10.17,3.5,15.24a2.94,2.94,0,0,0,.46,1.25,2,2,0,0,0,.12-1V9.15c0-1.08,0-1.11,1.14-1.11.77,0,1.55,0,2.32,0,2.68-.12,5.07.43,6.71,3a4.57,4.57,0,0,0,.14-1.84c0-.66.2-1,.92-1,.94,0,1.88,0,2.81,0,.7,0,.93.27.93,1,0,3.26,0,6.53,0,9.79a7.61,7.61,0,0,0,.12,1.35.88.88,0,0,0,.92.84,1,1,0,0,0,.94-.84,8.24,8.24,0,0,0,.23-2V9.23c0-1,0-1,1-1s1.82,0,2.73,0c.47,0,.66.19.65.68C68.37,9.92,68.39,11,68.39,12.22Zm-14.5,5.31a4.88,4.88,0,0,0-.18-1.75,2.34,2.34,0,0,0-1.54-1.72c-.44-.13-.81-.06-.81.53v5.7c0,.47.27.6.69.51a1.78,1.78,0,0,0,.9-.49A3.34,3.34,0,0,0,53.89,17.53ZM40.14,15H40c-.19,1.4-.43,2.8-.54,4.2,0,.47.53.3.85.33s.53-.07.47-.45C40.54,17.76,40.34,16.4,40.14,15Z"/><path class="cls-1" d="M7.42,7.88c.51,0,1,0,1.52,0,.72-.07,1.05.22,1.2.93.66,3,1.36,6,2.06,9.07C12.79,20.45,13.41,23,14,25.6c.21.92.19.93-.78.93s-2,0-3,0c-.63,0-.95-.21-1-.84a8.32,8.32,0,0,0-.15-.87.58.58,0,0,0-.65-.56H7.65c-1.68,0-1.7,0-2,1.68-.09.48-.35.6-.78.59-1.09,0-2.19,0-3.28,0-.65,0-.78-.24-.64-.83.68-3,1.34-5.94,2-8.91.6-2.69,1.24-5.37,1.8-8.06.14-.67.43-.9,1.07-.86S6.88,7.88,7.42,7.88Zm.14,7.59H7.29c-.17,1.25-.36,2.5-.5,3.76,0,.38.26.49.59.47s.78-.09.72-.55C8,17.91,7.75,16.69,7.56,15.47Z"/><path class="cls-1" d="M80.22,20.15c0-1.76,0-3.53,0-5.29,0-.67-.25-.89-.91-.88-1.5,0-1.5,0-1.5-1.52,0-1.23,0-2.46,0-3.69,0-.65.26-.9.91-.9,2.51,0,5,0,7.54,0,.64,0,.92.19.91.87,0,1.53,0,3,0,4.58,0,.58-.21.73-.76.7-1.57-.07-1.55-.22-1.55,1.55,0,3.31,0,6.63,0,10,0,.74-.21,1.07-1,1s-1.87,0-2.81,0c-.62,0-.86-.22-.85-.84C80.23,23.84,80.22,22,80.22,20.15Z"/></g></g></svg>