<svg xmlns="http://www.w3.org/2000/svg" viewBox="0 0 93.47 35"><defs><style>.cls-1{fill:#595a5b;}</style></defs><g id="Capa_2" data-name="Capa 2"><g id="Capa_1-2" data-name="Capa 1"><path class="cls-1" d="M12.11,24.87v-6.6c0-.2.07-.45,0-.61-.5-.94.19-.92.78-1,1.79-.37,3.59-.73,5.38-1.13,3.48-.77,4.73,1.39,4.49,4.18a4.59,4.59,0,0,1-1.84,3.46c-.34.25-.49.42-.06.73a2.84,2.84,0,0,1,1,1.81c.18.83.32,1.67.51,2.51a3.66,3.66,0,0,0,.78,1.75c.37.4.17.5-.22.57-.89.17-1.78.36-2.67.48s-1.41-.21-1.58-1.15c-.21-1.14-.4-2.29-.61-3.43a1.4,1.4,0,0,0-.74-1c-.6-.3-1-.07-1,.6,0,1.27,0,2.54,0,3.81,0,1.58-.44,2.12-2,2.47-.48.11-1,.17-1.45.29s-.71,0-.71-.61c0-2.35,0-4.7,0-7.06Zm4.14-4.18c0,.25,0,.51,0,.77,0,.74.16.84.89.61a2,2,0,0,0,1.48-1.7c.14-.83-.27-1.43-.94-1.49-1-.1-1.42.27-1.43,1.27Z"/><path class="cls-1" d="M53.22,20.8c0-2.71,0-5.43,0-8.14,0-.35.11-.48.39-.54,1-.21,2-.42,3-.61.12,0,.32,0,.37,0,.59.72.89.08,1.28-.24a3.17,3.17,0,0,1,4.86.87c1.77,2.93.74,8.24-2,10.27a3.22,3.22,0,0,1-3.06.64c-.52-.17-.64,0-.63.5q0,1.67,0,3.33c0,1.52-.41,2-1.87,2.3-.46.11-.92.18-1.37.28-.89.19-.89.19-.89-.75V20.8Zm4.17-3.3h0c0,.44,0,.88,0,1.31s0,.86.54,1A1,1,0,0,0,59,19.3a4.87,4.87,0,0,0,.47-4.09,1,1,0,0,0-.76-.8c-.46-.07-.75.27-1,.6a1.61,1.61,0,0,0-.32.94Z"/><path class="cls-1" d="M52.58,18.35c0,3.79-2,6.56-5.39,7.38-3,.74-5.26-.71-5.66-3.82A7.9,7.9,0,0,1,43.65,15a6.39,6.39,0,0,1,4.84-1.93,4.13,4.13,0,0,1,4.08,4.16C52.6,17.63,52.58,18,52.58,18.35Zm-4.24.79a6.16,6.16,0,0,0-.18-1.78c-.14-.42-.3-.81-.87-.83a1.12,1.12,0,0,0-1.11.68,6.87,6.87,0,0,0-.38,4c.06.56.28,1.18,1,1.23s1-.48,1.28-1A5.94,5.94,0,0,0,48.34,19.14Z"/><path class="cls-1" d="M33.78,22.18c-.05,3.06-1.16,5.53-4,7a6.17,6.17,0,0,1-3.15.67,3.85,3.85,0,0,1-3.74-3.25,7.9,7.9,0,0,1,2.24-7.88,6.07,6.07,0,0,1,5.44-1.57,4.22,4.22,0,0,1,3.23,4.06C33.8,21.5,33.78,21.84,33.78,22.18Zm-4.25,1.14a7.15,7.15,0,0,0-.18-2.1,1.06,1.06,0,0,0-.78-.8,1,1,0,0,0-1.07.46,2.33,2.33,0,0,0-.39.75A7.89,7.89,0,0,0,27,25.31c.1.5.31,1,1,1.05a1.28,1.28,0,0,0,1.2-.94A5,5,0,0,0,29.53,23.32Z"/><path class="cls-1" d="M75.39,18.63c-1,1.16-2,1.92-3.51,1.69a3,3,0,0,1-2.54-3.5,4.83,4.83,0,0,1,2.24-3.47,15,15,0,0,1,3.17-1.62c.28-.11.74-.12.59-.63a.79.79,0,0,0-1-.56,5.87,5.87,0,0,0-2.94,1.31c-.23.18-.44.59-.74.46s-.14-.6-.18-.91a.21.21,0,0,1,0-.08c0-2.33,0-2.34,2.16-3.3a7.33,7.33,0,0,1,3.15-.72,3.18,3.18,0,0,1,3.32,2.94c.25,2,0,4.08.12,6.12a2.74,2.74,0,0,0,.4,1.85c.26.32,0,.41-.26.46l-3,.63C75.89,19.39,75.58,19.16,75.39,18.63Zm.09-4c-.15-.24.25-.78-.35-.81A2.3,2.3,0,0,0,73.21,16a.9.9,0,0,0,.6.9,1,1,0,0,0,1.1-.35A3.2,3.2,0,0,0,75.48,14.61Z"/><path class="cls-1" d="M.48,35A6.55,6.55,0,0,1,.1,32.71a21.18,21.18,0,0,1,5-16.07,22,22,0,0,1,10.59-7A15.71,15.71,0,0,1,22,8.89a2.1,2.1,0,0,1,1.09,3.9,3,3,0,0,1-2,.26,17.49,17.49,0,0,0-10.94,2.44A18.89,18.89,0,0,0,.64,30.09,15.28,15.28,0,0,0,.63,34,1.1,1.1,0,0,1,.48,35Z"/><path class="cls-1" d="M28.32,6.1a2.23,2.23,0,0,1-2.57,2.25,35.25,35.25,0,0,0-5.32-.53C12.29,8.09,6.11,11.69,2,18.72c-.17.29-.26.87-.69.65s.06-.6.18-.89A22.87,22.87,0,0,1,9,8.72,24.17,24.17,0,0,1,20.18,4a17.39,17.39,0,0,1,6-.12C27.56,4.19,28.32,5,28.32,6.1Z"/><path class="cls-1" d="M88.46,7.25c0,.42,0,.83,0,1.24s-.15.56-.55.34a3.41,3.41,0,0,0-2-.41,1.37,1.37,0,0,0-.84.34c-.42.37-.38.74.14.94a5.25,5.25,0,0,0,1.06.22c2.82.42,3.86,2.74,2.32,5.16a7,7,0,0,1-7.71,2.79c-.33-.08-.56-.25-.55-.63V14.52c0-.49.25-.51.6-.31a6.12,6.12,0,0,0,1.59.6,2.12,2.12,0,0,0,1.91-.39.76.76,0,0,0,.36-.79.68.68,0,0,0-.59-.54c-.53-.12-1-.26-1.57-.41a2.92,2.92,0,0,1-1.86-4.49,5.11,5.11,0,0,1,2.05-2.07,7.39,7.39,0,0,1,4.79-.94c.67.09,1,.38.88,1.06A8.51,8.51,0,0,0,88.46,7.25Z"/><path class="cls-1" d="M35.11,22.43c0-1,0-1.79,0-2.62,0-.54-.14-.79-.7-.62s-.75-.08-.72-.62a9,9,0,0,0,0-1.16c-.06-.73,0-1.35,1-1.39a.47.47,0,0,0,.44-.54c0-.2,0-.41,0-.62.08-1.51.45-1.94,1.93-2.25,2.08-.44,2.1-.44,2.13,1.67,0,.67.25.77.85.64,1-.23,1.06-.2,1.07.9,0,.23,0,.46,0,.69,0,1.22.16,1.33-1.16,1.54a.62.62,0,0,0-.58.69c0,1.39,0,2.79,0,4.18,0,.79.42,1,1.13.6.52-.31.61-.16.6.35,0,.73,0,1.45,0,2.17a.81.81,0,0,1-.56.84,7.28,7.28,0,0,1-3.15.67,2.06,2.06,0,0,1-2.11-1.78A19.23,19.23,0,0,1,35.11,22.43Z"/><path class="cls-1" d="M68.73,12.17c0,2,0,4,0,6a3.27,3.27,0,0,1-3.67,3.49c-.35,0-.44-.21-.44-.5,0-.52,0-1,0-1.55V8.81a4.12,4.12,0,0,1,.54-2.23c.75-1.19,2-1.21,3.22-1.39.45-.07.35.42.36.7C68.74,8,68.73,10.08,68.73,12.17Z"/><path class="cls-1" d="M20.73,1.66a1.57,1.57,0,0,1-1.42,1.66,39.84,39.84,0,0,0-5.07,1.11A19.16,19.16,0,0,0,6.71,9.21c-.18.19-.37.47-.64.28s0-.43.11-.61A17.14,17.14,0,0,1,18.06.07a3.91,3.91,0,0,1,1.23,0A1.54,1.54,0,0,1,20.73,1.66Z"/><path class="cls-1" d="M92.6,15.3h-.32s0,0,0,0L92,14.71h-.21s0,0,0,0v.55a0,0,0,0,1,0,0h-.29s0,0,0,0v-1.5s0,0,0,0h.61a.52.52,0,0,1,.38.13.44.44,0,0,1,.15.35.52.52,0,0,1-.07.25.39.39,0,0,1-.21.17l.31.61v0Zm-.55-.87a.25.25,0,0,0,.15,0,.19.19,0,0,0,0-.14.16.16,0,0,0,0-.14.2.2,0,0,0-.15-.06h-.28s0,0,0,0v.35s0,0,0,0Z"/><path class="cls-1" d="M92,13.07a1.5,1.5,0,1,0,1.5,1.5A1.5,1.5,0,0,0,92,13.07Zm0,2.72a1.22,1.22,0,1,1,1.22-1.22A1.22,1.22,0,0,1,92,15.79Z"/></g></g></svg>